<svg xmlns="http://www.w3.org/2000/svg" width="200" height="200"><defs><filter id="b" x="-1.059" width="3.117" y="-.15" height="1.3"><feGaussianBlur stdDeviation="3.647"/></filter><filter id="a" x="-.189" width="1.377" y="-.609" height="2.217"><feGaussianBlur stdDeviation="3.797"/></filter><filter id="c" x="-.79" width="2.58" y="-.175" height="1.349"><feGaussianBlur stdDeviation="3.456"/></filter></defs><path d="M102.136 99.21s26.423 23.445 46.93 1.02c29.43-32.18-46.93-1.02-46.93-1.02zm-1.406 3.865s-14.504 24.716-5.926 43.4c20.385 44.407 5.927-43.4 5.927-43.4zm-.6-7.3s28.014-30.08 6.585-58.754c-25.09-33.57-6.585 58.76-6.585 58.76zm-3.37 3.197S93.3 76.958 64.85 85.294C41.243 92.21 96.76 98.972 96.76 98.972z" fill="#2b74db" stroke="#000" stroke-width="5"/><path transform="rotate(41.5 346.5 185)" d="M108 272.5s8-42 30-39" opacity=".85" filter="url(#a)"/><path transform="matrix(-.6 .8 -.6 -.5 386.6 184)" d="M125 332s11.66-40.954 33.66-37.954" opacity=".85" filter="url(#b)"/><path d="M108 272.5s8-42 30-39" transform="matrix(.9 -.7 .8 .9 -222.5 -73.6)" opacity=".85" filter="url(#c)"/></svg>