<svg xmlns="http://www.w3.org/2000/svg" width="200" height="200"><defs><filter id="b" x="-.642" width="2.285" y="-.169" height="1.337"><feGaussianBlur stdDeviation="3.876"/></filter><filter id="a" x="-.233" width="1.465" y="-.378" height="1.756"><feGaussianBlur stdDeviation="4.062"/></filter><filter id="c" x="-.552" width="2.103" y="-.195" height="1.39"><feGaussianBlur stdDeviation="3.787"/></filter></defs><path d="M99.926 102.26s5.337 35.05 36.72 31.146c39.825-4.955-36.72-31.147-36.72-31.147zm-5.126.32s-19.05 8.758-18.325 27.025C78.413 178.428 94.8 102.58 94.8 102.58zm6.948-4.682s40.494-21.353 26.57-55.777c-15.72-38.853-26.57 55.78-26.57 55.78zm-3.886-1.174s-.084-32.916-26.615-42.438C30.88 39.8 97.862 96.724 97.862 96.724z" fill="#2b74db" stroke="#000" stroke-width="5"/><path d="M108 272.5s8-42 30-39" transform="matrix(.1 1 -1.1 .1 390.4 -36.2)" opacity=".85" filter="url(#a)"/><path d="M125 332s11.66-40.954 33.66-37.954" transform="matrix(-.8 .5 -.4 -.6 324.6 255.8)" opacity=".85" filter="url(#b)"/><path transform="matrix(1 -.4 .3 1.1 -103.2 -178.6)" d="M108 272.5s8-42 30-39" opacity=".85" filter="url(#c)"/></svg>