<svg xmlns="http://www.w3.org/2000/svg" xmlns:xlink="http://www.w3.org/1999/xlink" width="400" height="400"><defs><linearGradient id="b"><stop offset="0" stop-color="#e2ddce"/><stop offset="1" stop-color="#d8c166"/></linearGradient><linearGradient id="a"><stop offset="0" stop-color="#ddcb21"/><stop offset="1" stop-color="#ff7100"/></linearGradient><linearGradient xlink:href="#a" id="c" x1="197.123" y1="199.306" x2="196.866" y2="215.306" gradientUnits="userSpaceOnUse" gradientTransform="matrix(7.4 0 0 7.4 -1254.9 -1271.5)"/><linearGradient xlink:href="#b" id="d" gradientUnits="userSpaceOnUse" gradientTransform="matrix(7 0 0 3 -1180.5 -437.3)" x1="179.75" y1="208.125" x2="179.75" y2="199.375"/></defs><path d="M187.133 73.594c-90.65 0-142.45 88.007-141.524 136.18.922 48.173 76.26 116.726 144.296 116.726 69.375 0 147.29-2.003 125.8-95.42C301.98 171.41 353.63 69.89 187.132 73.595z" fill="url(#c)" stroke="#000" stroke-width="7"/><path d="M256.646 79.842c-66.803-7.418-55.337 89.254-35.886 112.176 39.186 46.174 103.662 57.193 110.53-25.41 5.593-67.292-74.644-86.766-74.644-86.766z" fill="#fff" stroke="#000" stroke-width="7"/><path d="M304.795 162.044a15.58 24.958-2.11 1 1-31.108-5.464 15.58 24.958-2.11 1 1 31.108 5.464z"/><g fill="#cf1717" stroke="#000" stroke-width="5.5"><path d="M360.575 253.315c-27.737-21.308-148.042-12.633-150.317 0-5.563 30.885 32.376 40.67 67.106 40.76 58.7.156 102-12.042 83.21-40.76z"/><path d="M352.536 213.296c-28.855-4.315-119.677-6.822-140.428 25.033-20.59 31.602 67.506 24.943 104.84 25.03 63.104.143 90.983-41.386 35.588-50.066z"/></g><path d="M31.26 163.338c41.995-7.27 111.987-5.986 124.236-1.283 12.248 4.703 5.25 36.58-16.623 39.144s-96.24 7.03-105.863.615c-9.624-6.413-19.248-29.928-1.75-38.48z" fill="url(#d)" stroke="#000" stroke-width="7"/></svg>