<svg xmlns="http://www.w3.org/2000/svg" xmlns:xlink="http://www.w3.org/1999/xlink" width="400" height="400"><defs><linearGradient id="b"><stop offset="0" stop-color="#e2ddce"/><stop offset="1" stop-color="#d8c166"/></linearGradient><linearGradient id="a"><stop offset="0" stop-color="#ddcb21"/><stop offset="1" stop-color="#ff7100"/></linearGradient><linearGradient xlink:href="#a" id="c" x1="197.123" y1="199.306" x2="196.866" y2="215.306" gradientUnits="userSpaceOnUse" gradientTransform="matrix(7.4 0 0 7.4 -1254.9 -1271.5)"/><linearGradient xlink:href="#b" id="d" gradientUnits="userSpaceOnUse" x1="179.75" y1="208.125" x2="179.75" y2="199.375" gradientTransform="matrix(7.4 0 0 6.9 -1254.9 -1172.1)"/></defs><path d="M187.133 73.594c-90.65 0-142.45 88.007-141.524 136.18.922 48.173 76.26 116.726 144.296 116.726 69.375 0 147.29-2.003 125.8-95.42C301.98 171.41 353.63 69.89 187.132 73.595z" fill="url(#c)" stroke="#000" stroke-width="7"/><path d="M256.646 79.842c-66.803-7.418-55.337 89.254-35.886 112.176 39.186 46.174 103.662 57.193 110.53-25.41 5.593-67.292-74.644-86.766-74.644-86.766z" fill="#fff" stroke="#000" stroke-width="7"/><path d="M304.795 162.044a15.58 24.958-2.11 1 1-31.108-5.464 15.58 24.958-2.11 1 1 31.108 5.464z"/><g fill="#cf1717" stroke="#000" stroke-width="5.5"><path d="M360.575 253.315c-27.737-21.308-148.042-12.633-150.317 0-5.563 30.885 32.376 40.67 67.106 40.76 58.7.156 102-12.042 83.21-40.76z"/><path d="M352.536 213.296c-28.855-4.315-119.677-6.822-140.428 25.033-20.59 31.602 67.506 24.943 104.84 25.03 63.104.143 90.983-41.386 35.588-50.066z"/></g><path d="M26.184 216.445c44.4-16.804 118.4-13.838 131.35-2.965 12.95 10.873-33.3 92.915-56.425 98.845-23.128 5.93-53.65 7.908-63.828-6.92-10.175-14.826-29.6-69.19-11.1-88.96z" fill="url(#d)" stroke="#000" stroke-width="7"/></svg>