<svg xmlns="http://www.w3.org/2000/svg" width="50" height="70" viewBox="0 0 50 70"><path d="M17.53 1.5h15.03q6.12 0 10.53 4.5 4.41 4.41 4.41 10.53v37.44q0 6.12-4.41 10.62Q38.68 69 32.56 69H17.53q-6.12 0-10.62-4.41Q2.5 60.18 2.5 53.97V16.53q0-6.21 4.41-10.62 4.5-4.41 10.62-4.41zm.18 53.73q.54 3.06 2.34 4.68 1.89 1.62 4.95 1.62 3.15 0 5.31-2.25 2.25-2.25 2.25-5.31V28.5L17.71 55.23zm14.76-40.05Q30.85 8.97 25 8.97q-3.06 0-5.31 2.25-2.16 2.16-2.16 5.31V42l14.94-26.82z" style="-inkscape-font-specification:Silom" font-size="90" font-family="Silom" letter-spacing="0" word-spacing="0" fill="#fff"/></svg>