<svg xmlns="http://www.w3.org/2000/svg" width="50" height="70" viewBox="0 0 50 70"><path d="M32.56 53.97V39.03q0-3.15-2.25-5.31-2.16-2.25-5.31-2.25-3.06 0-5.31 2.25-2.16 2.16-2.16 5.31v14.94q0 3.06 2.16 5.31 2.25 2.25 5.31 2.25 3.15 0 5.31-2.25 2.25-2.25 2.25-5.31zm-15.03-22.5q.45-3.69 2.34-5.58Q21.76 24 25 24h7.56q6.12 0 10.53 4.41 4.41 4.41 4.41 10.62v14.94q0 6.12-4.41 10.62Q38.68 69 32.56 69H17.53q-6.12 0-10.62-4.41-4.41-4.5-4.41-10.62V27.78q0-10.8 7.74-18.54Q18.07 1.5 28.78 1.5h11.25v7.47h-7.47q-6.21 0-10.62 4.5-4.41 4.41-4.41 10.53v7.47z" style="-inkscape-font-specification:Silom" font-size="90" font-family="Silom" letter-spacing="0" word-spacing="0" fill="#fff"/></svg>