<svg xmlns="http://www.w3.org/2000/svg" width="50" height="70" viewBox="0 0 50 70"><path d="M32.56 35.25q7.47 0 11.16 4.86 3.78 4.86 3.78 10.17v3.69q0 5.04-4.32 10.08Q38.86 69 32.56 69H17.53q-6.3 0-10.71-4.95Q2.5 59.01 2.5 53.97v-3.69q0-5.31 3.78-10.17t11.25-4.86q-7.47-.9-11.25-4.59Q2.5 26.88 2.5 20.22v-3.69Q2.5 10.41 6.91 6q4.5-4.5 10.62-4.5h15.03q6.12 0 10.53 4.5 4.41 4.41 4.41 10.53v3.69q0 6.66-3.78 10.44-3.69 3.69-11.16 4.59zm0-11.25v-7.47q0-3.15-2.25-5.31Q28.15 8.97 25 8.97q-3.06 0-5.31 2.25-2.16 2.16-2.16 5.31V24q0 3.06 2.16 5.31 2.25 2.16 5.31 2.16 3.15 0 5.31-2.16 2.25-2.25 2.25-5.31zm0 29.97V46.5q0-7.47-7.56-7.47-7.47 0-7.47 7.47v7.47q0 3.15 2.16 5.4 2.25 2.16 5.31 2.16 3.15 0 5.31-2.16 2.25-2.25 2.25-5.4z" style="-inkscape-font-specification:Silom" font-size="90" font-family="Silom" letter-spacing="0" word-spacing="0" fill="#fff"/></svg>