<svg xmlns="http://www.w3.org/2000/svg" width="50" height="70" viewBox="0 0 50 70"><path d="M17.53 16.53v14.94q0 3.06 2.16 5.31 2.25 2.25 5.31 2.25 3.15 0 5.31-2.25 2.25-2.25 2.25-5.31V16.53q0-3.15-2.25-5.31Q28.15 8.97 25 8.97q-3.06 0-5.31 2.25-2.16 2.25-2.16 5.31zm15.03 22.5q-.9 7.47-7.56 7.47h-7.47q-6.12 0-10.62-4.41Q2.5 37.68 2.5 31.47V16.53Q2.5 10.41 6.91 6q4.5-4.5 10.62-4.5h15.03q6.12 0 10.53 4.5 4.41 4.41 4.41 10.53v26.19q0 10.8-7.74 18.54Q32.11 69 21.31 69H10.06v-7.47h7.47q6.21 0 10.62-4.41 4.41-4.5 4.41-10.62v-7.47z" style="-inkscape-font-specification:Silom" font-size="90" font-family="Silom" letter-spacing="0" word-spacing="0" fill="#fff"/></svg>