<?xml version="1.0" encoding="UTF-8" standalone="no"?>
<!-- Created with Inkscape (http://www.inkscape.org/) -->

<svg
   xmlns:dc="http://purl.org/dc/elements/1.1/"
   xmlns:cc="http://creativecommons.org/ns#"
   xmlns:rdf="http://www.w3.org/1999/02/22-rdf-syntax-ns#"
   xmlns:svg="http://www.w3.org/2000/svg"
   xmlns="http://www.w3.org/2000/svg"
   xmlns:xlink="http://www.w3.org/1999/xlink"
   xmlns:sodipodi="http://sodipodi.sourceforge.net/DTD/sodipodi-0.dtd"
   xmlns:inkscape="http://www.inkscape.org/namespaces/inkscape"
   width="500"
   height="500"
   id="svg4111"
   version="1.1"
   inkscape:version="0.48.2 r9819"
   sodipodi:docname="clouds.svg">
  <defs
     id="defs4113" />
  <sodipodi:namedview
     id="base"
     pagecolor="#ffffff"
     bordercolor="#666666"
     borderopacity="1.0"
     inkscape:pageopacity="0.0"
     inkscape:pageshadow="2"
     inkscape:zoom="1"
     inkscape:cx="249.17659"
     inkscape:cy="252.73901"
     inkscape:document-units="px"
     inkscape:current-layer="layer1"
     showgrid="false"
     inkscape:showpageshadow="false"
     inkscape:window-width="1354"
     inkscape:window-height="829"
     inkscape:window-x="75"
     inkscape:window-y="18"
     inkscape:window-maximized="0" />
  <metadata
     id="metadata4116">
    <rdf:RDF>
      <cc:Work
         rdf:about="">
        <dc:format>image/svg+xml</dc:format>
        <dc:type
           rdf:resource="http://purl.org/dc/dcmitype/StillImage" />
        <dc:title />
      </cc:Work>
    </rdf:RDF>
  </metadata>
  <g
     inkscape:groupmode="layer"
     id="layer4"
     inkscape:label="clouds1"
     style="opacity:0.225;display:none"
     transform="translate(0,200)"
     sodipodi:insensitive="true">
    <image
       y="-761.42975"
       x="-64.686279"
       id="image4268"
       xlink:href="file:///Users/getify/Desktop/my%20items/github-projects/cloud-sweeper/resources/many-clouds.jpg"
       height="924"
       width="1300" />
  </g>
  <g
     inkscape:groupmode="layer"
     id="layer5"
     inkscape:label="clouds2"
     style="opacity:0.35;display:none"
     transform="translate(0,200)"
     sodipodi:insensitive="true">
    <image
       y="-226.43233"
       x="-200.08412"
       id="image4346"
       xlink:href="file:///Users/getify/Desktop/my%20items/github-projects/cloud-sweeper/resources/more-clouds.jpg"
       height="1390"
       width="1300" />
  </g>
  <g
     inkscape:label="cloud1"
     inkscape:groupmode="layer"
     id="layer1"
     transform="translate(0,-552.36218)"
     style="display:inline"
     sodipodi:insensitive="true">
    <path
       style="fill:#ffffff;fill-opacity:1;stroke:none"
       d="m 208.23116,963.635 c -22.75329,-4.00663 -41.97271,-13.17458 -56.94419,-27.16322 -11.04699,-10.32177 -18.13193,-21.20557 -22.66081,-34.81132 -2.5772,-7.74243 -2.72142,-8.7928 -2.6725,-19.46505 0.0463,-10.09276 0.29251,-12.00247 2.33773,-18.13019 3.05281,-9.14653 8.78082,-19.92692 14.67845,-27.62556 2.6553,-3.46615 4.62033,-6.50619 4.36672,-6.75565 -1.185,-1.16562 -10.32776,11.51103 -14.98541,20.77762 -5.61348,11.16826 -7.59671,18.30067 -8.37576,30.12218 l -0.53101,8.05786 -5.32478,0.64626 c -8.47511,1.02859 -21.012732,0.13558 -26.647822,-1.89802 -6.421229,-2.31731 -13.735668,-9.46055 -17.606288,-17.19422 -3.724958,-7.44259 -4.349905,-16.81367 -1.694704,-25.41223 0.967666,-3.13369 1.919457,-5.69762 2.115085,-5.69762 0.195619,0 2.12036,0.67795 4.277195,1.50657 3.596591,1.38171 10.571309,3.21911 17.233448,4.53993 1.537007,0.30472 2.662387,0.19875 2.662387,-0.25073 0,-0.4282 -2.488312,-1.23194 -5.529577,-1.78607 -28.633672,-5.21711 -45.364349,-22.07036 -45.41171,-45.74437 -0.03705,-18.51746 11.158113,-33.1165 30.744613,-40.09249 2.734921,-0.97408 5.10748,-2.16913 5.272361,-2.65568 0.411942,-1.21559 -7.91455,1.67984 -13.630854,4.73997 l -4.622274,2.47447 -2.250567,-2.62927 c -1.237813,-1.44608 -3.748307,-5.46097 -5.578876,-8.92197 -6.205217,-11.73197 -8.870655,-21.61739 -9.554223,-35.43421 -1.356965,-27.42806 9.491135,-47.15871 32.660647,-59.40352 12.528874,-6.62137 26.170819,-9.85045 41.473249,-9.81681 14.98994,0.0329 25.20674,2.20016 39.04034,8.28129 6.83194,3.00326 20.12566,10.75529 20.12566,11.73596 0,0.24069 -1.10137,2.1983 -2.44751,4.35022 -2.43022,3.88496 -5.74445,12.40834 -5.74445,14.7733 0,2.51835 1.44637,1.12721 1.93166,-1.8579 1.52098,-9.35597 10.95053,-21.40485 20.77071,-26.54042 9.26484,-4.84511 25.51986,-7.59869 34.58144,-5.85801 14.08797,2.70619 25.82687,14.52593 30.84619,31.05861 1.50831,4.96804 2.80076,7.34096 2.80076,5.14212 0,-4.90385 -6.11843,-18.12995 -11.46439,-24.78241 -3.35055,-4.16938 -3.3894,-4.28899 -1.9169,-5.90275 5.84161,-6.40203 19.07105,-13.74888 28.08742,-15.59806 8.95383,-1.83637 18.46397,0.43348 28.42111,6.78336 5.37231,3.42607 14.43376,12.61432 14.05397,14.25065 -0.13589,0.58552 -2.81794,3.18295 -5.96007,5.77213 -3.14215,2.58918 -7.87608,7.23634 -10.51982,10.32706 -8.65703,10.12054 -15.41346,26.89304 -15.21822,37.77836 l 0.088,4.90726 1.07898,-7.25208 c 2.3041,-15.48621 7.89643,-26.77116 19.00838,-38.35761 15.0208,-15.66218 34.77603,-24.26973 58.42736,-25.4574 15.45698,-0.77618 26.50449,1.52222 40.50227,8.42638 18.97864,9.3609 32.05769,23.42003 39.22594,42.16542 6.2844,16.43407 6.28803,38.83752 0.01,56.99724 -4.67315,13.51585 -14.22751,27.54001 -24.20888,35.53449 -6.81541,5.45871 -17.8741,10.86969 -25.72731,12.58826 -7.31988,1.60187 -24.11461,1.25784 -31.078,-0.63657 l -4.09598,-1.11434 -0.6353,-6.3952 c -0.9756,-9.82092 -6.01153,-26.13698 -8.06716,-26.13698 -0.93954,0 -1.05269,-0.41777 1.66048,6.1311 3.78102,9.12634 5.22199,16.92728 4.86588,26.34226 -0.28423,7.51467 -0.57563,8.7669 -3.40116,14.61566 -5.48317,11.34994 -18.7972,22.32287 -32.10577,26.46041 -4.772,1.48357 -7.52165,1.77001 -16.38393,1.70672 -6.65584,-0.0476 -12.89687,-0.57468 -16.64228,-1.40574 -6.98987,-1.55091 -6.7048,-1.52321 -6.7048,-0.65212 0,0.87096 6.63137,2.27677 15.9141,3.37371 4.0219,0.47527 7.66412,1.07786 8.09385,1.3391 1.39727,0.84942 6.97486,13.41096 8.88335,20.00652 1.49838,5.17836 1.86422,8.4729 1.87732,16.90687 0.0195,12.59751 -1.27218,18.20989 -6.86206,29.81408 -11.2685,23.39264 -33.06834,40.11578 -61.51913,47.19275 -8.87792,2.20834 -33.77832,2.90248 -43.39186,1.20964 l 0,0 z"
       id="path4918"
       inkscape:connector-curvature="0" />
    <path
       id="path4371"
       style="fill:none;stroke:#000000;stroke-width:3.00000024;stroke-linecap:butt;stroke-linejoin:miter;stroke-miterlimit:4;stroke-opacity:1;stroke-dasharray:none"
       d="m 98.073251,844.70318 c 0,0 -31.291092,-3.16277 -44.023694,-22.22129 C 40.726599,802.53971 41.885118,766.074 83.591768,754.67847 m 41.028022,134.46729 c 0,0 -28.575347,5.68999 -41.028022,-5.12799 -24.514404,-21.2963 -9.642602,-45.78358 -9.642602,-45.78358 m 235.478484,8.8098 c 0,0 30.20402,40.65177 -6.26394,85.76733 -53.05647,61.30097 -168.10502,32.07589 -178.4314,-44.53154 -2.91653,-29.70322 19.45414,-55.54513 22.71388,-58.5113 m 206.36995,-58.85137 c 0,0 18.8259,33.33193 -1.73779,56.123 -20.5637,22.79106 -41.70665,22.50617 -66.61479,16.80841 m 4.1834,-124.07401 c 0,0 -3.07032,-33.02997 33.11219,-57.43335 9.45455,-6.37662 35.92986,-19.3576 68.79041,-12.14913 106.29142,29.73582 62.10422,181.92438 -29.57341,153.43309 M 247.45839,657.70875 c 0,0 21.46875,-23.01378 43.58703,-18.17906 22.1183,4.83472 31.94866,22.562 31.94866,22.562 m -149.32752,23.35892 c 0,0 3.12847,-35.5483 49.96537,-36.27859 32.95182,-0.51377 40.01002,38.21554 40.01002,38.21554 M 64.765852,762.94023 c 0,0 -13.131446,-14.62695 -16.761684,-37.71489 -7.855994,-49.96323 23.902265,-68.70467 43.117974,-75.38579 51.898058,-18.04445 91.438108,15.70342 91.438108,15.70342"
       inkscape:connector-curvature="0"
       sodipodi:nodetypes="csccsccccccsccscccsccsccssc" />
    <path
       id="path4377"
       style="fill:none;stroke:#000000;stroke-width:3.00000024;stroke-linecap:butt;stroke-linejoin:miter;stroke-miterlimit:4;stroke-opacity:1;stroke-dasharray:none"
       d="m 258.52802,731.31762 c -47.10438,-5.75754 -55.79586,23.65058 -56.18814,44.44259 m -1.15851,0 c 0,0 -30.70074,-12.5351 -41.12739,9.6862 m 27.80442,21.65152 c 0,0 -4.0548,-45.58215 56.18813,-36.46572"
       inkscape:connector-curvature="0" />
  </g>
  <g
     inkscape:groupmode="layer"
     id="layer6"
     inkscape:label="cloud2"
     style="display:none"
     sodipodi:insensitive="true">
    <path
       style="fill:#ffffff;fill-opacity:1;stroke:none"
       d="m 299.09486,414.14321 c -26.32501,-4.6766 -51.18725,-25.54674 -65.07095,-54.62256 -2.96051,-6.20004 -4.40955,-8.17607 -4.40955,-6.01323 0,1.46568 6.02084,13.43565 9.29078,18.47093 1.74743,2.6908 3.17714,5.19411 3.17714,5.56291 0,0.36883 -2.98629,2.12828 -6.63618,3.90989 -18.59129,9.07496 -35.88983,6.59919 -49.59956,-7.09869 l -4.63252,-4.62852 6.27097,-6.61912 c 6.30806,-6.65826 10.56603,-12.76985 10.0255,-14.38999 -0.16019,-0.48019 -1.63991,1.17954 -3.28823,3.68834 -1.64835,2.50879 -6.03592,7.55057 -9.75022,11.20391 -11.69112,11.49946 -25.73387,17.16083 -42.52272,17.14318 -12.54108,-0.0126 -25.79205,-2.95845 -35.64462,-7.92259 -5.45644,-2.74918 -14.48949,-11.11132 -18.70892,-17.31933 -7.04155,-10.36018 -11.552663,-23.28668 -12.669555,-36.30446 -0.916237,-10.67887 2.545664,-26.62614 7.971415,-36.72043 1.07349,-1.99712 1.80471,-4.07198 1.62496,-4.61079 -0.42856,-1.28456 -4.570059,6.19985 -6.714803,12.13479 -2.126563,5.88462 -4.01589,14.01675 -4.030896,17.35002 l -0.01088,2.55719 -4.091035,-0.48662 c -18.476412,-2.19784 -31.063055,-9.96033 -37.80901,-23.31782 -5.169088,-10.23515 -5.793794,-26.32621 -1.39477,-35.92663 2.228127,-4.86271 8.584878,-11.87767 13.225313,-14.59478 6.361817,-3.72507 12.727343,-5.3731 20.718576,-5.36408 4.071555,0.004 8.415768,0.41661 9.653816,0.91555 1.238048,0.49896 2.441982,0.71637 2.675416,0.48314 0.934944,-0.93412 -1.367142,-2.02235 -5.250149,-2.48185 -2.556391,-0.30249 -4.267754,-0.92042 -4.544448,-1.64085 -0.698718,-1.81923 1.142451,-12.02795 3.262932,-18.09199 4.42318,-12.64921 10.973138,-20.03188 21.282618,-23.98849 15.71518,-6.0312 31.46944,-4.83065 48.35293,3.68476 2.65601,1.33959 4.82911,2.54535 4.82911,2.67946 0,0.13407 -0.84487,2.32128 -1.87747,4.86035 -2.1823,5.36599 -4.35649,15.22507 -4.35649,19.75483 0,5.40649 1.30518,3.43797 1.82948,-2.75925 0.5666,-6.6968 4.13309,-18.12312 7.20343,-23.07829 6.01336,-9.7048 15.92853,-15.3939 26.82913,-15.3939 8.61736,0 22.70095,4.85649 31.71992,10.93803 1.93374,1.30395 3.7369,2.14936 4.00702,1.87872 0.94668,-0.94845 -4.05681,-4.37631 -11.67138,-7.99607 l -7.68417,-3.65282 -0.0126,-9.0622 c -0.0175,-13.15253 3.30502,-28.40599 8.37082,-38.43066 14.37558,-28.44757 42.81638,-43.400773 82.78882,-43.527461 11.72253,-0.03716 14.55352,0.200442 20.16753,1.692661 13.12941,3.489793 27.59623,12.067858 37.23887,22.08062 10.65783,11.06693 21.95663,29.92285 27.42924,45.77516 l 2.26353,6.5567 -6.34554,4.50978 c -6.8971,4.90175 -13.56624,11.2264 -12.72459,12.06733 0.28996,0.2897 2.37204,-1.20698 4.62686,-3.32595 12.18932,-11.45495 29.49828,-19.77681 41.04368,-19.73317 16.34421,0.0619 33.28747,11.28912 38.43002,25.4654 2.26357,6.23989 2.20737,15.90377 -0.13262,22.79249 -2.07356,6.10455 -7.71763,16.93906 -10.94516,21.01062 -2.269,2.86238 -2.97055,4.71467 -1.76186,4.65187 0.82691,-0.0429 5.00236,-5.85468 7.92963,-11.03702 l 2.48027,-4.39097 4.24627,1.45965 c 26.62975,9.15409 40.54249,31.67536 35.87514,58.073 -4.94027,27.9413 -17.85101,42.401 -43.15654,48.33417 -10.64394,2.49561 -41.04394,1.33962 -41.8107,-1.58989 -0.96693,-3.69427 -6.85976,-21.36838 -7.42909,-22.28176 -0.39264,-0.62991 -0.95625,-0.90316 -1.25244,-0.60723 -0.29619,0.29594 0.73468,3.96453 2.29082,8.15244 15.14723,40.76437 6.27371,75.91349 -24.17004,95.74056 -8.02388,5.22573 -18.02641,9.76457 -26.45985,12.00668 -7.02554,1.86783 -23.69331,2.64462 -30.56238,1.42433 l 0,0 z"
       id="path4944"
       inkscape:connector-curvature="0" />
    <path
       id="path4937"
       style="fill:none;stroke:#000000;stroke-width:3;stroke-linecap:butt;stroke-linejoin:miter;stroke-miterlimit:4;stroke-opacity:1;stroke-dasharray:none"
       d="m 138.92633,219.319 c 0,0 -0.049,-36.58738 26.2995,-43.79465 21.37725,-5.84743 44.61176,12.06787 44.61176,12.06787 M 65.677303,228.8565 c 0,0 0.520426,-32.7956 21.818857,-42.82144 30.79798,-14.49752 58.44337,5.45002 58.44337,5.45002 M 74.054184,310.41184 c 0,0 -46.223758,1.35185 -47.533934,-43.79464 -0.975022,-33.59782 33.507528,-42.04285 50.06648,-35.42499 m 120.78294,117.56427 c 0,0 -23.93564,49.87623 -86.49616,27.24999 -27.19935,-9.83719 -51.430167,-56.05713 -26.49434,-98.09999 m 159.16077,99.85177 c 0,0 -35.45564,27.63929 -63.89808,-8.75892 m 198.51262,-71.62856 c 0,0 37.08041,74.04049 -29.6113,108.99997 -47.14813,24.71484 -95.84711,0 -118.44521,-52.94284 M 431.14313,212.5065 c 0,0 59.60028,12.79213 37.40374,76.29997 -17.14338,49.05 -82.59995,32.31072 -82.59995,32.31072 m -36.04006,-143.2571 c 0,0 38.3778,-43.21071 74.22308,-12.84644 29.98499,25.40009 -3.11701,63.06428 -3.11701,63.06428 M 189.96685,177.27615 c 0,0 -12.26164,-90.052341 90.58721,-93.23391 69.38957,-2.146521 89.41835,78.24641 89.41835,78.24641"
       inkscape:connector-curvature="0"
       sodipodi:nodetypes="csccsccsccsccccsccsccsccsc" />
    <path
       style="fill:none;stroke:#000000;stroke-width:3;stroke-linecap:butt;stroke-linejoin:miter;stroke-miterlimit:4;stroke-opacity:1;stroke-dasharray:none"
       d="m 242.56588,276.34934 c 0,0 10.91766,-35.47789 64.67732,-34.25714 34.28678,0.77858 51.43016,21.8 51.43016,21.8 0,0 9.35095,-30.36428 23.37735,-30.36428"
       id="path4939"
       inkscape:connector-curvature="0"
       sodipodi:nodetypes="cscc" />
  </g>
  <g
     inkscape:groupmode="layer"
     id="layer7"
     inkscape:label="cloud3"
     style="display:none"
     sodipodi:insensitive="true">
    <path
       style="fill:#ffffff;fill-opacity:1;stroke:none"
       d="m 127.15257,356.95733 c -9.396,-2.21447 -18.50989,-8.97515 -21.76397,-16.14451 -1.92504,-4.24123 -2.69441,-11.76982 -1.20279,-11.76982 1.04651,0 8.12626,-6.92711 9.99674,-9.78121 3.02513,-4.61595 0.0489,-3.4215 -4.67166,1.8749 -6.93204,7.77758 -13.594422,11.14965 -23.118201,11.70098 -6.68146,0.38678 -8.199692,0.13075 -12.676165,-2.13765 -2.797066,-1.41738 -6.685193,-4.44585 -8.640282,-6.72993 l -3.554708,-4.15288 2.962173,-2.4925 c 3.940687,-3.31587 8.150845,-10.65032 7.747153,-13.49619 -0.260827,-1.83872 -0.872159,-1.16967 -3.127164,3.42239 -3.213593,6.54413 -8.102542,10.84239 -14.981989,13.17185 -5.992349,2.02908 -9.75577,2.04714 -14.497172,0.0696 -8.464806,-3.53061 -14.126015,-13.11469 -12.707203,-21.51256 0.855376,-5.06293 5.884926,-11.75368 10.986654,-14.61541 l 3.904316,-2.19007 1.853063,3.04712 c 2.523415,4.14943 3.364286,2.82585 1.370469,-2.15719 -2.121289,-5.30162 -2.023841,-9.54628 0.33864,-14.75059 3.174655,-6.99345 10.449457,-9.96503 17.672559,-7.21881 1.521619,0.57852 4.475973,2.90346 6.565233,5.16654 2.08926,2.26307 4.100635,3.8127 4.469723,3.44361 1.107483,-1.10748 -5.009023,-7.88169 -8.974621,-9.93965 -4.050323,-2.10193 -4.431436,-3.40087 -2.240765,-7.63716 1.986048,-3.8406 7.448814,-6.26659 13.261464,-5.88936 4.579581,0.29721 4.768063,0.44286 8.234722,6.36364 5.005663,8.54926 8.057538,12.55259 9.085136,11.9175 0.486386,-0.30061 -1.151994,-3.5684 -3.640845,-7.26176 -25.383766,-37.66858 -19.632369,-76.95767 13.61873,-93.03264 27.81501,-13.44694 57.9957,-10.11774 84.77326,9.35123 0.15863,0.11534 -1.14471,2.51511 -2.8963,5.33284 -3.33321,5.36201 -5.28275,15.13336 -3.01935,15.13336 0.63424,0 1.13133,-1.64005 1.13661,-3.75 0.0187,-7.46527 8.40536,-18.05216 17.15242,-21.6523 11.5917,-4.77093 27.39156,-1.03103 37.89292,8.96943 2.33924,2.22767 4.94528,3.22096 4.94528,1.8849 0,-0.80122 -5.0643,-5.20942 -8.25,-7.18117 -1.5125,-0.93614 -2.75,-2.08846 -2.75,-2.56071 0,-1.88897 11.88838,-13.15966 18.654,-17.68478 30.31202,-20.27392 72.66287,-9.27366 92.43598,24.00942 7.03858,11.84769 12.55944,31.61329 11.23277,40.21521 -0.34949,2.26598 -0.17362,3.75 0.44441,3.75 1.48243,0 1.97601,-7.56252 0.94038,-14.40813 -0.79252,-5.2387 -0.68496,-6.03185 0.94933,-7 8.40293,-4.9779 24.14551,-6.13433 33.88758,-2.48936 10.01092,3.74557 15.72492,10.6515 16.96378,20.50241 l 0.61561,4.89508 -5.81192,3.08051 c -3.32078,1.76013 -5.96666,3.87998 -6.17293,4.94568 -0.34534,1.78424 -0.25856,1.79012 2,0.13562 1.29856,-0.95125 4.83601,-2.95145 7.86101,-4.44488 7.43221,-3.66927 19.26562,-3.86682 25.74888,-0.42987 8.10871,4.29864 11.90445,13.5629 10.84238,26.46294 -0.76114,9.24501 0.96809,10.76703 1.98825,1.75 0.37335,-3.3 0.86066,-6 1.0829,-6 1.81399,0 10.90851,5.70778 15.10211,9.47819 16.46323,14.80186 16.06614,43.13236 -0.85534,61.02432 -9.25303,9.78372 -20.46284,13.94886 -35.8751,13.32982 -8.48308,-0.34073 -10.5198,-0.7969 -16.33087,-3.65767 -3.65148,-1.79762 -8.69823,-5.32757 -11.21499,-7.84434 -5.46539,-5.46539 -7.15973,-4.99377 -2.57143,0.71576 l 3.25089,4.0453 -2.69967,3.53945 c -5.95044,7.80143 -12.7493,9.76045 -20.90916,6.02474 -5.39986,-2.47214 -6.63312,-3.8736 -4.54456,-5.1644 3.23898,-2.0018 6.6741,-14.49117 3.98571,-14.49117 -0.55,0 -1,1.19796 -1,2.66214 0,4.26149 -4.61664,11.10164 -9.0033,13.33955 -7.87305,4.01653 -15.46147,1.78643 -20.66207,-6.07222 -2.74077,-4.14158 -2.74229,-4.15391 -0.89712,-7.28903 3.73133,-6.3399 10.52955,-19.16205 10.54578,-19.89044 0.009,-0.4125 -0.42681,-0.75 -0.96889,-0.75 -0.54209,0 -2.39958,2.8125 -4.12778,6.25 -5.62219,11.18296 -11.995,20.09175 -20.37692,28.48567 -10.39008,10.40495 -17.27301,13.86693 -31.81629,16.00295 -24.01184,3.52669 -41.34467,-4.23349 -53.25758,-23.84426 -1.97628,-3.25331 -4.0225,-5.64981 -4.54716,-5.32555 -0.85356,0.52753 0.20706,2.73713 4.80899,10.01856 1.13368,1.79377 1.06676,2.31585 -0.47581,3.71186 -5.22397,4.72763 -13.6085,5.56948 -20.47406,2.0557 -2.71427,-1.38916 -2.73151,-1.45814 -1.25,-5.00388 1.7879,-4.27905 1.79537,-4.35105 0.45118,-4.35105 -0.57806,0 -1.66939,1.47997 -2.42518,3.28882 -2.85186,6.82545 -11.71738,12.71118 -19.14653,12.71118 -4.67239,0 -10.68895,-3.23103 -13.93059,-7.48103 -1.46805,-1.92471 -3.09165,-3.23838 -3.608,-2.91926 -0.51635,0.31912 0.20872,2.08471 1.61126,3.92353 1.40254,1.83882 2.55007,3.84477 2.55007,4.45766 0,0.61288 -2.16503,3.27937 -4.81119,5.92552 -5.47319,5.4732 -14.88202,10.33812 -24.27701,12.55266 -6.94536,1.63713 -23.08243,1.88901 -29.16588,0.45525 z"
       id="path4988"
       inkscape:connector-curvature="0" />
    <path
       id="path4983"
       style="fill:none;stroke:#000000;stroke-width:3;stroke-linecap:butt;stroke-linejoin:miter;stroke-miterlimit:4;stroke-opacity:1;stroke-dasharray:none"
       d="m 93.18094,264.09806 c -28.593633,-37.52725 -25.670361,-75.42557 -0.38125,-95.09335 7.53898,-5.8632 49.94355,-31.33344 97.59961,4.73646 m -129.24323,85.2561 c -2.668739,-6.9225 3.431237,-16.03106 20.58742,-14.20935 M 45.906132,287.05163 C 32.943683,267.7415 57.724834,244.78792 73.356021,269.19886 M 71.831027,303.0827 C 68.018542,322.0285 43.61864,328.951 32.181186,317.29204 20.743733,305.63308 23.793721,287.41597 42.856144,280.49347 m 71.674716,36.43423 c -11.43745,18.94581 -40.412342,26.597 -54.137286,2.55041 M 187.34932,337.33088 C 171.33688,366.8426 101.5684,369.393 101.94965,329.67969 m 118.18703,-5.10079 c -2.66873,14.57369 -27.06864,25.8683 -38.5061,5.46513 m 62.906,-0.36434 c 0,0 -8.38746,14.20935 -28.59363,2.55039 m 157.14104,-17.56134 c 3.50459,13.13907 -21.83625,32.46124 -34.50667,4.63731 m 12.67042,-22.67134 c 0,0 -17.93822,44.32277 -49.06418,50.23764 -29.05716,5.52174 -48.79459,0.77289 -64.70001,-28.85444 m 161.75003,4.89495 c 0,0 -10.78334,25.76289 -33.42834,7.21361 m 78.38335,-84.86663 c 0,0 37.19356,10.00028 29.18042,49.57147 -8.853,43.71866 -63.08251,47.91898 -81.41418,20.61031 m 4.78709,-85.51449 c 14.78083,-14.55225 55.75751,-15.70779 46.36834,28.91694 m -88.9896,-59.40557 c 10.33666,-10.79452 58.54584,-12.55373 54.86417,23.57684 M 230.36272,170.0947 c 0,0 25.18292,-38.85778 70.47293,-27.5221 45.29,11.33567 57.15167,57.70888 54.99501,77.28868 M 182.28437,193.19289 c -2.15666,-18.49749 28.53753,-44.67652 60.32127,-13.52172"
       inkscape:connector-curvature="0" />
    <path
       style="fill:none;stroke:#000000;stroke-width:3;stroke-linecap:butt;stroke-linejoin:miter;stroke-miterlimit:4;stroke-opacity:1;stroke-dasharray:none"
       d="m 194.21179,226.93562 c 9.91246,-8.74421 27.7308,-8.83967 38.88734,6.55817 0,0 16.77493,-24.77529 38.5061,-22.58924 19.37025,1.94856 37.74359,12.0233 41.93733,31.33345"
       id="path4985"
       inkscape:connector-curvature="0"
       sodipodi:nodetypes="cssc" />
  </g>
  <g
     inkscape:groupmode="layer"
     id="layer8"
     inkscape:label="cloud4"
     sodipodi:insensitive="true"
     style="display:none">
    <path
       style="fill:#ffffff;fill-opacity:1;stroke:none"
       d="m 296.60665,386.97035 c -36.53449,-7.738 -66.18092,-33.95226 -87.49325,-77.36414 -3.29628,-6.71433 -6.36411,-12.20787 -6.81739,-12.20787 -1.29087,0 0.12591,3.65647 5.85773,15.11772 l 5.30997,10.61773 -3.93724,6.02576 c -8.6705,13.26983 -23.99993,24.03754 -37.07107,26.0395 -22.51027,3.44766 -45.80584,-12.02757 -55.94148,-37.1619 -1.52748,-3.78783 -1.49883,-4.11767 0.69918,-8.05035 1.26056,-2.25538 2.98979,-6.77998 3.84274,-10.05467 1.73795,-6.67244 2.10978,-20.53379 0.55081,-20.53379 -0.57362,0 -1.00506,3.09125 -1.01186,7.25 -0.0362,22.08299 -13.62759,38.96888 -34.488136,42.84778 -18.232804,3.39028 -32.834583,-4.85564 -42.217779,-23.84125 -3.621957,-7.32853 -3.781732,-8.07873 -3.770687,-17.70467 0.01442,-12.56641 2.060909,-17.33536 11.244708,-26.20363 3.503857,-3.38348 5.928295,-6.42516 5.387639,-6.75931 -0.540656,-0.33414 -3.824834,2.09666 -7.298174,5.40177 -3.473339,3.30512 -6.565841,6.00931 -6.872227,6.00931 -1.060342,0 -8.674433,-8.51468 -10.782144,-12.05745 -4.852282,-8.156 -6.380074,-20.88631 -3.710528,-30.91792 3.975043,-14.9374 18.517528,-24.03865 33.86485,-21.19395 14.878554,2.75781 24.027616,11.6968 25.379668,24.79692 0.643169,6.23172 2.274674,7.24297 2.274674,1.40991 0,-9.20732 -7.062623,-20.68438 -14.849616,-24.13124 -1.732711,-0.76697 -3.150384,-1.77113 -3.150384,-2.23147 0,-1.9303 18.083687,-18.66597 25,-23.13642 18.266296,-11.80665 32.455816,-16.51532 52.060516,-17.27582 19.73388,-0.76551 36.56618,3.77964 50.66497,13.68083 13.95698,9.80161 24.17162,25.46378 28.56198,43.79427 2.32019,9.68715 4.44803,12.66071 3.22899,4.51234 -1.16543,-7.78994 -5.23413,-19.26017 -9.66608,-27.25 -5.15171,-9.2874 -16.9864,-21.38112 -25.52664,-26.08535 -5.83585,-3.21458 -6.14362,-3.56777 -5.58416,-6.40837 3.29381,-16.724 18.42707,-26.50628 41.00543,-26.50628 10.84682,0 22.99313,3.39225 28.11923,7.85321 l 3.04144,2.64679 -2.89587,8.5 c -2.89791,8.50599 -5.00981,21.24689 -5.00981,30.22376 0,8.6796 1.68728,4.96054 2.35213,-5.18449 1.39553,-21.29487 7.54177,-36.65617 19.61539,-49.02476 18.38496,-18.83414 46.93078,-25.30235 77.4731,-17.55465 33.0737,8.38983 61.58369,34.59989 69.62143,64.00498 1.80877,6.61719 2.09531,9.74741 1.69349,18.5 -0.74716,16.27475 -5.86857,27.52884 -18.85631,41.43598 -3.93929,4.21816 -6.83349,7.99109 -6.43154,8.38428 0.40195,0.3932 4.20592,-2.93977 8.45327,-7.40658 8.46838,-8.90596 14.83341,-19.76681 17.42077,-29.72561 0.83551,-3.2159 1.72468,-6.05265 1.97592,-6.3039 0.74999,-0.74999 12.60965,4.39584 17.78474,7.71669 11.36566,7.29333 21.67011,21.8572 25.48604,36.02088 2.05185,7.61591 2.34272,25.18273 0.52842,31.91342 -7.05078,26.15693 -23.90254,41.25505 -45.61685,40.86982 -8.96018,-0.15897 -12.04661,-1.05218 -11.76292,-3.4042 1.69786,-14.07667 2.3248,-23.5673 1.79167,-27.12245 -1.14458,-7.63264 -2.02356,-4.68191 -2.20693,7.40871 -0.70262,46.32523 -27.69961,76.78847 -78.32182,88.37787 -11.15324,2.55341 -30.39424,3.26496 -39,1.44226 l 0,0 z"
       id="path5008"
       inkscape:connector-curvature="0" />
    <path
       id="path5005"
       style="fill:none;stroke:#000000;stroke-width:3;stroke-linecap:butt;stroke-linejoin:miter;stroke-miterlimit:4;stroke-opacity:1;stroke-dasharray:none"
       d="m 188.62442,167.17181 c 3.90369,-37.98402 59.04323,-36.98445 75.14595,-19.99159 M 69.562003,202.65689 c 26.837848,-34.4855 64.795077,-45.99483 94.176417,-41.98236 36.59705,4.99791 60.99508,27.98824 67.33859,66.97186 M 43.212137,268.12936 c -25.373958,-14.9937 -25.056551,-65.24909 11.223089,-67.47163 7.892707,-0.48352 34.15725,1.99916 34.645204,31.48676 m 32.20542,47.48004 c 4.8796,40.48297 -29.093084,55.88319 -52.211801,50.97856 C 46.245802,325.76008 19.30206,280.12431 56.875033,255.63461 m 157.813407,67.618 c -28.30171,50.97857 -83.64339,41.33619 -101.20996,-9.64238 M 415.03818,285.622 c 4.8796,73.9689 -49.77199,96.95923 -89.78477,102.95671 -39.63815,5.94133 -91.73661,-15.99328 -122.96609,-90.96175 m 223.48599,-95.95965 c 77.09779,19.99159 55.13956,135.94283 -13.17493,117.9504 M 255.96299,190.66193 c -2.92776,-57.97562 40.01278,-88.96259 94.66439,-77.96721 54.65158,10.99537 111.25502,79.96636 49.77198,133.94368"
       inkscape:connector-curvature="0" />
  </g>
  <g
     inkscape:groupmode="layer"
     id="layer9"
     inkscape:label="cloud5"
     sodipodi:insensitive="true"
     style="display:none">
    <path
       style="fill:#ffffff;fill-opacity:1;stroke:none"
       d="M 407.07232,419.27215 C 404.59146,400.0983 396.0573,382.96046 381.98003,368.8832 366.3573,353.26046 350.03576,345.92004 331.03559,345.97152 c -14.79492,0.0401 -20.49239,2.12669 -43.60705,15.97033 -23.28269,13.94427 -36.66907,20.82623 -44.54219,22.89922 -8.28864,2.18239 -25.74936,3.81012 -32.99309,3.07569 -20.79568,-2.10843 -37.26398,-15.35172 -41.97962,-33.75869 -2.47244,-9.65087 -0.43587,-22.74236 5.31716,-34.17986 1.34159,-2.66719 2.14721,-5.14148 1.79026,-5.49843 -1.74315,-1.74316 -6.69967,9.79803 -9.16812,21.34786 -1.76995,8.28156 -1.15376,17.27728 1.69744,24.78105 1.84263,4.84939 1.8535,5.20937 0.21338,7.06565 -10.32601,11.68695 -44.24731,18.4884 -70.728174,14.18147 C 76.067179,378.44545 54.734605,367.84606 45.612241,356.3054 32.766006,340.05369 25.623295,316.37619 26.915621,294.32764 29.508984,250.08192 58.482826,223.13056 110.14097,216.91173 l 5.10537,-0.61461 2.19902,5.76526 c 2.47699,6.49402 8.85228,16.75364 12.59631,20.27097 4.50921,4.23618 3.67964,1.34532 -1.6179,-5.63803 -11.82694,-15.59056 -15.5099,-32.79696 -10.88809,-50.86804 2.51014,-9.81457 5.70517,-16.83753 10.76617,-23.665 8.55585,-11.54214 18.12671,-18.31148 30.29859,-21.42977 14.97593,-3.83666 33.84323,4.6333 46.81677,21.01709 4.57073,5.77221 7.79347,6.79904 3.94772,1.25783 -7.31493,-10.53983 -23.69727,-22.43878 -33.39939,-24.25891 -1.88647,-0.35391 -3.42995,-0.87611 -3.42995,-1.16045 0,-1.27556 6.88278,-12.4197 11.75732,-19.03666 30.48988,-41.388622 73.54099,-55.84907 123.74268,-41.563958 28.80824,8.19751 60.28085,33.493728 75.72538,60.864518 13.09312,23.20362 15.4471,50.66711 6.63945,77.46144 -4.18047,12.71769 -14.08322,31.57985 -23.50149,44.76423 -1.41525,1.98117 -1.425,2.25 -0.0816,2.25 3.56396,0 20.79765,-31.06586 25.37966,-45.75 l 2.57431,-8.25 6.13215,0.006 c 9.04575,0.009 24.55819,2.58457 33.38368,5.54345 35.09594,11.76643 46.51479,41.37708 34.27004,88.86697 -7.47399,28.98702 -25.87512,67.91528 -50.16092,106.11727 -3.5082,5.51847 -7.33276,11.3435 -8.49902,12.94451 l -2.12046,2.91093 -0.70445,-5.44452 0,-10e-5 z"
       id="path5022"
       inkscape:connector-curvature="0" />
    <path
       id="path5019"
       style="fill:none;stroke:#000000;stroke-width:3;stroke-linecap:butt;stroke-linejoin:miter;stroke-miterlimit:4;stroke-opacity:1;stroke-dasharray:none"
       d="m 174.23994,315.07304 c -27.71881,52.86219 19.23179,74.29512 36.37291,74.0615 37.29441,-0.50828 38.70925,-3.00687 90.21215,-34.05546 51.05854,-30.78064 109.36334,26.9394 105.3315,74.21039 M 116.87286,215.29927 c -118.9389263,8.13265 -99.516049,122.37448 -65.013235,148.92905 46.992141,36.16678 114.403125,15.757 119.442905,0.50829 M 210.43991,166.39064 C 156.50987,89.715448 78.560006,190.65468 133.00016,243.76353 m 233.84602,18.29845 C 449.49866,148.20496 337.88968,86.244627 318.46425,79.077475 286.11313,67.141295 213.9931,54.443452 169.64299,139.83622 M 406.09536,429.5 c 0,0 161.38492,-222.56947 -11.61683,-222.33337"
       inkscape:connector-curvature="0" />
  </g>
  <g
     inkscape:groupmode="layer"
     id="layer10"
     inkscape:label="cloud6"
     sodipodi:insensitive="true"
     style="display:none">
    <path
       style="fill:#ffffff;fill-opacity:1;stroke:none"
       d="m 122.03559,421.78916 c -10.55604,-1.99373 -18.75674,-4.93471 -32.000004,-11.476 -31.234807,-15.4279 -53.222415,-40.24994 -61.108055,-68.98552 -2.718476,-9.90623 -2.505247,-29.07478 0.439395,-39.5 4.427945,-15.67672 15.078555,-33.96362 28.480338,-48.90022 l 5.293943,-5.90023 9.116191,9.39789 c 5.013905,5.16884 9.447119,9.06696 9.851586,8.6625 0.404467,-0.40447 -3.051356,-4.67842 -7.679606,-9.49767 -13.555978,-14.1154 -21.201669,-27.26932 -25.49285,-43.8588 -2.251196,-8.703 -2.50107,-11.29746 -2.061388,-21.40347 0.56309,-12.94253 2.677979,-21.42141 7.836489,-31.41758 17.991642,-34.8642 56.937681,-46.96357 96.907741,-30.10633 8.44757,3.56273 22.61676,11.85875 27.69165,16.21336 l 3.27542,2.81055 -3.59932,8.26158 c -4.30567,9.88288 -7.62432,21.0136 -6.47672,21.72285 0.45439,0.28083 1.99777,-3.12173 3.42973,-7.56123 15.52613,-48.13562 57.3235,-81.763418 113.59546,-91.392472 34.29267,-5.868039 73.28786,0.215273 102.51762,15.992914 23.72779,12.807788 44.01424,32.748928 57.32381,56.348048 9.63703,17.08737 17.73901,41.10583 21.80268,64.63444 2.43921,14.12296 2.403,42.62379 -0.0705,55.49387 -11.52469,59.96504 -55.88286,104.74711 -116.57361,117.68763 -11.70679,2.49612 -40.66094,2.43712 -53.47271,-0.10897 -27.77563,-5.51987 -51.7571,-18.04904 -70.97043,-37.07866 -8.23322,-8.1545 -17.91957,-20.81203 -23.14847,-30.24898 -1.59961,-2.88694 -3.24589,-5.24944 -3.65839,-5.25 -1.24859,-0.002 -0.87131,1.28682 1.90525,6.50694 4.69783,8.83221 13.55436,20.63917 21.80512,29.06918 l 8.03963,8.21429 -3.53563,6.06256 c -13.37573,22.93544 -36.23625,42.23267 -61.05403,51.53749 -14.27089,5.35052 -33.20322,6.94223 -48.41034,4.07004 l 0,0 z"
       id="path5032"
       inkscape:connector-curvature="0" />
    <path
       id="path5029"
       style="fill:none;stroke:#000000;stroke-width:3;stroke-linecap:butt;stroke-linejoin:miter;stroke-miterlimit:4;stroke-opacity:1;stroke-dasharray:none"
       d="m 63.245578,245.69878 c -76.394933,76.12714 -23.627302,149.115 41.741562,172.65947 65.36886,23.54448 115.77376,-25.8989 131.5253,-58.86117 M 172.71873,177.41981 C 202.64664,53.418909 405.8414,33.013691 459.39661,169.57166 512.95181,306.1296 413.71716,395.5986 323.93344,392.45935 234.1497,389.32007 203.43421,317.11703 203.43421,317.11703 M 82.147418,264.53437 C -6.0611578,190.76168 78.997108,64.406325 183.7448,146.81197"
       inkscape:connector-curvature="0" />
  </g>
  <g
     inkscape:groupmode="layer"
     id="layer11"
     inkscape:label="cloud7"
     sodipodi:insensitive="true"
     style="display:none">
    <path
       style="fill:#ffffff;fill-opacity:1;stroke:none"
       d="m 179.47298,436.30458 c -20.40734,-3.59658 -43.94249,-13.2274 -62.93739,-25.75461 -4.73226,-3.12094 -13.20215,-10.28588 -19.10801,-16.16406 -9.422169,-9.37799 -11.116559,-11.62025 -15.157316,-20.05827 -5.477483,-11.43824 -7.635271,-19.51675 -8.413715,-31.5 -1.691167,-26.03355 8.195327,-51.4851 28.643191,-73.73835 6.43471,-7.00284 19.41955,-16.26115 26.80609,-19.11298 4.97885,-1.92226 14.2954,-2.18303 16.02976,-0.44867 0.84216,0.84216 1.51479,0.88521 2.25563,0.14437 1.90106,-1.90106 -4.52106,-3.6611 -11.35664,-3.11241 -14.32049,1.14952 -33.58113,15.73496 -47.307786,35.82462 -5.389139,7.88727 -6.549324,8.44536 -15.982625,7.68815 -9.221549,-0.74022 -16.405344,-4.55565 -25.103957,-13.33313 -5.811702,-5.86439 -8.161848,-9.2462 -12.221241,-17.5861 -6.753951,-13.8758 -8.461894,-21.30864 -8.461894,-36.8255 0,-14.47456 1.701194,-22.80285 6.840444,-33.4878 7.590708,-15.78173 24.89401,-27.78245 49.295877,-34.18919 13.48952,-3.54169 39.459802,-4.41674 53.953742,-1.81792 31.59519,5.66512 54.94168,21.00232 66.20859,43.49491 6.59497,13.16581 7.58312,18.16861 7.55507,38.25 -0.0136,9.7625 0.28347,17.75 0.66023,17.75 1.1642,0 2.14917,-16.72436 1.58234,-26.8673 -0.63342,-11.33446 -2.54111,-19.02198 -7.10532,-28.6327 -9.37376,-19.73803 -27.8321,-34.63577 -52.11246,-42.05999 -4.95,-1.51356 -9.16855,-2.88781 -9.37457,-3.05387 -0.49821,-0.40162 11.39967,-14.82425 20.76991,-25.17732 9.09752,-10.05174 25.57547,-24.66424 37.10466,-32.904076 27.63555,-19.750951 55.02136,-29.770675 87,-31.830936 37.89798,-2.441622 82.23006,13.583274 118.53707,42.848082 11.1859,9.01625 29.6661,28.48686 37.71728,39.73867 8.26916,11.55642 18.99486,32.78697 21.74797,43.04811 8.3965,31.29461 7.64367,63.73778 -2.16515,93.30788 -13.59101,40.97203 -42.43076,72.47366 -86.16914,94.12247 -15.67634,7.75919 -25.8026,11.22175 -36.32898,12.42231 -15.71404,1.79222 -41.0998,-2.57944 -57.42743,-9.88954 -2.37771,-1.06453 -4.72873,-1.68482 -5.2245,-1.37842 -0.49576,0.3064 -0.67,-0.28676 -0.3872,-1.31814 2.7371,-9.9821 3.95335,-31.65607 2.74728,-48.95721 -1.10967,-15.91833 -3.85697,-36.49219 -5.15293,-38.5891 -1.65004,-2.66981 -1.60638,0.053 0.17912,11.17108 6.93375,43.17573 3.48915,79.53187 -9.80077,103.44256 -16.27921,29.28891 -47.9171,41.65765 -88.33523,34.53438 l 0,0 z"
       id="path5042"
       inkscape:connector-curvature="0" />
    <path
       id="path5039"
       style="fill:none;stroke:#000000;stroke-width:3;stroke-linecap:butt;stroke-linejoin:miter;stroke-miterlimit:4;stroke-opacity:1;stroke-dasharray:none"
       d="M 276.80209,286.72457 C 318.67383,512.07221 108.83944,439.96738 79.814602,372.66224 47.870152,298.58687 127.39612,232.29739 147.38035,249.48492 M 142.6222,152.0889 c 133.22826,-177.604503 291.35596,-56.296848 322.60271,24.82643 18.08098,46.9421 21.63292,157.62056 -103.72772,207.20526 -36.12312,14.28799 -80.88858,-7.63891 -80.88858,-7.63891 M 211.13959,251.39464 C 232.07546,131.08191 59.213972,127.52478 32.233082,189.32855 c -22.15168,50.74173 14.27445,111.71896 52.33967,101.21547"
       inkscape:connector-curvature="0" />
  </g>
  <g
     inkscape:groupmode="layer"
     id="layer12"
     inkscape:label="cloud8"
     sodipodi:insensitive="true"
     style="display:none">
    <path
       style="fill:#ffffff;fill-opacity:1;stroke:none"
       d="m 341.46199,437.10686 c -19.8684,-4.35983 -38.86354,-14.17121 -56.36043,-29.11131 l -3.1503,-2.68996 4.76503,-6.31004 c 5.28106,-6.9934 9.29651,-15.26638 11.8089,-24.32974 1.91842,-6.92065 3.21729,-29.48031 1.69732,-29.48031 -0.56042,0 -1.22648,5.07143 -1.54319,11.75 -0.90517,19.0874 -6.44281,33.20454 -17.95175,45.76453 -26.9394,29.39959 -77.54892,37.90098 -114.76558,19.27832 -11.17341,-5.59101 -23.86655,-17.90013 -29.2916,-28.4054 -3.7196,-7.20278 -7.68857,-21.18827 -7.70139,-27.13745 l -0.007,-3.25 6.92764,0 c 18.04591,0 39.01843,-4.87992 54.38568,-12.65453 10.56538,-5.34525 22.55765,-16.25191 26.61564,-24.20622 2.34857,-4.60358 2.46232,-5.13925 1.09136,-5.13925 -0.53882,0 -1.90831,1.82028 -3.04331,4.04506 -4.58836,8.99393 -16.09294,18.79593 -29.35512,25.01079 -36.12762,16.92998 -86.111365,13.4244 -119.528287,-8.38305 -15.518282,-10.12703 -29.931422,-27.18338 -35.709964,-42.25879 -3.271615,-8.53518 -4.328734,-23.88402 -2.396383,-34.79427 3.43919,-19.41802 14.144874,-38.78569 29.672781,-53.68109 8.512877,-8.16611 14.224388,-12.08712 24.666663,-16.93391 25.17648,-11.68569 52.91015,-8.79661 78.76582,8.20521 9.8468,6.47493 26.96938,22.29699 34.02044,31.43647 3.91923,5.08005 5.88704,6.54386 5.88704,4.37926 0,-1.28415 -10.02127,-12.87936 -18.0856,-20.92611 -13.31451,-13.28551 -31.09286,-24.36254 -46.71883,-29.10878 -6.95052,-2.11116 -7.19507,-2.29295 -7.18079,-5.33819 0.008,-1.73393 0.6986,-6.0538 1.53438,-9.59971 4.51531,-19.15693 17.22324,-32.64524 36.95084,-39.21996 6.11628,-2.03841 8.89368,-2.3284 22,-2.29702 14.32534,0.0343 15.43522,0.18506 24.67641,3.35189 14.46388,4.95656 25.67169,13.12851 32.83223,23.93895 4.78758,7.22794 6.50293,14.16205 6.41286,25.92325 -0.0432,5.6375 0.25851,10.25 0.67041,10.25 1.21853,0 2.17953,-12.37703 1.40981,-18.15737 -2.16959,-16.29294 -12.06706,-30.01931 -27.64834,-38.34426 l -5.75541,-3.07506 5.70101,-7.08369 c 29.69044,-36.891289 63.74933,-58.538287 101.20102,-64.3209 9.86486,-1.523152 30.63147,-1.236415 40.06561,0.553211 53.28822,10.108602 95.75091,51.887369 102.97896,101.320329 1.64919,11.27886 0.72532,29.39001 -2.02043,39.60774 -6.51223,24.23385 -21.54511,46.34105 -44.52414,65.47674 -7.45829,6.21086 -22.69046,17.02326 -23.98183,17.02326 -0.31468,0 -4.5781,-2.415 -9.47427,-5.36668 -7.8902,-4.75664 -25.37945,-12.63332 -28.0508,-12.63332 -2.88355,0 -0.24527,2.03 5.2569,4.04487 27.37136,10.02328 50.68979,29.64326 60.72934,51.09728 5.43828,11.62135 7.34702,21.60826 6.75182,35.3269 -0.75378,17.37371 -5.39944,30.47034 -15.82888,44.6234 -11.82695,16.04952 -29.33527,27.34777 -48.75942,31.46483 -7.28865,1.54487 -24.33863,1.74745 -30.64286,0.36408 l 0,0 z"
       id="path5058"
       inkscape:connector-curvature="0" />
    <path
       id="path5053"
       style="fill:none;stroke:#000000;stroke-width:3;stroke-linecap:butt;stroke-linejoin:miter;stroke-miterlimit:4;stroke-opacity:1;stroke-dasharray:none"
       d="m 280.22708,405.36278 c 121.34454,111.3009 239.7294,-80.54667 82.86943,-134.73265 M 127.8065,361.73152 c 1.47984,103.97847 183.49661,90.4948 171.65811,-16.41264 M 200.31728,238.41147 C 104.1295,113.9302 -1.191714,240.83652 31.618717,305.77781 70.093867,381.93103 194.398,374.60864 218.07501,321.88712 M 253.59048,194.47687 C 269.86841,119.78813 129.2863,100.34598 127.8065,186.75062 m 92.52105,-50.90339 C 362.3818,-57.153617 592.98396,174.14257 401.57157,289.66847"
       inkscape:connector-curvature="0"
       sodipodi:nodetypes="cccccsccccc" />
  </g>
  <g
     inkscape:groupmode="layer"
     id="layer13"
     inkscape:label="cloud9"
     sodipodi:insensitive="true"
     style="display:none">
    <path
       style="fill:#ffffff;fill-opacity:1;stroke:none"
       d="M 196.84412,471.59011 C 155.89011,465.63885 117.55639,446.8054 92.891484,420.51792 78.082194,404.7344 68.10413,387.25212 63.180898,368.46285 c -5.055292,-19.29328 -4.12921,-46.11955 2.248419,-65.13108 4.385767,-13.07384 11.839745,-23.18086 23.793381,-32.26198 18.078112,-13.73385 37.686502,-20.26829 60.621422,-20.20192 14.17481,0.041 23.63654,2.10418 34.91392,7.61312 8.99827,4.39561 20.47372,15.84618 25.37207,25.31706 3.84926,7.4425 7.69504,21.23352 7.707,27.63745 0.004,2.0625 0.45701,3.75 1.00701,3.75 1.63181,0 1.14309,-8.11396 -0.99925,-16.59004 -6.15858,-24.36619 -22.74408,-41.19955 -46.8651,-47.56543 -11.31688,-2.98669 -31.38932,-2.93072 -44.03544,0.12278 -27.76276,6.70355 -50.953477,23.24393 -60.021148,42.80908 -1.331516,2.87298 -2.742737,5.22361 -3.136048,5.22361 -2.017387,0 -13.549271,-8.85596 -17.999047,-13.82245 -13.658041,-15.24402 -19.780911,-34.91968 -18.65887,-59.95974 0.893574,-19.94147 6.26445,-37.2006 16.307202,-52.40265 22.912645,-34.68364 60.435201,-41.81907 98.460411,-18.72361 9.30041,5.64881 18.03683,12.12279 25.77788,19.10228 5.07164,4.5727 7.16941,5.75148 7.16941,4.02863 0,-0.95554 -9.36189,-9.17521 -17.6408,-15.48849 -9.9562,-7.59233 -21.62761,-14.23735 -31.3065,-17.82409 -4.97899,-1.84507 -9.0527,-3.77334 -9.0527,-4.28504 0,-2.02202 9.44527,-24.5574 13.25495,-31.62484 16.3527,-30.336385 38.57325,-52.193507 67.5293,-66.424825 16.76938,-8.241819 35.31609,-13.089281 55.52007,-14.511011 76.15549,-5.35897 145.42533,42.748095 155.23243,107.807026 1.86228,12.35412 1.8405,20.83145 -0.0868,33.81146 -3.88137,26.13965 -15.37149,52.49344 -34.52704,79.19132 -5.68163,7.91872 -6.99155,11.08777 -3.32546,8.04519 3.29649,-2.73585 19.49285,-28.37922 24.82756,-39.309 3.01181,-6.17059 6.82535,-15.24471 8.47455,-20.16471 3.4135,-10.1834 3.8678,-10.46595 13.58467,-8.44873 12.93623,2.68555 26.29573,12.85175 35.9442,27.35251 21.6125,32.48157 26.32401,80.78632 11.27481,115.59489 -14.95216,34.58412 -47.91499,52.52963 -91.08332,49.58727 l -10.35586,-0.70585 1.86573,-5.99462 c 5.65145,-18.15812 8.44327,-43.78327 7.46856,-68.55128 -0.35108,-8.92119 -0.90148,-16.90611 -1.2231,-17.74425 -1.34028,-3.49271 -1.87447,-0.16823 -1.22643,7.63253 1.04166,12.53888 0.97282,29.38399 -0.16746,40.97613 -4.04999,41.17228 -17.24696,72.08476 -40.95707,95.93748 -21.51889,21.64833 -47.72939,34.26746 -81.80574,39.38565 -12.51041,1.87904 -37.06775,1.84844 -50.21851,-0.0626 l -4e-5,3e-5 z"
       id="path5070"
       inkscape:connector-curvature="0" />
    <path
       id="path5067"
       style="fill:none;stroke:#000000;stroke-width:3;stroke-linecap:butt;stroke-linejoin:miter;stroke-miterlimit:4;stroke-opacity:1;stroke-dasharray:none"
       d="M 174.00853,177.51193 C 47.1871,56.505875 -23.76764,259.62542 65.30445,301.39907 M 368.76439,256.7668 C 528.79571,50.766155 184.57511,-81.764275 115.12603,141.51845 M 361.21362,380.65394 C 521.24495,402.2734 488.03056,181.8538 406.50474,186.17769 m -36.2257,100.83837 c 28.67494,283.79024 -361.2862402,208.657 -306.48025,17.30456 18.5623,-64.78646 149.46474,-84.99459 155.50535,10.0681"
       inkscape:connector-curvature="0" />
  </g>
  <g
     inkscape:groupmode="layer"
     id="layer14"
     inkscape:label="cloud10"
     sodipodi:insensitive="true"
     style="display:none">
    <path
       style="fill:#ffffff;fill-opacity:1;stroke:none"
       d="m 207.20703,402.0462 c -12.2568,-2.40252 -23.17438,-6.916 -29.39968,-12.15425 -1.75163,-1.4739 -3.50297,-2.36164 -3.89187,-1.97275 -0.71972,0.71973 3.309,4.69553 7.80658,7.70402 l 2.48497,1.66224 -4.9388,2.21807 c -6.17554,2.77351 -15.68606,3.59562 -22.69511,1.9618 -7.34949,-1.71318 -19.58054,-8.17905 -26.14668,-13.82229 -4.97933,-4.27947 -12.61257,-13.78733 -11.63003,-14.48621 0.22584,-0.16064 3.90683,-1.98681 8.17997,-4.05815 4.27314,-2.07133 7.52903,-4.1549 7.23532,-4.63013 -0.29371,-0.47524 -4.23992,0.86386 -8.76935,2.97578 -26.905807,12.54525 -48.313939,13.1816 -61.221653,1.81977 -15.328985,-13.49311 -15.373963,-40.65987 -0.132577,-80.07594 2.929184,-7.57522 2.96364,-7.72717 1.752239,-7.72717 -0.476671,0 -1.807314,2.26343 -2.956985,5.02985 -1.939145,4.6661 -2.292295,4.9864 -4.883325,4.42902 -20.13021,-4.3304 -29.975068,-13.35586 -31.060507,-28.47531 -0.621676,-8.65954 1.566646,-16.9781 7.756099,-29.48356 9.017319,-18.21901 20.441056,-30.3827 38.300106,-40.78093 15.698278,-9.14014 30.463283,-11.41213 40.642493,-6.25393 5.93992,3.00999 6.29628,3.50684 5.14248,7.16999 -1.77298,5.62898 -2.12955,9.55016 -0.82902,9.11665 0.67475,-0.22492 1.5352,-2.21539 1.91211,-4.42327 1.40599,-8.23598 7.22167,-17.2959 16.41679,-25.57478 4.78024,-4.30392 21.12671,-14.75373 23.07902,-14.75373 0.74108,0 1.34741,-0.45 1.34741,-1 0,-1.60741 -1.68353,-1.18854 -7.96258,1.98111 l -5.90555,2.98111 0.53788,-3.73111 c 3.95176,-27.4123 26.48322,-50.53176 56.74021,-58.220956 18.00624,-4.575916 38.70861,-1.253472 49.40561,7.928916 l 2.31556,1.9877 -6.31556,5.94448 c -3.47357,3.26947 -5.98307,6.28095 -5.57668,6.69218 0.4064,0.41123 3.1064,-1.48448 6,-4.21268 19.7372,-18.609002 45.15657,-25.819357 62.34036,-17.68322 9.67875,4.58268 16.48967,13.30095 20.57153,26.33247 2.06154,6.58158 2.34922,9.48984 2.34922,23.74945 0,8.9372 0.28502,16.2497 0.63337,16.25 1.12142,9.7e-4 1.83897,-4.32923 1.85298,-11.18206 0.0157,-7.70991 -0.97629,-6.99361 12.99418,-9.38236 20.0692,-3.43155 45.65272,-3.38212 60.98109,0.11782 16.47315,3.76133 29.0945,10.53406 40.05316,21.49286 11.95422,11.95438 18.51275,26.57245 21.04191,46.89958 1.57382,12.64897 -0.16122,30.02323 -4.59916,46.05471 -11.63758,42.03929 -36.10278,73.2481 -69.79928,89.03881 -17.86369,8.37121 -31.27649,11.29294 -51.65825,11.25282 -17.17592,-0.0338 -25.96767,-1.73849 -34.37397,-6.6649 -5.57244,-3.26567 -6.30729,-5.37103 -3.67537,-10.53002 2.32807,-4.56339 2.43938,-5.09671 1.06374,-5.09671 -0.54209,0 -2.30781,2.61927 -3.92384,5.82059 -11.53541,22.85154 -29.82899,41.89374 -49.36086,51.38086 -13.71222,6.66037 -34.23907,9.32215 -49.2297,6.38376 l 0,0 z"
       id="path5095"
       inkscape:connector-curvature="0" />
    <path
       id="path5087"
       style="fill:none;stroke:#000000;stroke-width:3;stroke-linecap:butt;stroke-linejoin:miter;stroke-miterlimit:4;stroke-opacity:1;stroke-dasharray:none"
       d="m 145.68266,163.62771 c 2.12247,-57.19124 78.53205,-86.484312 111.78436,-54.40142 M 118.09031,201.9877 c 1.41499,-29.29309 41.74227,-46.03199 41.74227,-46.03199 M 62.198121,292.65674 C -5.0140005,284.2873 36.728265,217.33168 57.245651,201.29025 77.763041,185.2488 103.94039,173.39208 120.92028,189.43352 m 12.73494,175.06101 c -56.59968,32.0829 -108.246891,11.15926 -67.919619,-82.2996 m 120.981829,114.3825 c -29.00734,22.31852 -69.33462,-13.94909 -69.33462,-24.4109 m 192.43892,-33.4778 c -45.27974,95.55123 -125.22679,62.77086 -135.83924,49.51924 m 162.01659,-240.6217 c 138.66923,-30.68798 162.72409,69.74541 118.15184,150.65011 -44.57225,80.90468 -141.49921,69.04796 -148.57417,50.91415 M 244.02461,121.78047 c 37.49728,-40.452347 101.87942,-40.452347 91.97447,44.63706"
       inkscape:connector-curvature="0" />
    <path
       id="path5091"
       style="fill:none;stroke:#000000;stroke-width:3;stroke-linecap:butt;stroke-linejoin:miter;stroke-miterlimit:4;stroke-opacity:1;stroke-dasharray:none"
       d="m 263.2914,236.51033 c -7.39205,55.74032 -121.79421,56.31122 -122.82226,13.96912 m 182.5306,-51.42605 c 20.20463,36.35703 -49.44488,71.37462 -71.05382,61.70196"
       inkscape:connector-curvature="0" />
  </g>
  <g
     inkscape:groupmode="layer"
     id="layer15"
     inkscape:label="cloud11"
     sodipodi:insensitive="true"
     style="display:none">
    <path
       style="fill:#ffffff;fill-opacity:1;stroke:none"
       d="m 149.38401,366.47955 c -7.89039,-2.06858 -15.27729,-5.57427 -19.86204,-9.42617 l -3,-2.52046 2.60078,-0.036 c 1.43042,-0.0198 4.01792,-0.52998 5.75,-1.13379 3.94567,-1.37547 4.31801,-3.48382 0.39922,-2.26058 -1.5125,0.47213 -6.37379,0.85841 -10.80286,0.85841 -7.28021,0 -8.76738,-0.35532 -15.5,-3.70336 -12.289162,-6.11122 -23.102142,-17.43001 -24.859458,-26.02232 -0.351498,-1.71863 -1.147923,-3.2944 -1.769834,-3.50171 -1.099532,-0.36651 -0.919984,1.06355 1.095751,8.72739 0.586176,2.22864 0.19238,2.68726 -3.628024,4.22523 -17.762558,7.15062 -32.252934,5.50064 -41.700061,-4.74829 -8.628126,-9.36038 -11.602348,-19.39483 -10.848253,-36.59986 0.844827,-19.27513 7.115246,-34.12532 19.823472,-46.94777 3.608402,-3.64084 9.503946,-8.26565 13.10121,-10.27735 7.697702,-4.3048 19.863234,-7.65193 27.811832,-7.65193 l 5.653848,0 -0.43218,5.97482 c -0.504483,6.9744 0.564979,17.02518 1.81158,17.02518 0.474709,0 0.61,-3.9375 0.300647,-8.75 -0.717492,-11.16177 0.730179,-18.09609 5.95881,-28.54257 10.70329,-21.38453 37.68341,-36.71202 57.51044,-32.67186 20.4681,4.1708 32.15648,22.89122 32.20572,51.58154 l 0.0174,10.11712 -4.25,2.75801 c -5.55386,3.60414 -9.80789,7.60507 -9.175,8.62911 0.27714,0.44842 3.11209,-1.21015 6.2999,-3.68571 7.45291,-5.78771 19.07237,-10.83376 31.3751,-13.62546 5.3625,-1.21684 9.75,-2.57193 9.75,-3.01131 0,-1.06414 -2.77644,-1.01017 -6.7566,0.13132 -4.18715,1.20086 -4.15261,0.38783 0.32355,-7.6163 6.07704,-10.86675 20.67653,-23.49992 33.4553,-28.94938 l 2.66268,-1.13549 -0.48335,7.53158 c -0.35221,5.48825 -0.17382,7.34028 0.65754,6.82647 0.62748,-0.38781 1.14088,-2.81748 1.14088,-5.39927 0,-5.03115 2.54893,-14.86219 5.75862,-22.21055 9.32236,-21.34294 31.70821,-40.2677 55.24138,-46.70048 10.25077,-2.80204 26.4046,-2.35807 36.11818,0.99267 13.34101,4.60204 24.24961,12.23692 34.88182,24.41363 5.19502,5.94968 7,7.36973 7,5.50716 0,-0.44537 -2.04262,-3.20276 -4.53915,-6.12752 -2.49653,-2.92476 -4.27339,-5.5835 -3.94858,-5.90832 1.26613,-1.26613 13.52861,-1.78836 24.48773,-1.04289 20.41756,1.38888 33.77751,7.28092 46.1442,20.35067 4.47825,4.73284 11.04102,17.50535 13.37875,26.03783 2.24745,8.20297 3.0888,31.40876 1.4966,41.27874 -9.74264,60.39426 -53.31656,113.11346 -104.03556,125.8705 -8.55139,2.15088 -12.78821,2.63646 -22.98399,2.63418 -17.34448,-0.004 -30.91666,-2.85912 -46.40186,-9.76173 l -5.90186,-2.63079 3.90186,-2.58271 c 5.39488,-3.57096 10.43124,-8.45163 9.79071,-9.48804 -0.29333,-0.47462 -2.59689,0.95347 -5.11902,3.17354 -9.90112,8.71531 -25.4554,13.6987 -39.31174,12.59497 -8.98918,-0.71603 -19.72256,-3.55511 -28.51863,-7.54344 -3.67682,-1.66715 -6.65998,-2.49742 -6.99949,-1.94809 -0.32542,0.52654 2.17906,2.21508 5.56551,3.75231 l 6.15719,2.79497 -5.33133,3.65034 c -6.67733,4.57193 -12.6967,6.70525 -18.91955,6.70525 -4.88244,0 -13.89429,-2.79894 -17.47161,-5.42641 -1.88673,-1.38577 -1.85955,-1.50943 0.98692,-4.48888 4.54201,-4.75421 2.22644,-4.8309 -3.13366,-0.10378 -12.37381,10.91258 -28.1503,14.43703 -44.9314,10.03763 l 0,0 z"
       id="path5124"
       inkscape:connector-curvature="0" />
    <path
       id="path5116"
       style="fill:none;stroke:#000000;stroke-width:3;stroke-linecap:butt;stroke-linejoin:miter;stroke-miterlimit:4;stroke-opacity:1;stroke-dasharray:none"
       d="M 95.309869,248.02245 C 79.379844,178.77851 200.65358,132.78814 191.91776,242.33824 M 85.803241,330.18502 C 3.5837615,371.52468 4.3545685,220.11817 94.795999,224.25214 M 137.44735,351.3716 C 112.78151,361.70651 82.463074,335.35248 82.463074,318.81661 m 116.836236,34.35752 c -26.8888,31.42393 -72.67244,9.50026 -74.12589,0 m 114.82246,2.19237 c -24.70863,24.84682 -47.23709,4.38473 -47.23709,4.38473 m 113.369,-16.07735 c -33.42932,33.61629 -79.21296,5.84632 -79.21296,5.84632 M 383.16058,151.4764 c 178.26033,-27.14306 67.58537,286.46924 -93.02073,203.8901 M 254.53036,207.74714 C 253.80364,150.01482 340.28384,91.551715 394.06144,164.6306 m -180.95437,68.69415 c 0,0 6.54052,-27.76997 43.60346,-41.65496 m -78.48623,59.92469 c 0,0 10.17415,-14.61578 46.51036,-20.46209"
       inkscape:connector-curvature="0" />
    <path
       id="path5120"
       style="fill:none;stroke:#000000;stroke-width:3;stroke-linecap:butt;stroke-linejoin:miter;stroke-miterlimit:4;stroke-opacity:1;stroke-dasharray:none"
       d="m 360.46769,287.34271 c -26.87919,30.14702 -95.16081,26.91117 -93.52466,-21.70332 m 147.99507,-37.2057 c 2.05548,47.54061 -38.02651,70.27743 -61.66461,56.84203"
       inkscape:connector-curvature="0" />
  </g>
  <g
     inkscape:groupmode="layer"
     id="layer16"
     inkscape:label="cloud12"
     sodipodi:insensitive="true"
     style="display:none">
    <path
       style="fill:#ffffff;fill-opacity:1;stroke:none"
       d="m 285.54344,357.37712 c -7.73972,-1.13399 -19.33577,-6.68621 -24.4826,-11.72235 -4.22531,-4.13443 -8.4149,-11.27232 -9.66663,-16.46922 -0.63264,-2.62658 -0.51964,-2.7394 2.10694,-2.10357 1.52649,0.36952 3.81723,1.05597 5.09054,1.52544 2.6802,0.98818 15.94466,1.1192 21.4349,0.21172 2.0625,-0.34091 3.75,-1.18812 3.75,-1.8827 0,-0.97278 -0.9762,-1.03774 -4.25,-0.28279 -2.3375,0.53904 -8.14723,0.80454 -12.91051,0.59001 -7.52221,-0.3388 -9.62519,-0.86976 -16,-4.03972 -4.03672,-2.00732 -9.78094,-5.79962 -12.76494,-8.42734 -6.75977,-5.95267 -15.88822,-18.15488 -19.60594,-26.2077 -1.55089,-3.35935 -3.19079,-6.10791 -3.64421,-6.10791 -3.86646,0 9.35205,21.9943 18.58091,30.91682 l 3.53414,3.41683 -3.21593,6.08317 c -4.29951,8.13286 -14.6485,18.2483 -23.30944,22.7834 -10.15614,5.31803 -17.4259,7.17886 -27.91408,7.14515 -14.69484,-0.0472 -25.44543,-5.52989 -32.91794,-16.7877 -2.02893,-3.05672 -3.88991,-5.55767 -4.13551,-5.55767 -1.32806,0 -0.0445,3.39644 2.98461,7.8977 l 3.43116,5.09868 -4.18116,2.42661 c -11.31771,6.56845 -24.93218,8.32576 -35.08191,4.52826 -16.533007,-6.18579 -26.366031,-28.01159 -21.290756,-47.25787 1.090273,-4.13449 1.194333,-5.69692 0.361361,-5.42567 -1.535887,0.50013 -3.487926,8.02996 -3.589376,13.84573 l -0.08048,4.61343 -5.75,2.52917 c -7.27508,3.19999 -13.348376,4.0554 -19.925959,2.80655 -25.875675,-4.9129 -41.61958,-35.03044 -32.840187,-62.82214 2.464366,-7.80109 7.721546,-16.55361 13.867629,-23.08778 6.482705,-6.89204 19.763725,-15.07396 32.82516,-20.2223 11.873552,-4.68011 38.350358,-9.8694 50.573358,-9.91205 2.8875,-0.0101 5.25,-0.46832 5.25,-1.01832 0,-1.3207 -7.28454,-1.26675 -18.21404,0.1349 -4.86722,0.6242 -9.16314,0.82125 -9.54649,0.4379 -0.38336,-0.38335 0.80204,-3.58827 2.63422,-7.12204 8.47011,-16.33659 31.81994,-29.50888 57.72441,-32.56396 22.56337,-2.66105 41.55568,5.5997 45.76253,19.90451 l 1.55611,5.29132 -3.45837,6.29173 c -3.71425,6.75725 -3.99612,7.62564 -2.47522,7.62564 0.54074,0 2.07102,-2.1375 3.40063,-4.75 3.8289,-7.52326 14.40382,-21.79405 21.64465,-29.20932 29.39139,-30.09947 68.27953,-37.39306 97.33634,-18.25575 12.25297,8.07002 19.379,20.57471 20.36643,35.73879 l 0.52248,8.02373 -5.87684,1.23487 c -6.27046,1.31759 -9.2365,2.69136 -8.15208,3.77578 0.36677,0.36676 2.7964,-0.0588 5.39918,-0.94563 7.19698,-2.45226 18.0157,-2.10732 25.79973,0.82258 7.30258,2.74868 15.88666,7.99981 19.50064,11.92912 1.33338,1.44971 3.1122,2.63583 3.95295,2.63583 1.80701,0 -4.9789,-7.31316 -9.03131,-9.73302 l -2.65405,-1.58484 3.65405,-5.91171 c 4.93554,-7.98498 17.59481,-19.95454 25.12419,-23.75536 24.39904,-12.3166 50.31174,-4.59708 61.50524,18.32272 8.72332,17.86182 6.3904,39.00394 -7.13511,64.66221 -12.71155,24.11417 -28.21662,40.00533 -44.518,45.62654 -9.30789,3.20964 -26.58085,2.19535 -32.16634,-1.88886 -1.70467,-1.24649 -1.69309,-1.65016 0.26586,-9.27046 3.3217,-12.9213 5.12109,-28.46722 3.295,-28.46722 -0.43076,0 -1.33314,4.63014 -2.00529,10.2892 -2.87016,24.16497 -11.53879,43.07513 -26.69298,58.22932 -19.59403,19.59402 -47.58139,29.23194 -73.75167,25.39761 l 0,0 z"
       id="path5150"
       inkscape:connector-curvature="0" />
    <path
       id="path5145"
       style="fill:none;stroke:#000000;stroke-width:3;stroke-linecap:butt;stroke-linejoin:miter;stroke-miterlimit:4;stroke-opacity:1;stroke-dasharray:none"
       d="m 102.1505,206.7367 c 8.08312,-44.27054 106.87683,-62.34014 110.46933,-15.35916 M 88.67863,316.9613 C 25.809902,354.00399 -30.771954,212.15759 130.89049,204.02626 m 23.35124,139.13597 c -44.00811,29.81485 -75.442472,-9.0348 -62.868726,-45.17402 M 237.76732,316.9613 c -15.26812,39.75314 -75.44247,52.40186 -92.50684,14.45568 m 138.3112,-4.5174 c -46.70248,13.55221 -69.1556,-43.36705 -69.1556,-43.36705 m 173.33807,-19.87657 c -1.79625,104.80372 -130.22808,121.06636 -138.3112,61.43666 m 127.5337,-121.06636 c 36.82311,-70.47146 130.88635,-32.00692 85.32185,54.20882 -37.72124,71.37495 -81.72935,42.46357 -81.72935,42.46357 M 335.66292,200.41233 c 30.53623,-12.64872 53.88748,14.45569 53.88748,14.45569 M 205.43484,204.02626 c 52.09123,-99.38284 153.57932,-66.85754 143.69995,-6.32436"
       inkscape:connector-curvature="0" />
    <path
       style="fill:none;stroke:#000000;stroke-width:3;stroke-linecap:butt;stroke-linejoin:miter;stroke-miterlimit:4;stroke-opacity:1;stroke-dasharray:none"
       d="m 131.57126,235.78638 c -23.05476,23.38279 -5.32197,41.42352 33.68552,46.63962"
       id="path5147"
       inkscape:connector-curvature="0"
       sodipodi:nodetypes="cc" />
  </g>
</svg>
