<?xml version="1.0" encoding="UTF-8" standalone="no"?>
<!-- Created with Inkscape (http://www.inkscape.org/) -->

<svg
   xmlns:dc="http://purl.org/dc/elements/1.1/"
   xmlns:cc="http://creativecommons.org/ns#"
   xmlns:rdf="http://www.w3.org/1999/02/22-rdf-syntax-ns#"
   xmlns:svg="http://www.w3.org/2000/svg"
   xmlns="http://www.w3.org/2000/svg"
   xmlns:sodipodi="http://sodipodi.sourceforge.net/DTD/sodipodi-0.dtd"
   xmlns:inkscape="http://www.inkscape.org/namespaces/inkscape"
   width="200"
   height="250"
   viewBox="0 0 199.99998 249.99999"
   id="svg8143"
   version="1.1"
   inkscape:version="0.91 r13725"
   sodipodi:docname="numbers.svg">
  <defs
     id="defs8145" />
  <sodipodi:namedview
     id="base"
     pagecolor="#ffffff"
     bordercolor="#666666"
     borderopacity="1.0"
     inkscape:pageopacity="0.0"
     inkscape:pageshadow="2"
     inkscape:zoom="1"
     inkscape:cx="100"
     inkscape:cy="125"
     inkscape:document-units="px"
     inkscape:current-layer="g8813"
     showgrid="false"
     inkscape:showpageshadow="false"
     units="px" />
  <metadata
     id="metadata8148">
    <rdf:RDF>
      <cc:Work
         rdf:about="">
        <dc:format>image/svg+xml</dc:format>
        <dc:type
           rdf:resource="http://purl.org/dc/dcmitype/StillImage" />
        <dc:title></dc:title>
      </cc:Work>
    </rdf:RDF>
  </metadata>
  <g
     inkscape:label="0"
     inkscape:groupmode="layer"
     id="g8813"
     transform="translate(0,-802.36224)"
     style="display:inline"
     sodipodi:insensitive="true">
    <g
       style="font-style:normal;font-variant:normal;font-weight:normal;font-stretch:normal;font-size:40px;line-height:125%;font-family:AlphaSmoke;-inkscape-font-specification:AlphaSmoke;letter-spacing:0px;word-spacing:0px;fill:#ffffff;fill-opacity:1;stroke:#000000;stroke-width:9.98654556;stroke-linecap:butt;stroke-linejoin:miter;stroke-miterlimit:4;stroke-dasharray:none;stroke-opacity:1"
       id="text8815"
       transform="matrix(1.0000825,0,0,1.0026114,-24.885317,-2.7349965)">
      <path
         d="m 99.187494,810.48718 52.187496,0 q 21.25,0 36.5625,15.625 15.3125,15.3125 15.3125,36.5625 l 0,130 q 0,21.25002 -15.3125,36.87502 -15.3125,15.3125 -36.5625,15.3125 l -52.187496,0 q -21.25,0 -36.875,-15.3125 -15.3125,-15.3125 -15.3125,-36.87502 l 0,-130 q 0,-21.5625 15.3125,-36.875 15.625,-15.3125 36.875,-15.3125 z m 0.625,186.5625 q 1.874996,10.62502 8.124996,16.25002 6.5625,5.625 17.1875,5.625 10.9375,0 18.4375,-7.8125 7.8125,-7.8125 7.8125,-18.43752 l 0,-88.4375 -51.562496,92.8125 z m 51.249996,-139.0625 q -5.625,-21.5625 -25.9375,-21.5625 -10.625,0 -18.4375,7.8125 -7.499996,7.5 -7.499996,18.4375 l 0,88.4375 51.874996,-93.125 z"
         style="font-style:normal;font-variant:normal;font-weight:normal;font-stretch:normal;font-size:312.5px;font-family:Silom;-inkscape-font-specification:Silom;fill:#ffffff;fill-opacity:1;stroke:#000000;stroke-width:9.98654556;stroke-miterlimit:4;stroke-dasharray:none;stroke-opacity:1"
         id="path8824"
         inkscape:connector-curvature="0" />
    </g>
    <text
       xml:space="preserve"
       style="font-style:normal;font-variant:normal;font-weight:normal;font-stretch:normal;font-size:40px;line-height:125%;font-family:'Bitstream Vera Sans';-inkscape-font-specification:'Bitstream Vera Sans';letter-spacing:0px;word-spacing:0px;fill:#000000;fill-opacity:1;stroke:none;stroke-width:1px;stroke-linecap:butt;stroke-linejoin:miter;stroke-opacity:1"
       x="145.31044"
       y="938.51801"
       id="text8819"
       sodipodi:linespacing="125%"><tspan
         sodipodi:role="line"
         id="tspan8821"
         x="145.31044"
         y="938.51801" /></text>
  </g>
  <g
     inkscape:label="1"
     inkscape:groupmode="layer"
     id="layer1"
     transform="translate(0,-802.36224)"
     style="display:none"
     sodipodi:insensitive="true">
    <g
       style="font-style:normal;font-variant:normal;font-weight:normal;font-stretch:normal;font-size:40px;line-height:125%;font-family:AlphaSmoke;-inkscape-font-specification:AlphaSmoke;letter-spacing:0px;word-spacing:0px;fill:#ffffff;fill-opacity:1;stroke:#000000;stroke-width:9.86649418;stroke-linecap:butt;stroke-linejoin:miter;stroke-miterlimit:4;stroke-dasharray:none;stroke-opacity:1"
       id="text8170"
       transform="matrix(1.0240001,0,0,1.0031694,-14.956363,-3.2604583)">
      <path
         d="m 99.187494,1044.8622 0,-182.18752 -25.9375,0 0,-26.25 51.874996,-25.9375 26.25,0 0,234.37502 -52.187496,0 z"
         style="font-style:normal;font-variant:normal;font-weight:normal;font-stretch:normal;font-size:312.5px;font-family:Silom;-inkscape-font-specification:Silom;fill:#ffffff;fill-opacity:1;stroke:#000000;stroke-width:9.86649418;stroke-miterlimit:4;stroke-dasharray:none;stroke-opacity:1"
         id="path8827"
         inkscape:connector-curvature="0" />
    </g>
    <text
       xml:space="preserve"
       style="font-style:normal;font-variant:normal;font-weight:normal;font-stretch:normal;font-size:40px;line-height:125%;font-family:'Bitstream Vera Sans';-inkscape-font-specification:'Bitstream Vera Sans';letter-spacing:0px;word-spacing:0px;fill:#000000;fill-opacity:1;stroke:none;stroke-width:1px;stroke-linecap:butt;stroke-linejoin:miter;stroke-opacity:1"
       x="145.31044"
       y="938.51801"
       id="text8174"
       sodipodi:linespacing="125%"><tspan
         sodipodi:role="line"
         id="tspan8176"
         x="145.31044"
         y="938.51801" /></text>
  </g>
  <g
     transform="translate(0,-802.36224)"
     id="g8718"
     inkscape:groupmode="layer"
     inkscape:label="2"
     style="display:none"
     sodipodi:insensitive="true">
    <g
       style="font-style:normal;font-variant:normal;font-weight:normal;font-stretch:normal;font-size:40px;line-height:125%;font-family:AlphaSmoke;-inkscape-font-specification:AlphaSmoke;letter-spacing:0px;word-spacing:0px;fill:#ffffff;fill-opacity:1;stroke:#000000;stroke-width:10.00658894;stroke-linecap:butt;stroke-linejoin:miter;stroke-miterlimit:4;stroke-dasharray:none;stroke-opacity:1"
       id="text8720"
       transform="matrix(0.99616465,0,0,1.0025275,-24.078888,-2.656819)">
      <path
         d="m 73.249994,862.67468 -26.25,0 q 6.25,-52.1875 52.1875,-52.1875 l 52.187496,0 q 21.25,0 36.5625,15.625 15.3125,15.3125 15.3125,36.5625 l 0,12.8125 q 0,27.1875 -50.3125,70.3125 l -3.4375,2.8125 q -50.312496,43.125 -50.312496,67.81252 l 0,2.5 104.062496,0 0,25.9375 -156.249996,0 0,-25.9375 q 0,-27.18752 50.625,-70.31252 l 3.437496,-2.8125 q 50.3125,-43.125 50.3125,-70.3125 l 0,-12.8125 q 0,-10.9375 -7.8125,-18.4375 -7.8125,-7.8125 -18.4375,-7.8125 l -25.937496,0 q -24.0625,0 -25.9375,26.25 z"
         style="font-style:normal;font-variant:normal;font-weight:normal;font-stretch:normal;font-size:312.5px;font-family:Silom;-inkscape-font-specification:Silom;fill:#ffffff;fill-opacity:1;stroke:#000000;stroke-width:10.00658894;stroke-miterlimit:4;stroke-dasharray:none;stroke-opacity:1"
         id="path8830"
         inkscape:connector-curvature="0" />
    </g>
    <text
       sodipodi:linespacing="125%"
       id="text8724"
       y="938.51801"
       x="145.31044"
       style="font-style:normal;font-variant:normal;font-weight:normal;font-stretch:normal;font-size:40px;line-height:125%;font-family:'Bitstream Vera Sans';-inkscape-font-specification:'Bitstream Vera Sans';letter-spacing:0px;word-spacing:0px;fill:#000000;fill-opacity:1;stroke:none;stroke-width:1px;stroke-linecap:butt;stroke-linejoin:miter;stroke-opacity:1"
       xml:space="preserve"><tspan
         y="938.51801"
         x="145.31044"
         id="tspan8726"
         sodipodi:role="line" /></text>
  </g>
  <g
     inkscape:label="3"
     inkscape:groupmode="layer"
     id="g8728"
     transform="translate(0,-802.36224)"
     style="display:none"
     sodipodi:insensitive="true">
    <g
       style="font-style:normal;font-variant:normal;font-weight:normal;font-stretch:normal;font-size:40px;line-height:125%;font-family:AlphaSmoke;-inkscape-font-specification:AlphaSmoke;letter-spacing:0px;word-spacing:0px;fill:#ffffff;fill-opacity:1;stroke:#000000;stroke-width:10.0065918;stroke-linecap:butt;stroke-linejoin:miter;stroke-miterlimit:4;stroke-dasharray:none;stroke-opacity:1"
       id="text8730"
       transform="matrix(0.99616461,0,0,1.0025275,-24.078886,-2.6574814)">
      <path
         d="m 46.999994,810.48718 156.249996,0 0,25.9375 -78.125,52.1875 26.25,0 q 22.5,0 37.1875,17.1875 14.6875,17.1875 14.6875,35 l 0,51.875 q 0,21.56252 -15.3125,36.87502 -15.3125,15.3125 -36.5625,15.3125 l -52.187496,0 q -45.9375,0 -52.1875,-52.18752 l 26.25,0 q 1.875,26.25002 25.9375,26.25002 l 25.937496,0 q 10.9375,0 18.4375,-7.5 7.8125,-7.8125 7.8125,-18.75002 l 0,-51.875 q 0,-6.25 -6.5625,-16.25 -6.5625,-10 -19.6875,-10 l -51.874996,0 0,-25.9375 78.124996,-52.1875 -104.374996,0 0,-25.9375 z"
         style="font-style:normal;font-variant:normal;font-weight:normal;font-stretch:normal;font-size:312.5px;font-family:Silom;-inkscape-font-specification:Silom;fill:#ffffff;fill-opacity:1;stroke:#000000;stroke-width:10.0065918;stroke-miterlimit:4;stroke-dasharray:none;stroke-opacity:1"
         id="path8833"
         inkscape:connector-curvature="0" />
    </g>
    <text
       xml:space="preserve"
       style="font-style:normal;font-variant:normal;font-weight:normal;font-stretch:normal;font-size:40px;line-height:125%;font-family:'Bitstream Vera Sans';-inkscape-font-specification:'Bitstream Vera Sans';letter-spacing:0px;word-spacing:0px;fill:#000000;fill-opacity:1;stroke:none;stroke-width:1px;stroke-linecap:butt;stroke-linejoin:miter;stroke-opacity:1"
       x="145.31044"
       y="938.51801"
       id="text8734"
       sodipodi:linespacing="125%"><tspan
         sodipodi:role="line"
         id="tspan8736"
         x="145.31044"
         y="938.51801" /></text>
  </g>
  <g
     transform="translate(0,-802.36224)"
     id="g8738"
     inkscape:groupmode="layer"
     inkscape:label="4"
     style="display:none"
     sodipodi:insensitive="true">
    <g
       style="font-style:normal;font-variant:normal;font-weight:normal;font-stretch:normal;font-size:40px;line-height:125%;font-family:AlphaSmoke;-inkscape-font-specification:AlphaSmoke;letter-spacing:0px;word-spacing:0px;fill:#ffffff;fill-opacity:1;stroke:#000000;stroke-width:10.77694225;stroke-linecap:butt;stroke-linejoin:miter;stroke-miterlimit:4;stroke-dasharray:none;stroke-opacity:1"
       id="text8740"
       transform="matrix(0.8615578,0,0,0.99936797,-7.5255014,0.98208237)">
      <path
         d="m 138.0625,940.09253 0,-97.8125 -78.125004,97.8125 78.125004,0 z m 0,104.06247 0,-78.12497 -104.062504,0 0,-25.9375 104.062504,-130.3125 52.1875,0 0,130.3125 25.9375,0 0,25.9375 -25.9375,0 0,78.12497 -52.1875,0 z"
         style="font-style:normal;font-variant:normal;font-weight:normal;font-stretch:normal;font-size:312.5px;font-family:Silom;-inkscape-font-specification:Silom;fill:#ffffff;fill-opacity:1;stroke:#000000;stroke-width:10.77694225;stroke-miterlimit:4;stroke-dasharray:none;stroke-opacity:1"
         id="path8836"
         inkscape:connector-curvature="0" />
    </g>
    <text
       sodipodi:linespacing="125%"
       id="text8744"
       y="938.51801"
       x="145.31044"
       style="font-style:normal;font-variant:normal;font-weight:normal;font-stretch:normal;font-size:40px;line-height:125%;font-family:'Bitstream Vera Sans';-inkscape-font-specification:'Bitstream Vera Sans';letter-spacing:0px;word-spacing:0px;fill:#000000;fill-opacity:1;stroke:none;stroke-width:1px;stroke-linecap:butt;stroke-linejoin:miter;stroke-opacity:1"
       xml:space="preserve"><tspan
         y="938.51801"
         x="145.31044"
         id="tspan8746"
         sodipodi:role="line" /></text>
  </g>
  <g
     style="display:none"
     transform="translate(0,-802.36224)"
     id="g8758"
     inkscape:groupmode="layer"
     inkscape:label="5"
     sodipodi:insensitive="true">
    <g
       style="font-style:normal;font-variant:normal;font-weight:normal;font-stretch:normal;font-size:40px;line-height:125%;font-family:AlphaSmoke;-inkscape-font-specification:AlphaSmoke;letter-spacing:0px;word-spacing:0px;fill:#ffffff;fill-opacity:1;stroke:#000000;stroke-width:9.99736214;stroke-linecap:butt;stroke-linejoin:miter;stroke-miterlimit:4;stroke-dasharray:none;stroke-opacity:1"
       id="text8760"
       transform="matrix(0.99593903,0,0,1.0046074,-24.061058,-4.8238805)">
      <path
         d="m 46.999994,810.48718 156.249996,0 0,25.9375 -104.062496,0 0,52.1875 52.187496,0 q 21.25,0 36.5625,15.3125 15.3125,15.3125 15.3125,36.875 l 0,51.875 q 0,21.56252 -15.3125,36.87502 -15.3125,15.3125 -36.5625,15.3125 l -52.187496,0 q -45.9375,0 -52.1875,-52.18752 l 26.25,0 q 1.875,26.25002 25.9375,26.25002 l 25.937496,0 q 10.9375,0 18.4375,-7.5 7.8125,-7.8125 7.8125,-18.75002 l 0,-51.875 q 0,-10.9375 -7.8125,-18.4375 -7.5,-7.8125 -18.4375,-7.8125 l -78.124996,0 0,-104.0625 z"
         style="font-style:normal;font-variant:normal;font-weight:normal;font-stretch:normal;font-size:312.5px;font-family:Silom;-inkscape-font-specification:Silom;fill:#ffffff;fill-opacity:1;stroke:#000000;stroke-width:9.99736214;stroke-miterlimit:4;stroke-dasharray:none;stroke-opacity:1"
         id="path8839"
         inkscape:connector-curvature="0" />
    </g>
    <text
       sodipodi:linespacing="125%"
       id="text8764"
       y="938.51801"
       x="145.31044"
       style="font-style:normal;font-variant:normal;font-weight:normal;font-stretch:normal;font-size:40px;line-height:125%;font-family:'Bitstream Vera Sans';-inkscape-font-specification:'Bitstream Vera Sans';letter-spacing:0px;word-spacing:0px;fill:#000000;fill-opacity:1;stroke:none;stroke-width:1px;stroke-linecap:butt;stroke-linejoin:miter;stroke-opacity:1"
       xml:space="preserve"><tspan
         y="938.51801"
         x="145.31044"
         id="tspan8766"
         sodipodi:role="line" /></text>
  </g>
  <g
     inkscape:label="6"
     inkscape:groupmode="layer"
     id="g8773"
     transform="translate(0,-802.36224)"
     style="display:none"
     sodipodi:insensitive="true">
    <g
       style="font-style:normal;font-variant:normal;font-weight:normal;font-stretch:normal;font-size:40px;line-height:125%;font-family:AlphaSmoke;-inkscape-font-specification:AlphaSmoke;letter-spacing:0px;word-spacing:0px;fill:#ffffff;fill-opacity:1;stroke:#000000;stroke-width:9.986269;stroke-linecap:butt;stroke-linejoin:miter;stroke-miterlimit:4;stroke-dasharray:none;stroke-opacity:1"
       id="text8775"
       transform="matrix(1.0000825,0,0,1.0026669,-24.885317,-2.7929753)">
      <path
         d="m 151.37499,992.67468 0,-51.875 q 0,-10.9375 -7.8125,-18.4375 -7.5,-7.8125 -18.4375,-7.8125 -10.625,0 -18.4375,7.8125 -7.499996,7.5 -7.499996,18.4375 l 0,51.875 q 0,10.62502 7.499996,18.43752 7.8125,7.8125 18.4375,7.8125 10.9375,0 18.4375,-7.8125 7.8125,-7.8125 7.8125,-18.43752 z m -52.187496,-78.125 q 1.562496,-12.8125 8.124996,-19.375 6.5625,-6.5625 17.8125,-6.5625 l 26.25,0 q 21.25,0 36.5625,15.3125 15.3125,15.3125 15.3125,36.875 l 0,51.875 q 0,21.25002 -15.3125,36.87502 -15.3125,15.3125 -36.5625,15.3125 l -52.187496,0 q -21.25,0 -36.875,-15.3125 -15.3125,-15.625 -15.3125,-36.87502 l 0,-90.9375 q 0,-37.5 26.875,-64.375 27.187496,-26.875 64.374996,-26.875 l 39.0625,0 0,25.9375 -25.9375,0 q -21.5625,0 -36.875,15.625 -15.312496,15.3125 -15.312496,36.5625 l 0,25.9375 z"
         style="font-style:normal;font-variant:normal;font-weight:normal;font-stretch:normal;font-size:312.5px;font-family:Silom;-inkscape-font-specification:Silom;fill:#ffffff;fill-opacity:1;stroke:#000000;stroke-width:9.986269;stroke-miterlimit:4;stroke-dasharray:none;stroke-opacity:1"
         id="path8842"
         inkscape:connector-curvature="0" />
    </g>
    <text
       xml:space="preserve"
       style="font-style:normal;font-variant:normal;font-weight:normal;font-stretch:normal;font-size:40px;line-height:125%;font-family:'Bitstream Vera Sans';-inkscape-font-specification:'Bitstream Vera Sans';letter-spacing:0px;word-spacing:0px;fill:#000000;fill-opacity:1;stroke:none;stroke-width:1px;stroke-linecap:butt;stroke-linejoin:miter;stroke-opacity:1"
       x="145.31044"
       y="938.51801"
       id="text8779"
       sodipodi:linespacing="125%"><tspan
         sodipodi:role="line"
         id="tspan8781"
         x="145.31044"
         y="938.51801" /></text>
  </g>
  <g
     style="display:none"
     transform="translate(0,-802.36224)"
     id="g8783"
     inkscape:groupmode="layer"
     inkscape:label="7"
     sodipodi:insensitive="true">
    <g
       style="font-style:normal;font-variant:normal;font-weight:normal;font-stretch:normal;font-size:40px;line-height:125%;font-family:AlphaSmoke;-inkscape-font-specification:AlphaSmoke;letter-spacing:0px;word-spacing:0px;fill:#ffffff;fill-opacity:1;stroke:#000000;stroke-width:9.986269;stroke-linecap:butt;stroke-linejoin:miter;stroke-miterlimit:4;stroke-dasharray:none;stroke-opacity:1"
       id="text8785"
       transform="matrix(1.0000825,0,0,1.0026669,-24.885317,-2.7929753)">
      <path
         d="m 46.999994,810.48718 156.249996,0 0,52.1875 -12.8125,25.9375 -13.125,25.9375 q -25.9375,55 -25.9375,78.125 l 0,52.18752 -52.187496,0 0,-52.18752 q 0,-25.9375 25.937496,-78.125 l 26.25,-51.875 0,-26.25 -104.374996,0 0,-25.9375 z"
         style="font-style:normal;font-variant:normal;font-weight:normal;font-stretch:normal;font-size:312.5px;font-family:Silom;-inkscape-font-specification:Silom;fill:#ffffff;fill-opacity:1;stroke:#000000;stroke-width:9.986269;stroke-miterlimit:4;stroke-dasharray:none;stroke-opacity:1"
         id="path8845"
         inkscape:connector-curvature="0" />
    </g>
    <text
       sodipodi:linespacing="125%"
       id="text8789"
       y="938.51801"
       x="145.31044"
       style="font-style:normal;font-variant:normal;font-weight:normal;font-stretch:normal;font-size:40px;line-height:125%;font-family:'Bitstream Vera Sans';-inkscape-font-specification:'Bitstream Vera Sans';letter-spacing:0px;word-spacing:0px;fill:#000000;fill-opacity:1;stroke:none;stroke-width:1px;stroke-linecap:butt;stroke-linejoin:miter;stroke-opacity:1"
       xml:space="preserve"><tspan
         y="938.51801"
         x="145.31044"
         id="tspan8791"
         sodipodi:role="line" /></text>
  </g>
  <g
     inkscape:label="8"
     inkscape:groupmode="layer"
     id="g8793"
     transform="translate(0,-802.36224)"
     style="display:none"
     sodipodi:insensitive="true">
    <g
       style="font-style:normal;font-variant:normal;font-weight:normal;font-stretch:normal;font-size:40px;line-height:125%;font-family:AlphaSmoke;-inkscape-font-specification:AlphaSmoke;letter-spacing:0px;word-spacing:0px;fill:#ffffff;fill-opacity:1;stroke:#000000;stroke-width:9.986269;stroke-linecap:butt;stroke-linejoin:miter;stroke-miterlimit:4;stroke-dasharray:none;stroke-opacity:1"
       id="text8795"
       transform="matrix(1.0000825,0,0,1.0026665,-24.885317,-2.7925633)">
      <path
         d="m 151.37499,927.67468 q 25.9375,0 38.75,16.875 13.125,16.875 13.125,35.3125 l 0,12.8125 q 0,17.50002 -15,35.00002 -15,17.1875 -36.875,17.1875 l -52.187496,0 q -21.875,0 -37.1875,-17.1875 -15,-17.5 -15,-35.00002 l 0,-12.8125 q 0,-18.4375 13.125,-35.3125 13.125,-16.875 39.0625,-16.875 -25.9375,-3.125 -39.0625,-15.9375 -13.125,-13.125 -13.125,-36.25 l 0,-12.8125 q 0,-21.25 15.3125,-36.5625 15.625,-15.625 36.875,-15.625 l 52.187496,0 q 21.25,0 36.5625,15.625 15.3125,15.3125 15.3125,36.5625 l 0,12.8125 q 0,23.125 -13.125,36.25 -12.8125,12.8125 -38.75,15.9375 z m 0,-39.0625 0,-25.9375 q 0,-10.9375 -7.8125,-18.4375 -7.5,-7.8125 -18.4375,-7.8125 -10.625,0 -18.4375,7.8125 -7.499996,7.5 -7.499996,18.4375 l 0,25.9375 q 0,10.625 7.499996,18.4375 7.8125,7.5 18.4375,7.5 10.9375,0 18.4375,-7.5 7.8125,-7.8125 7.8125,-18.4375 z m 0,104.0625 0,-25.9375 q 0,-25.9375 -26.25,-25.9375 -25.937496,0 -25.937496,25.9375 l 0,25.9375 q 0,10.93752 7.499996,18.75002 7.8125,7.5 18.4375,7.5 10.9375,0 18.4375,-7.5 7.8125,-7.8125 7.8125,-18.75002 z"
         style="font-style:normal;font-variant:normal;font-weight:normal;font-stretch:normal;font-size:312.5px;font-family:Silom;-inkscape-font-specification:Silom;fill:#ffffff;fill-opacity:1;stroke:#000000;stroke-width:9.986269;stroke-miterlimit:4;stroke-dasharray:none;stroke-opacity:1"
         id="path8848"
         inkscape:connector-curvature="0" />
    </g>
    <text
       xml:space="preserve"
       style="font-style:normal;font-variant:normal;font-weight:normal;font-stretch:normal;font-size:40px;line-height:125%;font-family:'Bitstream Vera Sans';-inkscape-font-specification:'Bitstream Vera Sans';letter-spacing:0px;word-spacing:0px;fill:#000000;fill-opacity:1;stroke:none;stroke-width:1px;stroke-linecap:butt;stroke-linejoin:miter;stroke-opacity:1"
       x="145.31044"
       y="938.51801"
       id="text8799"
       sodipodi:linespacing="125%"><tspan
         sodipodi:role="line"
         id="tspan8801"
         x="145.31044"
         y="938.51801" /></text>
  </g>
  <g
     style="display:none"
     transform="translate(0,-802.36224)"
     id="g8803"
     inkscape:groupmode="layer"
     inkscape:label="9"
     sodipodi:insensitive="true">
    <g
       style="font-style:normal;font-variant:normal;font-weight:normal;font-stretch:normal;font-size:40px;line-height:125%;font-family:AlphaSmoke;-inkscape-font-specification:AlphaSmoke;letter-spacing:0px;word-spacing:0px;fill:#ffffff;fill-opacity:1;stroke:#000000;stroke-width:9.986269;stroke-linecap:butt;stroke-linejoin:miter;stroke-miterlimit:4;stroke-dasharray:none;stroke-opacity:1"
       id="text8805"
       transform="matrix(1.0000825,0,0,1.0026669,-24.885317,-2.7929753)">
      <path
         d="m 99.187494,862.67468 0,51.875 q 0,10.625 7.499996,18.4375 7.8125,7.8125 18.4375,7.8125 10.9375,0 18.4375,-7.8125 7.8125,-7.8125 7.8125,-18.4375 l 0,-51.875 q 0,-10.9375 -7.8125,-18.4375 -7.5,-7.8125 -18.4375,-7.8125 -10.625,0 -18.4375,7.8125 -7.499996,7.8125 -7.499996,18.4375 z m 52.187496,78.125 q -3.125,25.9375 -26.25,25.9375 l -25.937496,0 q -21.25,0 -36.875,-15.3125 -15.3125,-15.3125 -15.3125,-36.875 l 0,-51.875 q 0,-21.25 15.3125,-36.5625 15.625,-15.625 36.875,-15.625 l 52.187496,0 q 21.25,0 36.5625,15.625 15.3125,15.3125 15.3125,36.5625 l 0,90.9375 q 0,37.5 -26.875,64.37502 -26.5625,26.875 -64.0625,26.875 l -39.062496,0 0,-25.9375 25.9375,0 q 21.562496,0 36.874996,-15.3125 15.3125,-15.62502 15.3125,-36.87502 l 0,-25.9375 z"
         style="font-style:normal;font-variant:normal;font-weight:normal;font-stretch:normal;font-size:312.5px;font-family:Silom;-inkscape-font-specification:Silom;fill:#ffffff;fill-opacity:1;stroke:#000000;stroke-width:9.986269;stroke-miterlimit:4;stroke-dasharray:none;stroke-opacity:1"
         id="path8851"
         inkscape:connector-curvature="0" />
    </g>
    <text
       sodipodi:linespacing="125%"
       id="text8809"
       y="938.51801"
       x="145.31044"
       style="font-style:normal;font-variant:normal;font-weight:normal;font-stretch:normal;font-size:40px;line-height:125%;font-family:'Bitstream Vera Sans';-inkscape-font-specification:'Bitstream Vera Sans';letter-spacing:0px;word-spacing:0px;fill:#000000;fill-opacity:1;stroke:none;stroke-width:1px;stroke-linecap:butt;stroke-linejoin:miter;stroke-opacity:1"
       xml:space="preserve"><tspan
         y="938.51801"
         x="145.31044"
         id="tspan8811"
         sodipodi:role="line" /></text>
  </g>
</svg>
