<svg xmlns="http://www.w3.org/2000/svg" width="655" height="110" viewBox="0 0 655.00001 110"><path d="M40.625 50.4h31.25v31.25q0 10.5-6.625 15.75-6.625 5.125-14.125 5.125H30.25q-8.5 0-14.75-6.125-6.125-6.125-6.125-14.75v-52q0-8.5 6-14.625 6.125-6.25 14.875-6.25h20.875q19.625 0 20.75 20.875H61.5q-1.25-10.5-10.375-10.5h-10.5q-4.25 0-7.375 3.125-3 3-3 7.375v52q0 4.375 3 7.5 3.125 3 7.375 3 10-.5 10.5-10.5V60.9h-10.5V50.4zm45.142 52.125V29.65q0-8.625 6.125-14.75 6.25-6.125 14.75-6.125h20.875q8.5 0 14.625 6.25 6.125 6.125 6.125 14.625v72.875h-20.75V60.9h-20.875v41.625H85.767zM106.642 50.4h20.875V29.65q0-4.375-3.125-7.375-3-3.125-7.375-3.125-4.25 0-7.375 3.125-3 3-3 7.375V50.4zm55.518 52.125V8.775h4.874l44.5 44.375L255.91 8.775h10.5v93.75h-20.876v-57.25l-36.5 36.5-36.375-36.5v57.25h-10.5zm117.895 0V8.775h52.125V19.15h-31.25V50.4h20.875v10.5H300.93v31.25h31.25v10.375h-52.125zm105.93-93.75h20.874q8.5 0 14.622 6.25 6.125 6.125 6.125 14.625v52q0 8.5-6.126 14.75-6.124 6.125-14.624 6.125H385.98q-8.5 0-14.75-6.125-6.124-6.125-6.124-14.75v-52q0-8.625 6.124-14.75 6.25-6.125 14.75-6.125zm0 20.875v52q0 4.25 3 7.375 3.124 3.125 7.374 3.125 4.372 0 7.372-3.125 3.125-3.125 3.125-7.375v-52q0-4.375-3.126-7.375-3-3.125-7.374-3.125-4.25 0-7.376 3.125-3 3-3 7.375zM483.25 8.775H504V66.9q0 14.625-10.5 25.125-10.374 10.5-25 10.5h-27V8.775h20.876V92.15h10.375q4.378 0 7.378-3.125 3.125-3.125 3.125-7.375V8.775zm34.643 93.75V8.775h52.125V19.15h-31.25V50.4h20.875v10.5h-20.875v31.25h31.25v10.375h-52.125zm65.893 0V8.775h41.75q8.5 0 14.625 6.25 6.128 6.125 6.128 14.625v5.625q0 7-4.75 13.5-4.75 6.375-16 6.375h10.375q4.25 0 7.25 3.125 3.126 3 3.126 7.375v36.875h-20.75v-31.25q0-4.25-3.126-7.25-3-3.125-7.374-3.125h-10.38v41.625h-20.874zM604.66 50.4h10.376q4.375 0 7.375-3 3.128-3.125 3.128-7.375V29.65q0-4.375-3.125-7.375-3-3.125-7.374-3.125h-10.38V50.4z" style="-inkscape-font-specification:Silom" font-size="125" font-family="Silom" letter-spacing="-6.86" word-spacing="-5.23" fill="#fff" stroke="#000" stroke-width="5"/></svg>