<svg xmlns="http://www.w3.org/2000/svg" xmlns:xlink="http://www.w3.org/1999/xlink" width="900" height="600" viewBox="0 0 900 600"><defs><linearGradient id="e"><stop offset="0" stop-color="#13d7f5"/><stop offset="1" stop-color="#0e96f1"/></linearGradient><linearGradient id="d"><stop offset="0" stop-color="#f0e770"/><stop offset="1" stop-color="#d6c54d"/></linearGradient><linearGradient id="c"><stop offset="0" stop-color="#b1b7b7"/><stop offset="1" stop-color="#b1b7b7" stop-opacity="0"/></linearGradient><linearGradient id="b"><stop offset="0" stop-color="#9ec3c2"/><stop offset="1" stop-color="#7b8c8b"/></linearGradient><linearGradient id="a"><stop offset="0" stop-color="#696256"/><stop offset="1" stop-color="#483d29"/></linearGradient><linearGradient gradientUnits="userSpaceOnUse" y2="234.779" x2="269.278" y1="210.787" x1="252.984" id="n" xlink:href="#a" gradientTransform="matrix(.723 .005 .005 .67 80.073 62.29)"/><radialGradient gradientUnits="userSpaceOnUse" gradientTransform="matrix(1 0 0 .773 0 31.113)" r="9.693" fy="137.199" fx="295.273" cy="137.199" cx="295.273" id="p" xlink:href="#b"/><radialGradient gradientUnits="userSpaceOnUse" gradientTransform="matrix(1 0 0 .836 0 24.204)" r="9.645" fy="147.325" fx="267.685" cy="147.325" cx="267.685" id="o" xlink:href="#b"/><linearGradient xlink:href="#c" id="f" x1="331.487" y1="307.419" x2="338.497" y2="307.419" gradientUnits="userSpaceOnUse"/><linearGradient xlink:href="#c" id="g" x1="354.468" y1="307.419" x2="361.478" y2="307.419" gradientUnits="userSpaceOnUse"/><linearGradient xlink:href="#c" id="h" x1="376.741" y1="307.419" x2="383.752" y2="307.419" gradientUnits="userSpaceOnUse"/><linearGradient xlink:href="#c" id="i" x1="400.43" y1="307.419" x2="407.44" y2="307.419" gradientUnits="userSpaceOnUse"/><linearGradient xlink:href="#c" id="j" x1="424.825" y1="307.419" x2="431.835" y2="307.419" gradientUnits="userSpaceOnUse"/><linearGradient xlink:href="#c" id="k" x1="450.281" y1="307.419" x2="457.291" y2="307.419" gradientUnits="userSpaceOnUse"/><linearGradient xlink:href="#c" id="l" x1="473.969" y1="307.419" x2="480.979" y2="307.419" gradientUnits="userSpaceOnUse"/><linearGradient xlink:href="#c" id="m" gradientUnits="userSpaceOnUse" x1="331.487" y1="307.419" x2="338.497" y2="307.419" gradientTransform="translate(-23.335)"/><radialGradient xlink:href="#d" id="q" gradientUnits="userSpaceOnUse" gradientTransform="matrix(1.173 0 0 .31 380.727 347.98)" cx="210" cy="535" fx="210" fy="535" r="110"/><radialGradient xlink:href="#d" id="r" gradientUnits="userSpaceOnUse" gradientTransform="matrix(1.173 0 0 .31 27.727 347.98)" cx="210" cy="535" fx="210" fy="535" r="110"/><radialGradient xlink:href="#e" id="s" cx="298.5" cy="404" fx="298.5" fy="404" r="68" gradientTransform="matrix(1 0 0 .525 50 171.22)" gradientUnits="userSpaceOnUse"/><filter id="t" color-interpolation-filters="sRGB"><feFlood flood-opacity=".498" flood-color="#000" result="flood"/><feComposite in="flood" in2="SourceGraphic" operator="in" result="composite1"/><feGaussianBlur in="composite1" stdDeviation="1.5" result="blur"/><feOffset dx=".6" dy=".6" result="offset"/><feComposite in="SourceGraphic" in2="offset" result="composite2"/></filter></defs><path d="M849 459.803c0 58.718-181.4 69-399 69s-399-8.496-399-69c0-68.835 162.4-39 380-39s418-34.718 418 39z" fill="#4daf6c"/><path d="M843 466.303a392 43 0 0 1-392 43 392 43 0 0 1-392-43 392 43 0 0 1 392-43 392 43 0 0 1 392 43zm-20-17.5a374 51.5 0 0 1-374 51.5 374 51.5 0 0 1-374-51.5 374 51.5 0 0 1 374-51.5 374 51.5 0 0 1 374 51.5z" opacity=".74" fill="#a97533"/><g stroke="#000" stroke-width="2"><path d="M754.452 323.782V450.61h-608.82V325.214s93.844.3 94.046 0c77.552-114.29 333.883-124.2 424.807-.475.224.3 89.967-.96 89.967-.96z" fill="#dce4e5" fill-rule="evenodd"/><path d="M763.42 326.866l.032-11.757-92.205-.25s-59.46-88.74-221.205-88.79c-162.106-.05-216.705 88.78-216.705 88.78l-96.704-.75-.03 12.75h103.075c74.08-115.1 333.883-122.1 424.807 0z" fill="#eff2f2" fill-rule="evenodd"/><path d="M741.194 443.303v-97h-101v-30H266.548v30.362H158.714v96.638z" fill="#4f5252" fill-rule="evenodd"/><path d="M370.846 298.58h171.827v-23.333H370.846z" fill="#b9d9f9" fill-rule="evenodd"/><path d="M429.89 443.303v-127H266.548l-.09 30.362H158.713v96.638z" fill="#b1b7b7" fill-rule="evenodd"/><path d="M331.987 295.944v23.335h6.01v-23.34z" fill="url(#f)" fill-rule="evenodd" transform="translate(62.194 -20.697)"/><path d="M355.144 295.944l-.176 23.335h6.01v-23.34z" fill="url(#g)" fill-rule="evenodd" transform="translate(62.194 -20.697)"/><path d="M377.24 295.944v23.335h6.012v-23.34z" fill="url(#h)" fill-rule="evenodd" transform="translate(62.194 -20.697)"/><path d="M400.93 295.944v23.335h6.01v-23.34z" fill="url(#i)" fill-rule="evenodd" transform="translate(62.194 -20.697)"/><path d="M425.325 295.944v23.335h6.01v-23.34z" fill="url(#j)" fill-rule="evenodd" transform="translate(62.194 -20.697)"/><path d="M450.78 295.944v23.335h6.01v-23.34z" fill="url(#k)" fill-rule="evenodd" transform="translate(62.194 -20.697)"/><path d="M474.47 295.944v23.335h6.01v-23.34z" fill="url(#l)" fill-rule="evenodd" transform="translate(62.194 -20.697)"/><path d="M308.652 295.944v23.335h6.01v-23.34z" fill="url(#m)" fill-rule="evenodd" transform="translate(62.194 -20.697)"/><path d="M175.33 346.31v96.875m23.336-97.227v97.227m22.98-96.875v96.875m23.334-96.875v96.875m21.568-126.882v126.882m23.688-127.103v127.103m23.334-127.103v127.103m22.98-127.103v126.75m23.69-126.926v127.28m22.98-126.75V443.54m23.335-127.634v127.28" fill="none"/></g><g transform="translate(31.615 -23.526)" opacity=".455"><ellipse ry="4.716" rx="4.388" transform="rotate(11.108) skewX(1.553)" cy="339.083" cx="659.8" fill="#28292b" stroke="#000" stroke-linecap="round" stroke-linejoin="round"/><path d="M585.448 461.37c-.123-2.047.988-7.953 5.458-8.12 7.39-.275 5.543 8.778 5.543 8.778-2.14-2.388-8.87-2.986-11.01-.658z" fill="red" fill-rule="evenodd" stroke="#000"/><ellipse ry="7.009" rx="5.925" cx="541.096" cy="396.051" transform="rotate(7.18) skewX(-.207)" fill="#28292b" stroke="#000" stroke-linecap="round" stroke-linejoin="round"/><path d="M478.176 460.878c-.24-3.004 1.065-11.846 7.13-12.618 10.033-1.275 7.838 12.295 7.838 12.295-2.983-3.27-12.143-3.362-14.968.323z" fill="red" fill-rule="evenodd" stroke="#000"/><path d="M525.014 227.645s50.73-3.055 45.948-47.26c-4.69-43.356-45.948 47.26-45.948 47.26zm-1.114 5.548s-1.698 42.265 18.97 52.58c43.718 21.82-18.97-52.58-18.97-52.58zm-1.69-10.02s6.96-39.98-17.06-61.018c-31.532-27.615 17.06 61.017 17.06 61.017zm-2.394 5.773s-14.427-15.448-20.53 15.893c-8.01 41.14 20.53-15.9 20.53-15.9z" transform="matrix(-.363 -.094 -.086 .393 657.538 373.5)" fill="#2b74db" stroke="#000" stroke-width="4.903"/><path d="M298.83 205.21c-26.176-32.092-54.45-41.037-49.092-53.494 6.31-14.67 69.364-30.804 78.76-33.528 11.693-3.39 23.62 16.463 27.52 17.75 4.578 1.51 12.652-2.79 47.913 38.306 11.72 13.648 34.16 18.13 33.98 18.312-.18.182-59.64 3.883-59.64 3.883s-57.99 3.66-58.79 3.8c-1.28.22-18.06 11.13-20.64 4.96z" fill="red" stroke="#000" stroke-width="5" transform="matrix(-.384 0 0 .214 660.586 385.79)"/><g fill="#fbff00" stroke="#000"><path d="M375.705 148.116c-.647-.26-.82-11.366-.82-52.437 0-50.85.03-52.13 1.27-52.79 1.528-.82 3.982-.87 5.187-.1 1.35.85 2.04 104.31.7 105.15-.977.62-4.96.72-6.337.17z" stroke-width="3.806" transform="matrix(-.38 0 0 .322 694.41 372.794)"/><path d="M410.652 139.897c-.18-.472-.25-18.138-.158-39.257l.17-38.4h5.908v78.112l-2.796.202c-1.852.134-2.906-.088-3.124-.657z" stroke-width="2.718" transform="matrix(-.38 0 0 .322 694.41 372.794)"/></g><path d="M575.952 446.6s.968-13.014 11.19-10.15c4.54 1.273 28.245 2.45 30.227 6.348 3.24 6.383-13.7 9.12-13.7 9.12z" fill="#2b74db" stroke="#000" stroke-width="1.904"/><g stroke="#000" stroke-width="5"><path d="M442.358 270.848c-142.045-3.937-381.14-16.926-386.014-20.97-.436-.363-1.176-1.585-1.645-2.716-.79-1.906-.74-2.134.7-3.096 7.7-5.147 62.05-19.456 119.95-31.578 29.28-6.13 84.55-16.394 88.29-16.394 21.3 14.057 63.95 13.84 83.12-3.937l8.29-8.204 7.22-.8c27.71-3.07 60.04-5.665 84.02-6.745 28.17-1.268 69.16-.535 76.59 1.37 5.05 1.295 9.17 8.264 11 18.6 1.01 5.705 2.81 26.71 1.65 35.62-2.59 19.84-3.08 36.466-10.29 37.96l-4.56 1.622-31.29-.102c-15.41-.05-36.58-.34-47.05-.63z" fill="red" transform="matrix(-.333 -.06 -.058 .377 634.3 364.072)"/><path d="M278.05 213.944c-7.776-.924-10.796-4.29-11.66-12.99l-.457-4.614 3.873.292c13.775 1.04 73.86-8.242 85.99-13.28 2.25-.937 3.186 14.776.745 18.734-.86 1.4-7.93 3.515-13.76 5.048-16.72 4.398-32.23 6.587-49.24 6.95-6.68.14-13.64.08-15.48-.14z" fill="#d72d2d" transform="matrix(-.333 -.06 -.058 .377 634.3 364.072)"/><path d="M492.04 175.388s23.206 43.63.927 97.47" fill="none" transform="matrix(-.333 -.06 -.058 .377 634.3 364.072)"/></g><g stroke="#000"><path d="M603.612 452.828c-1.37 3.5 7.45-19.61 7.683-29.29.128-5.33-9.64-20.615-22.22-5.58-5.71 6.825-5.65 15.75-11.95 20.657-2.725 2.12-9.148 1.185-7.95 3.457.692 1.315 34.437 10.756 34.437 10.756z" fill="#4ca790" stroke-width="1.904"/><path d="M601.825 454.457s-12.938 3.258-14.548 3.98c-4.964 2.227-14.164 3.623-26.03-2.4-7.27-3.692.073-5.13 6.478-8.898.61-.36 34.1 7.31 34.1 7.31z" fill="#2b74db" stroke-width="1.664"/></g><path d="M447.567 332.11c-13.708-.648-27.513-7.19-33.852-9.326-14.37-1.608-78.344-61.92-95.586-87.178-3.17-5.875 29.55-16.114 63.4-16.015l38.31.12 44.91 29.46c28.78 18.88 42.38 33.85 51.63 40.46 13.31 9.53 13.21 26.35 2.64 31.77-13.58 6.98-34.44 12.47-71.47 10.72z" fill="red" stroke="#000" stroke-width="5" transform="matrix(-.38 -.04 -.024 .23 651.036 399.428)"/><g fill="#fbff00" stroke="#000"><path d="M505.843 443.71l.555-.297v-23.996c0-23.53-.01-24-.483-24.195-.656-.27-2.098-.25-2.466.03-.23.178-.3 5.83-.3 24.272v24.04l.63.223c.86.3 1.39.28 2.05-.076zm-21.628-2.585c.413-.178.438-1.486.438-23.317 0-22.676-.01-23.132-.484-23.32-.67-.266-2.16-.242-2.46.04-.16.15-.31 8.516-.43 23.294l-.18 23.06.65.223c.79.268 1.85.277 2.44.02z" stroke-width="1.618"/><path d="M491.15 450.862l.625-.26V399.66l-.59-.32c-.718-.386-2.212-.416-2.98-.058l-.554.26v51.22l.79.183c1.08.25 1.97.223 2.71-.084zm-24.994-2.195l.873-.297.06-26.32.06-26.322-.66-.353c-.77-.412-2.27-.468-2.98-.11-.48.236-.49.73-.55 26.694l-.07 26.45.69.18c1.36.35 1.7.36 2.56.07z" stroke-width="1.904"/></g><path d="M487.465 405.218c1.257.092 5.95.073 9.42-1.22 14.164-3.624 68-18.37 66.152-19.5-.91-1.02-5.178-1.62-10.408-2.282-6.19-.785-11.57-1.75-19.59-2.563-6.05-.614-7.12-.69-8.79-.635-2.25.076-5.36.614-7.74 1.337-2.52.764-53.38 11.432-57.91 13.868-2 1.073-7.63 2.93-8.29 3.735-.73.887-.91 1.33-.4 1.942 1.77 2.14 11.4 2.844 27.05 4.662 3.31.385 8.38.598 10.48.656z" fill="red" stroke="#000" stroke-width="1.406"/><g transform="matrix(-.292 -.004 -.004 .292 611.627 365.686)"><path d="M306.818 206.953l1.642-12.784s11.546 2.05 14.02.4c2.472-1.65 4.952 6.59 4.622 7.66-.33 1.07-12.78 5.36-20.284 4.71z" fill="#392215" fill-rule="evenodd" stroke="#392215" stroke-width=".652"/><path d="M324.172 194.968s4.11-4.5 5.352-3.435c1.165 1-2.132 3.038-1.53 3.532.604.495 6.443.538 6.58 1.687.237 1.96-4.413.102-4.17 1.288.163.79 5.956 1.023 5.334 2.914-.47 1.425-5.43-1.87-5.322-.584.042.5 2.87 1.695 2.87 1.695 2.027.686 1.695 2.993-2.848.542-2.286-1.233 2.822 2.35 2.25 3-.826.937-1.654-1.453-6.894-2.74-1.883-.463-1.622-7.9-1.622-7.9z" fill="#d6c173" fill-rule="evenodd" stroke="#3b321c" stroke-width="1.174"/><path d="M320.12 147.647c1.384-.37 3.347-.058 4.334 1.752 1.66 3.04 2.95 7.56 2.858 10.05-.065 1.74-2.305 3.41-2.305 3.41s-2.028-10.7-4.886-15.22z" fill="#725737" fill-rule="evenodd" stroke="#2d2317" stroke-width=".913"/><path d="M308.32 192.55s3.166 10.637 3.93 15.273c0 0-35.576 8.5-38.526 5.364-2.95-3.135 1.932-8.958 4.882-10.986 2.95-2.02 29.713-9.65 29.713-9.65z" fill="#4e3527" fill-rule="evenodd" stroke="#2a1e17" stroke-width="1.174"/><path d="M271.254 193.84c-2.028-5.164-6.823-28.952-4.61-31.35 2.213-2.396 30.016-17.21 41.122-13.276 8.85 3.135 15.49 31.164 10.695 35.59-1.95 1.804-34.66 18.993-47.2 9.035z" fill="#36281e" fill-rule="evenodd" stroke="#36281e" stroke-width=".652"/><path d="M314.59 144.973c7.467-3.227 10.707 14.725 10.694 17.057-.02 3.66-3.135 6.546-3.135 6.546s-4.89-19.915-7.56-23.603z" fill="#3a251b" fill-rule="evenodd" stroke="#3a251b" stroke-width="1.305"/><path d="M303.577 191.227s.917 1.985.532 3.96c-.39 1.975-4.27 4.945-5.4 5.06-1.86.19-4.63.676-5.69 1.41-1.06.734-4.67 4.077-6.4 4.682-1.73.6-7.08 2.82-7.46 6.03-.38 3.21.45 5.56.45 5.56-1.5 1.55-4.16 2.98-6.98 2.73-3.01-.27-6.65 2.42-6.65 2.42-1.14-.7-2.8-3.63-1.97-4.07 4.35-2.29 10.65-2.46 10.65-2.46 1.96-.78-.54-1.4.75-4.66 1.96-4.93 7.95-6.49 8.37-7.61l.74-1.92-11.02 5.66s.26 6.3-1.47 6.9c-1.73.6-11.86 2.01-13.47 1.01-1.61-1-8.62 6.36-11.56 6.46-2.93.1-6.83-3.51-6.83-3.51l5.29-5.53s.82 2.11 2.55 2.37c1.74.26 6.65-1.81 8.11-3.9 1.45-2.09 6.79-.57 9.06-.67 2.27-.11 3.77 2.26 3.74-1.91 0 0 3.12-6.55 3.69-9.15.33-1.52 11.59.14 11.37-4.62 0 0 11 .3 19.54-4.31z" fill="url(#n)" fill-rule="evenodd" stroke="#1d1a14" stroke-width="1.305"/><path d="M281.06 206.825s1.694-4.76 3.78-5.802c2.404-1.202 5.41-1.956 5.28-3.912" fill="none" stroke="#1d1a14" stroke-width="1.305"/><path d="M270.517 166.732s5.493-10.69 33.192-13.46c3.68-.37 10.94 19.74 11.41 28.194.72 13.27-38.66 21.284-38.71 13.547-.09-15.306-5.9-28.28-5.9-28.28z" fill="#d6c173" fill-rule="evenodd" stroke="#d6c173" stroke-width="1.305"/><path d="M317.723 185.173c4.795-7.56-6.85-34.042-10.695-34.483-10.21-1.173-38.91 6.822-39.646 15.49-.47 5.527 8.167 32.778 5.955 36.466-2.213 3.688-12.233 13.764-17.766 10.956-13.15-6.676 4.42-15.13 5.78-19.533 2.34-7.56-12.95-41.19-7.24-52.24 3.54-6.85 26.15-24.94 49.35-14.33 10.17 4.65 20.35 40.7 19.8 47.34-.55 6.64-5.53 10.32-5.53 10.32z" fill="#753d14" fill-rule="evenodd" stroke="#1b1612" stroke-width="3.001"/><path d="M301.71 184.6l-10.594 2.98s-1.346-6.745 3.265-8.565c5.09-2.006 7.33 5.584 7.33 5.584z" fill-rule="evenodd" stroke="#000" stroke-width="1.305"/><path d="M278.446 173.924c.37-4.61 5.348-5.716 8.114-2.582 2.766 3.135-9.405 5.348-8.114 2.582z" fill="#fff" fill-rule="evenodd" stroke="#100906" stroke-width="1.957"/><path d="M297.44 167.47c.368-4.61 5.347-5.716 8.113-2.582 2.766 3.135-9.405 5.348-8.114 2.582z" fill="#fff" fill-rule="evenodd" stroke="#120c09" stroke-width="1.957"/><path d="M259.764 138.52s7.746-5.456 14.44-3.69c3.407.9 4.98 2.95 4.98 2.95l2.397-.92s-2.58-6.455 10.15-10.143c12.73-3.688 14.75 2.213 14.75 2.213s2.22-1.475 3.51.922c1.29 2.397-.55 4.426-.55 4.426s.55 7.745-5.9 10.695c-5.66 2.586-16.31 7.814-20.34-2.552l-1.97.71s2.12 6.83-1.1 9.59c-3.63 3.12-14.38 7.75-17.52 6.64-3.13-1.1-5.3-3.26-5.3-3.26s-2.65 3.28-4.31 2.91c-1.66-.37-2.74-6-1.45-6.92 1.29-.92 2.4-2.49 2.4-2.49s.17-3.44 1.47-6.22c1.29-2.75 4.38-4.84 4.38-4.84z" fill="#2e2111" fill-rule="evenodd" stroke="#2e2111" stroke-width="1.305"/><path d="M252.63 166.456c-2.49 4.15-2.12 9.68.276 13.646 2.398 3.964 7.008 8.574 9.68 7.837 2.675-.74 4.427-3.88 3.136-9.13-1.29-5.26-2.893-12.41-5.07-14.2-1.568-1.29-6.455-1.2-8.022 1.84z" fill="#3a251b" fill-rule="evenodd" stroke="#3a251b" stroke-width="1.305"/><ellipse transform="matrix(.93 -.366 .45 .893 0 0)" ry="1.469" rx="2.267" cy="266.025" cx="175.568" fill="#100906"/><ellipse cx="195.229" cy="266.951" rx="2.267" ry="1.469" transform="matrix(.93 -.366 .45 .893 0 0)" fill="#100906"/><path d="M258.045 148.084c-.26-4.238 9.36-9.548 14.93-8.736 3.13.456 6.17 7.502 3.038 10.874-2.365 2.547-8.95 5.654-12.296 5.1-3.743-.623-5.412-3.457-5.672-7.238z" fill="url(#o)" fill-rule="evenodd"/><path d="M285.722 135.512c.7-4.188 11.27-7.196 16.513-5.15 2.946 1.148 3.738 7.167 1.234 10.014-1.98 2.247-9.78 6.017-13.85 3.464-3.22-2.014-4.5-4.585-3.9-8.328z" fill="url(#p)" fill-rule="evenodd"/><path d="M251.523 168.115c-2.028 1.937-2.06 6.547 1.2 13 2.89 5.727 8.02 4.426 8.48 2.49.597-2.502-.764-9.096-2.396-11.617-2.028-3.135-4.98-4.334-7.284-3.873z" fill="#725737" fill-rule="evenodd" stroke="#2d2317" stroke-width=".913"/></g></g><rect ry="17.51" y="480.105" x="498" height="68.395" width="258" fill="url(#q)" stroke="#716512" stroke-width="3"/><path d="M535.32 529.303v-30H552v3.32h-10v10h6.68v3.36H542v13.32h-6.68zm20.01 0v-30h6.68v26.68h10v3.32h-16.68zm26.693 0v-13.32q-6.68-.8-6.68-6.68v-10h6.68v10q0 1.36.96 2.36 1 .96 2.36.96 1.4 0 2.36-.96 1-1 1-2.36v-10h6.64v10q0 5.88-6.64 6.68v13.32h-6.68zm29.757 0v-23.32q0-2.76 1.96-4.72 2-1.96 4.72-1.96h6.68q2.72 0 4.68 2 1.96 1.96 1.96 4.68v23.32h-6.64v-13.32h-6.68v13.32h-6.68zm6.68-16.68h6.68v-6.64q0-1.4-1-2.36-.96-1-2.36-1-1.36 0-2.36 1-.96.96-.96 2.36v6.64zm26.692 0h10v10q0 3.36-2.12 5.04-2.12 1.64-4.52 1.64h-6.68q-2.72 0-4.72-1.96-1.96-1.96-1.96-4.72v-16.64q0-2.72 1.92-4.68 1.96-2 4.76-2h6.68q6.28 0 6.64 6.68h-3.32q-.4-3.36-3.32-3.36h-3.36q-1.36 0-2.36 1-.96.96-.96 2.36v16.64q0 1.4.96 2.4 1 .96 2.36.96 3.2-.16 3.36-3.36v-6.64h-3.36v-3.36zm13.37 16.68v-23.32q0-2.76 1.96-4.72 2-1.96 4.72-1.96h6.68q2.72 0 4.68 2 1.96 1.96 1.96 4.68v23.32h-6.64v-13.32h-6.68v13.32h-6.68zm6.68-16.68h6.68v-6.64q0-1.4-1-2.36-.96-1-2.36-1-1.36 0-2.36 1-.96.96-.96 2.36v6.64zm20.05 16.68v-30h6.64v30h-6.64zm13.293 0v-30h1.56l18.44 16.68v-16.68h3.36v30h-1.52l-18.48-16.68v16.68h-3.36z" style="-inkscape-font-specification:Silom" font-size="40" font-family="Silom" letter-spacing="-3.27" word-spacing="6.26"/><rect width="258" height="68.395" x="145" y="480.105" ry="17.51" fill="url(#r)" stroke="#716512" stroke-width="3"/><path d="M207.32 512.623h10v10q0 3.36-2.12 5.04-2.12 1.64-4.52 1.64H204q-2.72 0-4.72-1.96-1.96-1.96-1.96-4.72v-16.64q0-2.72 1.92-4.68 1.96-2 4.76-2h6.68q6.28 0 6.64 6.68H214q-.4-3.36-3.32-3.36h-3.36q-1.36 0-2.36 1-.96.96-.96 2.36v16.64q0 1.4.96 2.4 1 .96 2.36.96 3.2-.16 3.36-3.36v-6.64h-3.36v-3.36zm20.05-13.32h6.68q2.72 0 4.68 2 1.96 1.96 1.96 4.68v16.64q0 2.72-1.96 4.72-1.96 1.96-4.68 1.96h-6.68q-2.72 0-4.72-1.96-1.96-1.96-1.96-4.72v-16.64q0-2.76 1.96-4.72 2-1.96 4.72-1.96zm0 6.68v16.64q0 1.36.96 2.36 1 1 2.36 1 1.4 0 2.36-1 1-1 1-2.36v-16.64q0-1.4-1-2.36-.96-1-2.36-1-1.36 0-2.36 1-.96.96-.96 2.36zm29.68 23.32v-30h13.36q2.72 0 4.68 2 1.96 1.96 1.96 4.68v1.64q0 2.96-1.68 4.64-1.64 1.64-4.96 2.04 3.32 0 4.96 2.04 1.68 2 1.68 4.64v1.64q0 2.72-1.96 4.72-1.96 1.96-4.68 1.96h-13.36zm6.68-16.68h3.32q1.4 0 2.36-.96 1-1 1-2.36v-3.32q0-1.4-1-2.36-.96-1-2.36-1h-3.32v10zm0 13.36h3.32q1.4 0 2.36-1 1-1 1-2.36v-3.32q0-3.32-3.36-3.32h-3.32v10zm16.692 3.32v-23.32q0-2.76 1.96-4.72 2-1.96 4.72-1.96h6.68q2.72 0 4.68 2 1.96 1.96 1.96 4.68v23.32h-6.64v-13.32h-6.68v13.32h-6.68zm6.68-16.68h6.68v-6.64q0-1.4-1-2.36-.96-1-2.36-1-1.36 0-2.36 1-.96.96-.96 2.36v6.64zm36.69 10q-.4 6.68-6.64 6.68h-6.68q-2.72 0-4.72-1.96-1.96-1.96-1.96-4.72v-16.64q0-2.72 1.92-4.68 1.96-2 4.76-2h6.68q6.28 0 6.64 6.68h-3.32q-.4-3.36-3.32-3.36h-3.36q-1.36 0-2.36 1-.96.96-.96 2.36v16.64q0 1.36.96 2.36 1 1 2.36 1h3.36q2.96 0 3.32-3.36h3.32zm3.37 6.68v-30h6.68v12.24l10.8-12.24h5.88l-13.36 15 13.36 15h-6.68l-10-11.68v11.68h-6.68z" style="-inkscape-font-specification:Silom" font-size="40" font-family="Silom" letter-spacing="-3.27" word-spacing="6.26"/><rect ry="17.51" y="349.105" x="282" height="68.395" width="133" fill="url(#s)" stroke="#3d6783" stroke-width="3"/><path d="M273.18 395v-19.688h8.766q1.785 0 3.07 1.313 1.288 1.286 1.288 3.07v1.078q0 1.942-1.103 3.045-1.07 1.076-3.25 1.338 2.18 0 3.26 1.34 1.11 1.312 1.11 3.044v1.076q0 1.785-1.28 3.098-1.29 1.286-3.07 1.286h-8.77zm4.382-10.946h2.18q.918 0 1.548-.63.656-.656.656-1.55v-2.178q0-.92-.656-1.55-.63-.655-1.55-.655h-2.178v6.57zm0 8.767h2.18q.918 0 1.548-.65.656-.65.656-1.55v-2.18q0-2.18-2.205-2.18h-2.17v6.56zm11.39 2.18v-19.68h10.946v2.18h-6.563v6.57h4.384v2.21h-4.39v6.56h6.56V395h-10.94zm24.514-15.3h-2.18q-.287-2.2-2.072-2.2-1.155 0-1.733.56-.57.55-.57 1.66 0 .82.63 1.55l4.65 5.2q1.29 1.44 1.29 3.1v1.08q0 1.79-1.28 3.1-1.28 1.29-3.09 1.29h-2.18q-2.18 0-3.28-1.07-1.1-1.1-1.1-3.31h2.21v.37q0 .89.69 1.36.69.47 1.5.47 1.15 0 1.65-.55.52-.57.52-1.65 0-.84-.63-1.55l-4.64-5.19q-1.28-1.42-1.28-3.1v-1.08q0-1.78 1.29-3.07 1.29-1.31 3.1-1.31h2.18q4.13 0 4.39 4.38zm4.776 15.3v-17.51h-4.384v-2.17h13.125v2.18H322.6V395h-4.358z" style="-inkscape-font-specification:Silom" transform="translate(50 -20.697)" font-size="26.25" font-family="Silom" letter-spacing="-1.71" word-spacing="0" filter="url(#t)" fill="#f2f153"/><path d="M811.09 291.377c-10.938-1.937-21.267-10.58-27.035-22.62-1.23-2.568-1.832-3.383-1.832-2.49 0 .61 2.5 5.567 3.86 7.65.726 1.114 1.32 2.153 1.32 2.306 0 .154-1.24.882-2.758 1.62-7.723 3.76-14.91 2.733-20.606-2.94l-1.93-1.918 2.6-2.74c2.62-2.755 4.39-5.29 4.16-5.96-.07-.2-.68.488-1.37 1.527-.69 1.04-2.51 3.127-4.05 4.643-4.86 4.762-10.69 7.106-17.67 7.1-5.22-.006-10.72-1.226-14.81-3.28-2.27-1.14-6.02-4.602-7.78-7.174-2.92-4.29-4.8-9.64-5.26-15.03-.39-4.42 1.05-11.02 3.31-15.2.44-.82.75-1.68.67-1.91-.18-.53-1.9 2.57-2.79 5.03-.89 2.44-1.67 5.81-1.68 7.19l-.01 1.06-1.7-.2c-7.68-.91-12.91-4.12-15.71-9.66-2.15-4.23-2.41-10.9-.58-14.87.93-2.01 3.57-4.92 5.5-6.04 2.64-1.54 5.29-2.22 8.61-2.22 1.69.01 3.49.18 4.01.38.51.21 1.01.3 1.11.2.39-.38-.57-.83-2.18-1.02-1.07-.12-1.78-.38-1.89-.68-.29-.75.47-4.98 1.35-7.49 1.83-5.24 4.55-8.29 8.84-9.93 6.53-2.49 13.07-2 20.09 1.53 1.1.56 2 1.06 2 1.11 0 .06-.35.96-.78 2.01-.91 2.23-1.81 6.31-1.81 8.18 0 2.24.54 1.43.76-1.14.23-2.77 1.71-7.5 2.99-9.56 2.5-4.02 6.62-6.37 11.14-6.37 3.58 0 9.43 2.02 13.18 4.53.8.54 1.55.89 1.66.78.39-.39-1.68-1.81-4.85-3.31l-3.17-1.53-.01-3.75c-.01-5.44 1.37-11.76 3.47-15.91 5.97-11.78 17.78-17.97 34.39-18.02 4.87-.02 6.05.08 8.38.7 5.45 1.45 11.46 5 15.47 9.14 4.43 4.59 9.12 12.39 11.4 18.96l.94 2.72-2.63 1.87c-2.87 2.03-5.64 4.65-5.29 5 .12.12.98-.5 1.92-1.38 5.06-4.75 12.25-8.19 17.05-8.17 6.79.02 13.83 4.67 15.96 10.54.94 2.58.92 6.58-.055 9.44-.86 2.53-3.2 7.01-4.54 8.7-.94 1.18-1.23 1.95-.73 1.93.34-.02 2.08-2.43 3.29-4.58l1.03-1.82 1.76.6c11.07 3.79 16.85 13.12 14.91 24.05-2.05 11.57-7.42 17.56-17.93 20.01-4.42 1.04-17.05.56-17.37-.653-.4-1.53-2.85-8.85-3.09-9.224-.16-.26-.4-.377-.52-.256-.12.122.31 1.64.95 3.374 6.3 16.884 2.61 31.44-10.04 39.65-3.33 2.163-7.49 4.043-10.99 4.97-2.92.78-9.84 1.1-12.69.59z" fill="#fff"/><path d="M138.926 219.32s-.05-36.588 26.3-43.796c21.377-5.847 44.612 12.068 44.612 12.068m-144.16 41.264s.52-32.795 21.818-42.82c30.798-14.498 58.444 5.45 58.444 5.45M74.054 310.41s-46.224 1.352-47.534-43.795c-.975-33.598 33.508-42.043 50.067-35.425M197.37 348.756s-23.936 49.877-86.496 27.25c-27.2-9.837-51.43-56.057-26.495-98.1m159.16 99.852s-35.46 27.64-63.9-8.76m198.51-71.628s37.08 74.04-29.61 109c-47.15 24.718-95.85 0-118.45-52.94m201.05-140.92s59.6 12.793 37.4 76.3c-17.15 49.05-82.6 32.31-82.6 32.31M349.9 177.864s38.38-43.21 74.224-12.845c29.984 25.4-3.118 63.06-3.118 63.06m-231.047-50.8s-12.26-90.06 90.59-93.24c69.39-2.15 89.42 78.24 89.42 78.24m-127.4 114.06s10.91-35.48 64.67-34.26c34.28.78 51.43 21.8 51.43 21.8s9.35-30.37 23.38-30.37" fill="none" stroke="#000" stroke-width="7.233" transform="matrix(.415 0 0 .414 686.828 119.873)"/><path d="M330.02 119.82c-9.156-1.618-17.803-8.846-22.632-18.915-1.03-2.148-1.534-2.83-1.534-2.082 0 .51 2.094 4.655 3.23 6.397.61.93 1.106 1.8 1.106 1.93 0 .127-1.038.736-2.308 1.353-6.466 3.144-12.483 2.285-17.25-2.46l-1.612-1.603 2.18-2.292c2.195-2.303 3.676-4.423 3.488-4.984-.056-.166-.57.41-1.144 1.278-.573.87-2.1 2.615-3.39 3.882-4.067 3.983-8.95 5.943-14.79 5.938-4.366-.005-8.974-1.025-12.4-2.744-1.9-.952-5.04-3.847-6.507-5.998-2.45-3.588-4.017-8.064-4.407-12.572-.32-3.7.883-9.22 2.772-12.717.372-.69.626-1.4.563-1.59-.15-.44-1.59 2.15-2.336 4.2-.74 2.04-1.4 4.86-1.41 6.01l-.01.89-1.42-.17c-6.43-.76-10.81-3.45-13.15-8.07-1.8-3.54-2.02-9.11-.49-12.44.77-1.68 2.98-4.11 4.6-5.05 2.21-1.29 4.42-1.86 7.2-1.86 1.41 0 2.93.15 3.36.32.43.17.84.25.93.17.32-.32-.48-.7-1.83-.86-.89-.11-1.48-.32-1.58-.57-.24-.63.4-4.16 1.13-6.26 1.54-4.38 3.81-6.93 7.4-8.3 5.46-2.09 10.94-1.67 16.81 1.28.92.47 1.68.88 1.68.93 0 .05-.3.81-.66 1.69-.76 1.86-1.52 5.28-1.52 6.85 0 1.87.45 1.19.63-.96.2-2.32 1.44-6.28 2.5-7.99 2.09-3.36 5.54-5.33 9.33-5.33 3 0 7.89 1.68 11.03 3.79.67.45 1.3.74 1.39.65.33-.33-1.41-1.52-4.06-2.77l-2.67-1.27-.01-3.14c-.01-4.55 1.15-9.84 2.91-13.31 5-9.85 14.89-15.03 28.79-15.07 4.07-.01 5.06.07 7.01.59 4.56 1.21 9.6 4.18 12.95 7.65 3.71 3.83 7.64 10.36 9.54 15.85l.79 2.27-2.21 1.57c-2.4 1.7-4.72 3.89-4.43 4.18.1.1.83-.42 1.61-1.15 4.24-3.97 10.26-6.85 14.272-6.84 5.683.02 11.58 3.91 13.364 8.82.79 2.16.77 5.51-.046 7.89-.72 2.12-2.685 5.87-3.81 7.28-.79.99-1.035 1.63-.61 1.61.29-.01 1.74-2.03 2.76-3.82l.86-1.52 1.474.51c9.26 3.17 14.1 10.97 12.472 20.11-1.72 9.673-6.21 14.68-15.01 16.734-3.7.87-14.27.47-14.54-.55-.336-1.28-2.386-7.4-2.58-7.71-.14-.22-.33-.316-.438-.21-.1.1.26 1.37.8 2.82 5.27 14.12 2.18 26.29-8.407 33.16-2.79 1.81-6.27 3.38-9.21 4.16-2.442.644-8.24.91-10.63.49z" fill="#fff"/><path d="M138.926 219.32s-.05-36.588 26.3-43.796c21.377-5.847 44.612 12.068 44.612 12.068m-144.16 41.264s.52-32.795 21.818-42.82c30.798-14.498 58.444 5.45 58.444 5.45M74.054 310.41s-46.224 1.352-47.534-43.795c-.975-33.598 33.508-42.043 50.067-35.425M197.37 348.756s-23.936 49.877-86.496 27.25c-27.2-9.837-51.43-56.057-26.495-98.1m159.16 99.852s-35.46 27.64-63.9-8.76m198.51-71.628s37.08 74.04-29.61 109c-47.15 24.718-95.85 0-118.45-52.94m201.05-140.92s59.6 12.793 37.4 76.3c-17.15 49.05-82.6 32.31-82.6 32.31M349.9 177.864s38.38-43.21 74.224-12.845c29.984 25.4-3.118 63.06-3.118 63.06m-231.047-50.8s-12.26-90.06 90.59-93.24c69.39-2.15 89.42 78.24 89.42 78.24m-127.4 114.06s10.91-35.48 64.67-34.26c34.28.78 51.43 21.8 51.43 21.8s9.35-30.37 23.38-30.37" fill="none" stroke="#000" stroke-width="8.644" transform="matrix(.348 0 0 .346 225.993 -23.603)"/><path d="M754.95 125.7c-12.347-2.594-22.366-11.383-29.57-25.94-1.114-2.25-2.15-4.092-2.304-4.092-.436 0 .043 1.226 1.98 5.07l1.795 3.56-1.33 2.02c-2.93 4.45-8.11 8.06-12.53 8.73-7.6 1.156-15.48-4.033-18.9-12.46-.51-1.27-.5-1.38.24-2.7.43-.756 1.01-2.273 1.3-3.37.59-2.238.71-6.886.19-6.886-.19 0-.34 1.037-.34 2.43-.01 7.405-4.61 13.068-11.66 14.368-6.16 1.137-11.09-1.628-14.27-7.994-1.22-2.457-1.28-2.71-1.27-5.936.01-4.214.7-5.813 3.8-8.786 1.19-1.135 2.01-2.155 1.83-2.267-.18-.112-1.29.703-2.46 1.81-1.18 1.108-2.22 2.013-2.32 2.013-.36 0-2.93-2.856-3.65-4.043-1.64-2.736-2.15-7.005-1.25-10.368 1.35-5.01 6.26-8.06 11.45-7.11 5.03.92 8.12 3.92 8.58 8.31.22 2.09.77 2.43.77.47 0-3.09-2.39-6.94-5.02-8.09-.58-.26-1.06-.6-1.06-.75 0-.65 6.11-6.26 8.45-7.76 6.17-3.96 10.97-5.54 17.6-5.8 6.67-.26 12.36 1.27 17.12 4.59 4.72 3.28 8.17 8.54 9.65 14.68.79 3.24 1.51 4.24 1.1 1.51-.39-2.61-1.77-6.46-3.27-9.14-1.74-3.12-5.74-7.17-8.63-8.75-1.97-1.08-2.08-1.2-1.89-2.15 1.12-5.61 6.23-8.89 13.86-8.89 3.67 0 7.77 1.14 9.51 2.63l1.03.88-.97 2.85c-.98 2.85-1.69 7.12-1.69 10.13 0 2.91.57 1.66.8-1.74.47-7.14 2.55-12.29 6.63-16.44 6.21-6.31 15.86-8.48 26.18-5.89 11.18 2.81 20.817 11.6 23.53 21.46.61 2.22.71 3.27.57 6.2-.25 5.46-1.98 9.23-6.37 13.9-1.33 1.41-2.31 2.68-2.17 2.81.138.13 1.42-.99 2.86-2.49 2.86-2.98 5.01-6.62 5.89-9.96.28-1.08.58-2.03.67-2.11.25-.25 4.26 1.47 6.01 2.58 3.84 2.44 7.32 7.33 8.61 12.08.69 2.55.79 8.44.18 10.7-2.383 8.77-8.08 13.83-15.42 13.7-3.03-.06-4.07-.35-3.973-1.14.575-4.72.787-7.9.605-9.1-.385-2.56-.68-1.57-.744 2.48-.24 15.53-9.36 25.74-26.47 29.63-3.77.85-10.27 1.09-13.18.48z" fill="#fff"/><path d="M188.624 167.172c3.904-37.984 59.044-36.985 75.146-19.992M69.562 202.657c26.838-34.486 64.795-45.995 94.176-41.982 36.597 4.997 60.996 27.988 67.34 66.97M43.21 268.13c-25.374-14.994-25.056-65.25 11.223-67.472 7.893-.484 34.157 2 34.645 31.486m32.206 47.48c4.88 40.484-29.093 55.884-52.212 50.98-22.828-4.844-49.772-50.48-12.2-74.97m157.814 67.62c-28.3 50.977-83.643 41.335-101.21-9.644m301.56-27.988c4.88 73.97-49.772 96.96-89.785 102.957-39.63 5.94-91.73-16-122.96-90.97m223.49-95.96c77.1 19.99 55.14 135.94-13.17 117.95M255.97 190.66c-2.928-57.98 40.013-88.967 94.664-77.97 54.65 10.996 111.253 79.966 49.77 133.944" fill="none" stroke="#000" stroke-width="8.912" transform="matrix(.338 0 0 .335 654.706 -4.05)"/><path d="M115.023 156.21c-3-.433-7.494-2.56-9.488-4.49-1.636-1.586-3.26-4.322-3.744-6.314-.24-1.007-.2-1.05.82-.806.6.142 1.48.405 1.97.584 1.04.38 6.19.43 8.31.082.8-.134 1.46-.456 1.46-.725 0-.37-.37-.39-1.64-.1-.9.21-3.16.31-5 .23-2.91-.13-3.73-.33-6.2-1.54-1.56-.77-3.79-2.22-4.94-3.23-2.62-2.28-6.15-6.96-7.6-10.04-.6-1.29-1.23-2.34-1.41-2.34-1.5 0 3.63 8.43 7.2 11.85l1.37 1.31-1.25 2.32c-1.66 3.12-5.67 7-9.03 8.73-3.93 2.04-6.75 2.76-10.82 2.74-5.69-.02-9.86-2.12-12.75-6.43-.79-1.17-1.51-2.13-1.6-2.13-.51 0-.02 1.3 1.16 3.03l1.33 1.96-1.62.93c-4.38 2.52-9.66 3.19-13.59 1.74-6.41-2.37-10.22-10.73-8.25-18.11.42-1.58.46-2.18.14-2.08-.6.19-1.35 3.08-1.39 5.31l-.03 1.77-2.23.97c-2.82 1.23-5.17 1.56-7.72 1.08-10.02-1.88-16.13-13.43-12.72-24.08.96-2.99 2.99-6.34 5.38-8.85 2.51-2.64 7.66-5.78 12.72-7.75 4.6-1.79 14.86-3.78 19.6-3.79 1.12 0 2.04-.18 2.04-.39 0-.5-2.82-.49-7.05.05-1.89.24-3.55.32-3.7.17-.15-.15.31-1.37 1.02-2.73 3.28-6.26 12.32-11.31 22.36-12.48 8.75-1.02 16.11 2.15 17.74 7.63l.6 2.03-1.34 2.41c-1.44 2.59-1.55 2.93-.96 2.93.21 0 .8-.82 1.32-1.82 1.48-2.89 5.58-8.36 8.39-11.2 11.39-11.54 26.47-14.33 37.73-7 4.75 3.1 7.51 7.89 7.9 13.7l.2 3.08-2.28.47c-2.43.51-3.58 1.03-3.16 1.45.144.14 1.085-.02 2.094-.36 2.79-.94 6.98-.81 10 .31 2.83 1.06 6.16 3.07 7.56 4.58.52.56 1.2 1.01 1.53 1.01.7 0-1.93-2.8-3.5-3.73l-1.03-.61 1.42-2.26c1.91-3.06 6.81-7.64 9.73-9.1 9.45-4.72 19.49-1.76 23.83 7.03 3.38 6.848 2.47 14.95-2.77 24.78-4.93 9.247-10.94 15.338-17.255 17.49-3.61 1.23-10.3.84-12.466-.72-.66-.48-.65-.63.11-3.55 1.283-4.95 1.98-10.91 1.272-10.91-.165 0-.514 1.78-.775 3.946-1.11 9.26-4.47 16.51-10.35 22.32-7.593 7.51-18.44 11.2-28.582 9.73z" fill="#fff"/><path d="M102.15 206.737c8.084-44.27 106.877-62.34 110.47-15.36M88.68 316.962C25.81 354.005-30.773 212.16 130.89 204.027m23.352 139.136c-44.008 29.815-75.443-9.035-62.87-45.174m146.395 18.97c-15.268 39.75-75.442 52.4-92.507 14.45m138.312-4.52c-46.703 13.55-69.156-43.37-69.156-43.37m173.338-19.88c-1.796 104.8-130.228 121.06-138.31 61.43m127.533-121.06c36.823-70.47 130.886-32.01 85.32 54.21-37.72 71.37-81.728 42.46-81.728 42.46M335.66 200.4c30.53-12.648 53.88 14.456 53.88 14.456m-184.12-10.84c52.09-99.388 153.58-66.86 143.7-6.33m-217.56 38.087c-23.056 23.383-5.32 41.424 33.684 46.64" fill="none" stroke="#000" stroke-width="7.784" transform="matrix(.388 0 0 .383 4.36 19.237)"/></svg>