<svg xmlns="http://www.w3.org/2000/svg" xmlns:xlink="http://www.w3.org/1999/xlink" width="150" height="150" viewBox="0 0 150 150"><defs><linearGradient id="b"><stop offset="0" stop-color="#c47e00"/><stop offset="1" stop-color="#d7d458"/></linearGradient><linearGradient id="a"><stop offset="0" stop-color="#90aed7"/><stop offset="1" stop-color="#2b74db"/></linearGradient><radialGradient xlink:href="#a" id="c" cx="75.5" cy="978.862" fx="75.5" fy="978.862" r="67.5" gradientUnits="userSpaceOnUse" gradientTransform="translate(-2.178 -23.252) scale(1.02222)"/><filter id="d" color-interpolation-filters="sRGB"><feFlood flood-opacity=".498" flood-color="#000" result="flood"/><feComposite in="flood" in2="SourceGraphic" operator="out" result="composite1"/><feGaussianBlur in="composite1" stdDeviation="4" result="blur"/><feOffset dx="2" dy="2" result="offset"/><feComposite in="offset" in2="SourceGraphic" operator="in" result="composite2"/></filter><linearGradient xlink:href="#b" id="e" x1="73.208" y1="9.965" x2="78.286" y2="12.797" gradientUnits="userSpaceOnUse"/><linearGradient xlink:href="#b" id="f" gradientUnits="userSpaceOnUse" x1="73.652" y1="10.966" x2="76.616" y2="8.625"/><linearGradient xlink:href="#b" id="g" gradientUnits="userSpaceOnUse" x1="72.972" y1="12.443" x2="75.806" y2="8.785"/><linearGradient xlink:href="#b" id="h" gradientUnits="userSpaceOnUse" x1="73.652" y1="9.432" x2="76.616" y2="13.109"/><linearGradient xlink:href="#b" id="i" gradientUnits="userSpaceOnUse" x1="74.091" y1="9.328" x2="76.485" y2="13.213"/><linearGradient xlink:href="#b" id="j" gradientUnits="userSpaceOnUse" x1="70.094" y1="10.992" x2="77.484" y2="11.134"/><linearGradient xlink:href="#b" id="k" gradientUnits="userSpaceOnUse" x1="76.09" y1="12.447" x2="74.486" y2="9.055"/><linearGradient xlink:href="#b" id="l" gradientUnits="userSpaceOnUse" x1="79.087" y1="10.576" x2="71.739" y2="11.03"/></defs><circle cx="75" cy="977.362" r="69" fill="url(#c)" stroke="#1b498a" stroke-width="2" stroke-linecap="round" stroke-linejoin="round" transform="translate(0 -902.362)"/><circle cx="75" cy="75" r="59.5" fill="#4f5fa4" stroke="#1e2553" stroke-linecap="round" stroke-linejoin="round" filter="url(#d)"/><g stroke="#4c360d" stroke-linecap="round" stroke-linejoin="round"><path d="M74.625 4.875l2.598 4.5 2.598 4.5H69.43l2.597-4.5z" transform="matrix(1.05848 0 0 1.05928 -3.99 -.822)" fill="url(#e)" stroke-width=".472"/><path transform="matrix(1.05848 0 0 -1.05928 -3.99 151.268)" d="M74.625 4.875l2.598 4.5 2.598 4.5H69.43l2.597-4.5z" fill="url(#f)" stroke-width=".472"/><path transform="matrix(0 1.05848 -1.05928 0 150.87 -3.94)" d="M74.625 4.875l2.598 4.5 2.598 4.5H69.43l2.597-4.5z" fill="url(#g)" stroke-width=".472"/><path d="M74.625 4.875l2.598 4.5 2.598 4.5H69.43l2.597-4.5z" transform="matrix(0 1.05848 1.05928 0 -1.22 -3.94)" fill="url(#h)" stroke-width=".472"/><path transform="rotate(-45 53.263 15.355) scale(.35383 .8503)" d="M74.625 4.875l2.598 4.5 2.598 4.5H69.43l2.597-4.5z" fill="url(#i)" stroke-width=".912"/><path d="M74.625 4.875l2.598 4.5 2.598 4.5H69.43l2.597-4.5z" transform="rotate(45 48.142 132.674) scale(.35383 .8503)" fill="url(#j)" stroke-width=".912"/><path d="M74.625 4.875l2.598 4.5 2.598 4.5H69.43l2.597-4.5z" transform="rotate(135 50.263 84.08) scale(.35383 .8503)" fill="url(#k)" stroke-width=".912"/><path transform="rotate(-135 51.14 63.95) scale(.35383 .8503)" d="M74.625 4.875l2.598 4.5 2.598 4.5H69.43l2.597-4.5z" fill="url(#l)" stroke-width=".912"/></g></svg>