<svg xmlns="http://www.w3.org/2000/svg" xmlns:xlink="http://www.w3.org/1999/xlink" width="50" height="300" viewBox="0 0 50 300"><defs><linearGradient id="b"><stop offset="0" stop-color="#31a8fd"/><stop offset="1" stop-color="#9ecffa"/></linearGradient><linearGradient id="a"><stop offset="0" stop-color="#c47e00"/><stop offset="1" stop-color="#d7d458"/></linearGradient><linearGradient xlink:href="#a" id="f" x1="73.208" y1="9.965" x2="78.286" y2="12.797" gradientUnits="userSpaceOnUse"/><filter id="c" color-interpolation-filters="sRGB"><feFlood flood-opacity=".498" flood-color="#000" result="flood"/><feComposite in="flood" in2="SourceGraphic" operator="out" result="composite1"/><feGaussianBlur in="composite1" stdDeviation="2.3" result="blur"/><feOffset dx="1.1" dy="1.1" result="offset"/><feComposite in="offset" in2="SourceGraphic" operator="in" result="composite2"/></filter><linearGradient xlink:href="#a" id="g" gradientUnits="userSpaceOnUse" x1="72.192" y1="12.82" x2="76.661" y2="8.718"/><radialGradient xlink:href="#a" id="n" cx="26.428" cy="-127.451" fx="26.428" fy="-127.451" r="4.094" gradientUnits="userSpaceOnUse" gradientTransform="matrix(1.4786 0 0 1.4784 -45.182 59.68)"/><linearGradient xlink:href="#a" id="h" gradientUnits="userSpaceOnUse" x1="73.208" y1="9.965" x2="78.286" y2="12.797"/><linearGradient xlink:href="#a" id="i" gradientUnits="userSpaceOnUse" x1="73.208" y1="9.965" x2="78.286" y2="12.797"/><linearGradient xlink:href="#a" id="j" gradientUnits="userSpaceOnUse" x1="73.208" y1="9.965" x2="78.286" y2="12.797"/><linearGradient xlink:href="#a" id="k" gradientUnits="userSpaceOnUse" x1="73.208" y1="9.965" x2="78.286" y2="12.797"/><linearGradient xlink:href="#a" id="l" gradientUnits="userSpaceOnUse" x1="73.208" y1="9.965" x2="78.286" y2="12.797"/><linearGradient xlink:href="#a" id="m" gradientUnits="userSpaceOnUse" x1="73.208" y1="9.965" x2="78.286" y2="12.797"/><linearGradient xlink:href="#a" id="e" x1="20.53" y1="277.056" x2="32.907" y2="282.846" gradientUnits="userSpaceOnUse" gradientTransform="translate(.16 -150)"/><linearGradient xlink:href="#b" id="d" x1="14.25" y1="240.75" x2="35.75" y2="240.75" gradientUnits="userSpaceOnUse" gradientTransform="matrix(1.0113 0 0 1 -.158 .25)"/></defs><rect width="32" height="282.843" x="9" y="9.379" rx="0" ry="14.849" fill="#2b74db" stroke="#1b498a" stroke-width="2" stroke-linecap="round" stroke-linejoin="round"/><rect ry="10.556" rx="0" y="13.879" x="14.192" height="273.343" width="21.113" transform="matrix(.9488 0 0 .9888 1.538 1.932)" fill="#2b74db" stroke="#1b498a" stroke-width="2.065" stroke-linecap="round" stroke-linejoin="round" filter="url(#c)"/><path d="M35.995 272v4.25c0 5.955-4.85 10.75-10.87 10.75C19.1 287 14 282.202 14 276.25V272z" fill="url(#d)"/><g transform="translate(0 150)"><path d="M22.632 132.54c-.175-.077-.442-.312-.6-.528l-.122-.17.132-.11c.225-.19.538-.663.505-.764-.045-.142-.21-.113-.308.054-.12.2-.46.55-.67.7-.3.203-.7.318-1.04.295-.16-.01-.35-.052-.43-.092-.31-.158-.54-.488-.61-.876-.03-.16-.03-.17.21-.3.29-.17.39-.3.33-.41-.06-.11-.12-.1-.29.03-.52.39-1.08.37-1.5-.05-.34-.34-.46-.89-.27-1.28.16-.34.59-.66 1.09-.82.14-.05.16-.08.15-.18-.018-.11-.03-.12-.17-.11-.09 0-.3.08-.47.16-.17.08-.32.14-.33.12-.016-.01-.02-.19-.02-.39.01-.61.29-1.13.74-1.367.272-.143.682-.13.99.03.24.12.625.444.625.52 0 .09.184.473.24.494.03.01.09 0 .13-.03.07-.05.07-.08-.04-.39-.17-.49-.166-.9.02-1.266.24-.48.63-.7 1.19-.66.173.01.39.065.53.13l.23.105.01.4c.01.49.157.916.32.94.15.02.166-.09.056-.434-.42-1.295.83-2.51 2.26-2.207.493.11.91.434 1.1.87.13.293.16.983.063 1.4-.13.55-.44 1.06-.78 1.264-.19.12-.237.182-.197.29.06.16.384.01.68-.327.226-.26.503-.83.576-1.19l.06-.27.31-.095c.6-.18 1.165-.087 1.513.25.27.26.34.453.34.892 0 .35-.015.4-.17.72-.18.353-.185.47-.03.47.11 0 .32-.31.4-.6.055-.185.078-.207.3-.29.32-.125.79-.136 1.07-.028.23.09.5.35.597.59.14.33.04 1.01-.203 1.41-.107.17-.113.31-.015.35.1.04.2-.068.344-.37l.13-.268.174.1c.217.12.485.42.61.67.3.616.16 1.43-.33 1.9-.28.27-.51.354-.92.33-.37-.026-.717-.18-1.064-.49l-.21-.188.07-.265c.09-.35.09-.627-.003-.66-.11-.046-.18.043-.21.285-.05.355-.19.68-.413.925-.59.656-1.47.574-2.03-.185l-.16-.22.098-.23c.11-.267.207-.78.166-.884-.03-.08-.183-.1-.23-.03-.012.03-.044.17-.07.32-.09.58-.482 1.18-.9 1.38-.094.05-.29.1-.43.11-.37.03-.59-.07-.892-.393l-.248-.27.01-.293c.015-.29.014-.294-.11-.31-.064-.01-.12-.01-.12 0-.12 1.1-.684 1.808-1.43 1.804-.148 0-.33-.03-.405-.06z" fill="url(#e)"/><path d="M74.625 4.875l2.598 4.5 2.598 4.5H69.43l2.597-4.5z" transform="matrix(.6154 0 0 .613 -20.93 -145.37)" fill="url(#f)" stroke="#4c360d" stroke-width=".814" stroke-linecap="round" stroke-linejoin="round"/><path transform="matrix(.6154 0 0 -.613 -20.93 146.864)" d="M74.625 4.875l2.598 4.5 2.598 4.5H69.43l2.597-4.5z" fill="url(#g)" stroke="#4c360d" stroke-width=".814" stroke-linecap="round" stroke-linejoin="round"/><path transform="matrix(.4352 .109 -.1073 .4282 -4.65 -144.31)" d="M74.625 4.875l2.598 4.5 2.598 4.5H69.43l2.597-4.5z" fill="url(#h)" stroke="#4c360d" stroke-width="1.123" stroke-linecap="round" stroke-linejoin="round"/><path d="M74.625 4.875l2.598 4.5 2.598 4.5H69.43l2.597-4.5z" transform="matrix(.4352 .109 .1073 -.4282 -9.568 -124.684)" fill="url(#i)" stroke="#4c360d" stroke-width="1.123" stroke-linecap="round" stroke-linejoin="round"/><path d="M74.625 4.875l2.598 4.5 2.598 4.5H69.43l2.597-4.5z" transform="matrix(.1273 .43 -.4234 .1253 25.585 -161.318)" fill="url(#j)" stroke="#4c360d" stroke-width="1.123" stroke-linecap="round" stroke-linejoin="round"/><path transform="matrix(.1273 .43 .4234 -.1253 6.18 -155.575)" d="M74.625 4.875l2.598 4.5 2.598 4.5H69.43l2.597-4.5z" fill="url(#k)" stroke="#4c360d" stroke-width="1.123" stroke-linecap="round" stroke-linejoin="round"/><path transform="matrix(-.3104 .324 -.3188 -.3054 55.852 -143.496)" d="M74.625 4.875l2.598 4.5 2.598 4.5H69.43l2.597-4.5z" fill="url(#l)" stroke="#4c360d" stroke-width="1.123" stroke-linecap="round" stroke-linejoin="round"/><path d="M74.625 4.875l2.598 4.5 2.598 4.5H69.43l2.597-4.5z" transform="matrix(-.3104 .324 .3188 .3054 41.24 -157.495)" fill="url(#m)" stroke="#4c360d" stroke-width="1.123" stroke-linecap="round" stroke-linejoin="round"/><ellipse cx="-6.105" cy="-128.743" transform="rotate(14.06) skewX(-.005)" rx="4.574" ry="4.574" fill="url(#n)" stroke="#4c360d" stroke-width=".5" stroke-linecap="round" stroke-linejoin="round"/><path d="M19.933 130.417c-1.596 1.46-3.562-1.562-.804-2.348m3.29 2.94c-.88 1.56-3.03 1.64-3.1-.26m5.26.16c-.12 1.78-1.94 2.61-2.83.93m5.58-1.5c-.12 1.78-1.94 2.66-2.83.98m5.45-.61c-.12 1.78-2.03 2.35-2.92.67m4.65-2.37c2.37 1.11.44 5-1.91 2.52m-.28-4.1c1.62-.76 2.81.65 1.76 2.24M27.07 126c1.623-.758 3.035.65 1.99 2.236m-5.798-1.64c-.69-1.31.435-2.624 1.685-2.687 2.772-.14 2.25 3.31.94 3.94m-4.99-.47c-.8-1.6.566-3.05 2.18-2.05m-4.94 3.08c-.375-1.75 1.18-2.99 2.49-1.62" fill="none" stroke="#4c360d" stroke-width=".5" stroke-linecap="round"/></g></svg>