<svg xmlns="http://www.w3.org/2000/svg" xmlns:xlink="http://www.w3.org/1999/xlink" width="300" height="200" viewBox="0 0 300 200"><defs><linearGradient id="a"><stop offset="0" stop-color="#fff58d"/><stop offset="1" stop-color="#ffc32b"/></linearGradient><radialGradient xlink:href="#a" id="b" cx="77.455" cy="980.925" fx="77.455" fy="980.925" r="7.007" gradientUnits="userSpaceOnUse" gradientTransform="matrix(1.2 0 0 1.2 15.1 -200.1)"/><radialGradient xlink:href="#a" id="e" gradientUnits="userSpaceOnUse" gradientTransform="matrix(1.2 0 0 1.2 35.7 -191.1)" cx="77.455" cy="980.925" fx="77.455" fy="980.925" r="7.007"/><radialGradient xlink:href="#a" id="f" gradientUnits="userSpaceOnUse" gradientTransform="matrix(1.2 0 0 1.2 58.8 -190.2)" cx="77.455" cy="980.925" fx="77.455" fy="980.925" r="7.007"/><radialGradient xlink:href="#a" id="d" cx="105.168" cy="152.163" fx="105.168" fy="152.163" r="23.176" gradientTransform="matrix(1 0 0 1.2 36 -25.9)" gradientUnits="userSpaceOnUse"/><radialGradient xlink:href="#a" id="c" cx="99.441" cy="129.036" fx="99.441" fy="129.036" r="13.648" gradientTransform="translate(36 11.7)" gradientUnits="userSpaceOnUse"/><radialGradient xlink:href="#a" id="g" gradientUnits="userSpaceOnUse" gradientTransform="matrix(1.2 0 0 1.2 82.1 -196.1)" cx="77.455" cy="980.925" fx="77.455" fy="980.925" r="7.007"/><radialGradient xlink:href="#a" id="h" gradientUnits="userSpaceOnUse" gradientTransform="matrix(1.2 0 0 1.2 103.1 -204.8)" cx="77.455" cy="980.925" fx="77.455" fy="980.925" r="7.007"/><radialGradient xlink:href="#a" id="i" gradientUnits="userSpaceOnUse" gradientTransform="matrix(1.2 0 0 1.2 121.8 -218.3)" cx="77.455" cy="980.925" fx="77.455" fy="980.925" r="7.007"/><radialGradient xlink:href="#a" id="j" gradientUnits="userSpaceOnUse" gradientTransform="matrix(1.2 0 0 1.2 138.1 -235.8)" cx="77.455" cy="980.925" fx="77.455" fy="980.925" r="7.007"/><radialGradient xlink:href="#a" id="k" gradientUnits="userSpaceOnUse" gradientTransform="matrix(1.2 0 0 1.2 153.3 -254.5)" cx="77.455" cy="980.925" fx="77.455" fy="980.925" r="7.007"/></defs><ellipse cx="9.544" cy="888.503" rx="6.998" ry="7.008" fill="#fff" stroke="#000" stroke-width="2" stroke-linecap="round" transform="translate(0 -852.4)"/><ellipse cy="894.119" cx="32.146" rx="6.998" ry="7.008" fill="#fff" stroke="#000" stroke-width="2" stroke-linecap="round" transform="translate(0 -852.4)"/><ellipse cx="53.664" cy="902.867" rx="6.998" ry="7.008" fill="#fff" stroke="#000" stroke-width="2" stroke-linecap="round" transform="translate(0 -852.4)"/><ellipse cy="914.429" cx="73.458" rx="6.998" ry="7.008" fill="#fff" stroke="#000" stroke-width="2" stroke-linecap="round" transform="translate(0 -852.4)"/><ellipse cx="89.952" cy="930.122" rx="6.998" ry="7.008" fill="#fff" stroke="#000" stroke-width="2" stroke-linecap="round" transform="translate(0 -852.4)"/><ellipse cy="945.588" cx="105.421" rx="8.173" ry="8.185" fill="url(#b)" transform="translate(0 -852.4)"/><g fill-rule="evenodd" stroke="#000" stroke-linejoin="round"><path d="M131.282 146.093c-11.402-3.8-9.683-22.456 4.42-22.097 3.357.085 9.996 2.667 11.224 9.634 0 0 1.945 8.308-7.336 12.64" fill="url(#c)" stroke-width="4"/><path d="M120.39 153.345c-3.29 3.777-.623 3.974 6.468 19.86 4.725 10.585 8.762 11.68 11.17 11.95 5.467.107 8.893.02 13.85-.073 3.648-.068 11.395-7.554 11.413-12.78l.056-15.802c.004-1.05-.35-3.773-3.378-4.174-3.664-.484-4.436 3.67-4.436 3.67s.688-5.776-3.404-6.37c-4.267-.622-4.59 3.954-4.59 3.954s.966-6.92-4.285-6.955c-4.217-.03-3.84 9.414-3.78-1.344.058-10.71 1.134-14.262-4.53-14.153-2.904.056-3.304 4.016-3.304 4.016l-.04 20.757c-.02 11.61-2.914-6.243-11.21-2.553z" fill="url(#d)" stroke-width="2"/></g><ellipse cx="126.039" cy="954.673" rx="8.173" ry="8.185" fill="url(#e)" transform="translate(0 -852.4)"/><ellipse cy="955.499" cx="149.131" rx="8.173" ry="8.185" fill="url(#f)" transform="translate(0 -852.4)"/><ellipse cx="172.458" cy="949.659" rx="8.173" ry="8.185" fill="url(#g)" transform="translate(0 -852.4)"/><ellipse cy="940.899" cx="193.452" rx="8.173" ry="8.185" fill="url(#h)" transform="translate(0 -852.4)"/><ellipse cx="212.113" cy="927.467" rx="8.173" ry="8.185" fill="url(#i)" transform="translate(0 -852.4)"/><ellipse cy="909.947" cx="228.441" rx="8.173" ry="8.185" fill="url(#j)" transform="translate(0 -852.4)"/><ellipse cx="243.604" cy="891.258" rx="8.173" ry="8.185" fill="url(#k)" transform="translate(0 -852.4)"/></svg>