<svg xmlns="http://www.w3.org/2000/svg" xmlns:xlink="http://www.w3.org/1999/xlink" width="340" height="80" viewBox="0 0 340 80"><defs><linearGradient id="a"><stop offset="0" stop-color="#ffc32b"/><stop offset="1" stop-color="#fff58d"/></linearGradient><filter id="b" color-interpolation-filters="sRGB"><feFlood flood-opacity=".498" flood-color="#000" result="flood"/><feComposite in="flood" in2="SourceGraphic" operator="in" result="composite1"/><feGaussianBlur in="composite1" stdDeviation=".8" result="blur"/><feOffset dx="1.7" dy="1.7" result="offset"/><feComposite in="SourceGraphic" in2="offset" result="composite2"/></filter><linearGradient xlink:href="#a" id="c" x1="27.801" y1="64.209" x2="18.203" y2="52.776" gradientUnits="userSpaceOnUse"/><linearGradient xlink:href="#a" id="d" gradientUnits="userSpaceOnUse" x1="27.801" y1="64.209" x2="18.203" y2="52.776" gradientTransform="translate(289.635)"/></defs><path d="M6.602 1004.97v-30h13.36q2.72 0 4.68 2 1.96 1.96 1.96 4.68v3.32q0 2.72-1.96 4.72-1.96 1.96-4.68 1.96h-6.68v13.32h-6.68zm6.68-16.68h3.32q1.4 0 2.36-.96 1-1 1-2.36v-3.32q0-1.4-1-2.36-.96-1-2.36-1h-3.32v10zm24.96 16.68v-30h13.36q2.72 0 4.68 2 1.96 1.96 1.96 4.68v1.8q0 2.24-1.52 4.32-1.52 2.04-5.12 2.04h3.32q1.36 0 2.32 1 1 .96 1 2.36v11.8h-6.64v-10q0-1.36-1-2.32-.96-1-2.36-1h-3.32v13.32h-6.68zm6.68-16.68h3.32q1.4 0 2.36-.96 1-1 1-2.36v-3.32q0-1.4-1-2.36-.96-1-2.36-1h-3.32v10zm24.96 16.68v-30h16.68v3.32h-10v10h6.68v3.36h-6.68v10h10v3.32h-16.68zm44.962-23.32h-3.32q-.44-3.36-3.16-3.36-1.76 0-2.64.84-.88.84-.88 2.52 0 1.24.96 2.36l7.08 7.92q1.96 2.2 1.96 4.72v1.64q0 2.72-1.96 4.72-1.96 1.96-4.72 1.96h-3.32q-3.32 0-5-1.64-1.68-1.68-1.68-5.04h3.36v.56q0 1.36 1.04 2.08t2.28.72q1.76 0 2.52-.84.8-.88.8-2.52 0-1.28-.96-2.36l-7.08-7.92q-1.96-2.16-1.96-4.72v-1.64q0-2.72 1.96-4.68 1.96-2 4.72-2h3.32q6.28 0 6.68 6.68zm28.203 0h-3.32q-.44-3.36-3.16-3.36-1.76 0-2.64.84-.88.84-.88 2.52 0 1.24.96 2.36l7.08 7.92q1.96 2.2 1.96 4.72v1.64q0 2.72-1.96 4.72-1.96 1.96-4.72 1.96h-3.32q-3.32 0-5-1.64-1.68-1.68-1.68-5.04h3.36v.56q0 1.36 1.04 2.08t2.28.72q1.76 0 2.52-.84.8-.88.8-2.52 0-1.28-.96-2.36l-7.08-7.92q-1.96-2.16-1.96-4.72v-1.64q0-2.72 1.96-4.68 1.96-2 4.72-2h3.32q6.28 0 6.68 6.68zm49.883 3.32h3.32v3.32q0 2.88-1.92 4.8-1.88 1.88-4.44 1.88h-.32v3.32q0 2.24-1.92 4.48-1.92 2.2-4.72 2.2h-6.68q-2.8 0-4.76-2.2-1.92-2.24-1.92-4.48v-3.32q0-2.24 1.68-4.44 1.68-2.24 5-2.24-6.68-.76-6.68-6.64 0-2.72 1.96-4.68 2-2 4.72-2h6.68q2.72 0 4.68 2 1.96 1.96 1.96 4.68v3.32h-6.64v-3.32q0-1.4-1-2.36-.96-1-2.36-1-1.36 0-2.36 1-.96.96-.96 2.36v1.64q0 2.96 3.32 3.36v3.32q-3.32.44-3.32 3.32v5q0 1.68.96 2.52 1 .84 2.36.84 1.4 0 2.36-.84 1-.84 1-2.52v-6.64h6.64q1.4 0 2.36-.96 1-1 1-2.4v-3.32zm30 20v-30h6.68v13.32h6.68v-13.32h6.64v30h-6.64v-13.32h-6.68v13.32h-6.68zm38.32-30h6.68q2.72 0 4.68 2 1.96 1.96 1.96 4.68v16.64q0 2.72-1.96 4.72-1.96 1.96-4.68 1.96h-6.68q-2.72 0-4.72-1.96-1.96-1.96-1.96-4.72v-16.64q0-2.76 1.96-4.72 2-1.96 4.72-1.96zm0 6.68v16.64q0 1.36.96 2.36 1 1 2.36 1 1.4 0 2.36-1 1-1 1-2.36v-16.64q0-1.4-1-2.36-.96-1-2.36-1-1.36 0-2.36 1-.96.96-.96 2.36zm24.96 23.32v-30h6.68v26.68h10v3.32h-16.68zm28.282 0v-30h13.36q2.72 0 4.68 2 1.96 1.96 1.96 4.68v16.64q0 2.72-1.96 4.72-1.96 1.96-4.68 1.96h-13.36zm6.68-3.32h3.32q1.4 0 2.36-1 1-1 1-2.36v-16.64q0-1.4-1-2.36-.96-1-2.36-1h-3.32v23.36zm-260.546 46.12v-26.68h-6.68v-3.32h20v3.32h-6.68v26.68h-6.64zm28.32-30h6.68q2.72 0 4.68 2 1.96 1.96 1.96 4.68v16.64q0 2.72-1.96 4.72-1.96 1.96-4.68 1.96h-6.68q-2.72 0-4.72-1.96-1.96-1.96-1.96-4.72v-16.64q0-2.76 1.96-4.72 2-1.96 4.72-1.96zm0 6.68v16.64q0 1.36.96 2.36 1 1 2.36 1 1.4 0 2.36-1 1-1 1-2.36v-16.64q0-1.4-1-2.36-.96-1-2.36-1-1.36 0-2.36 1-.96.96-.96 2.36zm39.96 23.32v-30h16.68v3.32h-10v10h6.68v3.36h-6.68v13.32h-6.68zm28.282 0v-30h6.68v26.68h10v3.32h-16.68zm34.962 0v-13.32q-6.68-.8-6.68-6.68v-10h6.68v10q0 1.36.96 2.36 1 .96 2.36.96 1.4 0 2.36-.96 1-1 1-2.36v-10h6.64v10q0 5.88-6.64 6.68v13.32h-6.68zm53.398-30h6.64v23.32q0 2.72-1.96 4.72-1.96 1.96-4.68 1.96h-6.68q-2.72 0-4.72-1.96-1.96-1.96-1.96-4.72v-23.32h6.68v23.32q0 1.36.96 2.36 1 1 2.36 1 1.4 0 2.36-1 1-1 1-2.36v-23.32zm18.28 30v-30h13.36q2.72 0 4.68 2 1.96 1.96 1.96 4.68v3.32q0 2.72-1.96 4.72-1.96 1.96-4.68 1.96h-6.68v13.32h-6.68zm6.68-16.68h3.32q1.4 0 2.36-.96 1-1 1-2.36v-3.32q0-1.4-1-2.36-.96-1-2.36-1h-3.32v10z" style="line-height:107.00000525%;-inkscape-font-specification:Silom;text-align:center" font-size="40" font-family="Silom" letter-spacing="5" word-spacing="0" filter="url(#b)" text-anchor="middle" fill="#fff" transform="translate(0 -972.362)"/><g fill-rule="evenodd" stroke="#000" stroke-width="2"><path d="M17.694 74.01H31.72l.096-13.065h6.838L24.908 47.198 11.16 60.945h6.534z" fill="url(#c)"/><path d="M307.33 74.01h14.025l.096-13.065h6.84l-13.75-13.747-13.745 13.747h6.533z" fill="url(#d)"/></g></svg>