<svg xmlns="http://www.w3.org/2000/svg" xmlns:xlink="http://www.w3.org/1999/xlink" width="300" height="200" viewBox="0 0 300 200"><defs><linearGradient id="a"><stop offset="0" stop-color="#fff58d"/><stop offset="1" stop-color="#ffc32b"/></linearGradient><radialGradient xlink:href="#a" id="b" cx="77.455" cy="980.925" fx="77.455" fy="980.925" r="7.007" gradientUnits="userSpaceOnUse" gradientTransform="matrix(1.2 0 0 1.2 15.1 -200.1)"/><radialGradient xlink:href="#a" id="c" gradientUnits="userSpaceOnUse" gradientTransform="matrix(1.2 0 0 1.2 35.7 -191.1)" cx="77.455" cy="980.925" fx="77.455" fy="980.925" r="7.007"/><radialGradient xlink:href="#a" id="d" gradientUnits="userSpaceOnUse" gradientTransform="matrix(1.2 0 0 1.2 58.8 -190.2)" cx="77.455" cy="980.925" fx="77.455" fy="980.925" r="7.007"/><radialGradient xlink:href="#a" id="e" gradientUnits="userSpaceOnUse" gradientTransform="matrix(1.2 0 0 1.2 82.1 -196.1)" cx="77.455" cy="980.925" fx="77.455" fy="980.925" r="7.007"/><radialGradient xlink:href="#a" id="f" gradientUnits="userSpaceOnUse" gradientTransform="matrix(1.2 0 0 1.2 103.1 -204.8)" cx="77.455" cy="980.925" fx="77.455" fy="980.925" r="7.007"/><radialGradient xlink:href="#a" id="g" gradientUnits="userSpaceOnUse" gradientTransform="matrix(1.2 0 0 1.2 121.8 -218.3)" cx="77.455" cy="980.925" fx="77.455" fy="980.925" r="7.007"/><radialGradient xlink:href="#a" id="h" gradientUnits="userSpaceOnUse" gradientTransform="matrix(1.2 0 0 1.2 138.1 -235.8)" cx="77.455" cy="980.925" fx="77.455" fy="980.925" r="7.007"/><radialGradient xlink:href="#a" id="i" gradientUnits="userSpaceOnUse" gradientTransform="matrix(1.2 0 0 1.2 153.3 -254.5)" cx="77.455" cy="980.925" fx="77.455" fy="980.925" r="7.007"/></defs><ellipse cx="9.544" cy="888.503" rx="6.998" ry="7.008" fill="#fff" stroke="#000" stroke-width="2" stroke-linecap="round" transform="translate(0 -852.4)"/><ellipse cy="894.119" cx="32.146" rx="6.998" ry="7.008" fill="#fff" stroke="#000" stroke-width="2" stroke-linecap="round" transform="translate(0 -852.4)"/><ellipse cx="53.664" cy="902.867" rx="6.998" ry="7.008" fill="#fff" stroke="#000" stroke-width="2" stroke-linecap="round" transform="translate(0 -852.4)"/><ellipse cy="914.429" cx="73.458" rx="6.998" ry="7.008" fill="#fff" stroke="#000" stroke-width="2" stroke-linecap="round" transform="translate(0 -852.4)"/><ellipse cx="89.952" cy="930.122" rx="6.998" ry="7.008" fill="#fff" stroke="#000" stroke-width="2" stroke-linecap="round" transform="translate(0 -852.4)"/><ellipse cy="945.588" cx="105.421" rx="8.173" ry="8.185" fill="url(#b)" transform="translate(0 -852.4)"/><ellipse cx="126.039" cy="954.673" rx="8.173" ry="8.185" fill="url(#c)" transform="translate(0 -852.4)"/><ellipse cy="955.499" cx="149.131" rx="8.173" ry="8.185" fill="url(#d)" transform="translate(0 -852.4)"/><ellipse cx="172.458" cy="949.659" rx="8.173" ry="8.185" fill="url(#e)" transform="translate(0 -852.4)"/><ellipse cy="940.899" cx="193.452" rx="8.173" ry="8.185" fill="url(#f)" transform="translate(0 -852.4)"/><ellipse cx="212.113" cy="927.467" rx="8.173" ry="8.185" fill="url(#g)" transform="translate(0 -852.4)"/><ellipse cy="909.947" cx="228.441" rx="8.173" ry="8.185" fill="url(#h)" transform="translate(0 -852.4)"/><ellipse cx="243.604" cy="891.258" rx="8.173" ry="8.185" fill="url(#i)" transform="translate(0 -852.4)"/><ellipse cy="875.809" cx="260.818" rx="6.998" ry="7.008" fill="#fff" stroke="#000" stroke-width="2" stroke-linecap="round" transform="translate(0 -852.4)"/></svg>