<svg xmlns="http://www.w3.org/2000/svg" width="500" height="500"><path d="M61.14 145.217a19.767 19.767 0 1 1-39.533 0 19.767 19.767 0 1 1 39.534 0zm2.608 215.663a26.13 26.13 0 1 1-52.263 0 26.13 26.13 0 1 1 52.263 0zM140.66 74.447a20.474 20.474 0 1 1-40.95 0 20.474 20.474 0 1 1 40.95 0zm26.727 301.748a26.13 26.13 0 1 1-52.262 0 26.13 26.13 0 1 1 52.262 0zm.083-184.087a26.13 26.13 0 1 1-52.262 0 26.13 26.13 0 1 1 52.263 0zM362.55 86.912a28.253 28.253 0 1 1-56.506 0 28.253 28.253 0 1 1 56.505 0zm-52.733 316.132a24.01 24.01 0 1 1-48.02 0 24.01 24.01 0 1 1 48.02 0zm71.075-79.376a24.01 24.01 0 1 1-48.02 0 24.01 24.01 0 1 1 48.02 0zm86.71-89.76a24.717 24.717 0 1 1-49.433 0 24.717 24.717 0 1 1 49.43 0zM488.21 91.74a21.18 21.18 0 1 1-42.364 0 21.18 21.18 0 1 1 42.363 0zm-11.05 294.84a19.06 19.06 0 1 1-38.12 0 19.06 19.06 0 1 1 38.12 0z" fill="#fff" stroke="#000" stroke-width="3"/></svg>