<svg xmlns="http://www.w3.org/2000/svg" width="500" height="500"><path d="M30.756 118.025a10.575 10.575 0 1 1-21.15 0 10.575 10.575 0 1 1 21.15 0zm-10.364 278.29a8.454 8.454 0 1 1-16.907 0 8.454 8.454 0 1 1 16.907 0zm69.983-360.01a6.332 6.332 0 1 1-12.664 0 6.332 6.332 0 1 1 12.668 0zm31.315 372.74a11.282 11.282 0 1 1-22.565 0 11.282 11.282 0 1 1 22.564 0zm-11.332-235.3a10.575 10.575 0 1 1-21.15 0 10.575 10.575 0 1 1 21.15 0zM374.185 51.94a11.282 11.282 0 1 1-22.564 0 11.282 11.282 0 1 1 22.568 0zm-50.732 383.832a11.282 11.282 0 1 1-22.564 0 11.282 11.282 0 1 1 22.56 0zm79.44-95.74a11.282 11.282 0 1 1-22.565 0 11.282 11.282 0 1 1 22.564 0zm92.71-121.075a13.403 13.403 0 1 1-26.807 0 13.403 13.403 0 1 1 26.807 0zM493.38 61.72a9.16 9.16 0 1 1-18.32 0 9.16 9.16 0 1 1 18.32 0zm-2.22 351.345a10.575 10.575 0 1 1-21.15 0 10.575 10.575 0 1 1 21.15 0z" fill="#fff" stroke="#000" stroke-width="3"/></svg>