<svg xmlns="http://www.w3.org/2000/svg" width="500" height="500"><path d="M74.576 172.652a33.202 33.202 0 1 1-66.404 0 33.202 33.202 0 1 1 66.404 0zM69.748 342.88a26.13 26.13 0 1 1-52.263 0 26.13 26.13 0 1 1 52.263 0zm100.61-253.583a35.324 35.324 0 1 1-70.647 0 35.324 35.324 0 1 1 70.65 0zm13.515 270.655a30.374 30.374 0 1 1-60.748 0 30.374 30.374 0 1 1 60.748 0zm33.982-155.844a35.324 35.324 0 1 1-70.647 0 35.324 35.324 0 1 1 70.647 0zm147.765-96.125a35.324 35.324 0 1 1-70.647 0 35.324 35.324 0 1 1 70.647 0zm-61.803 279.06a24.01 24.01 0 1 1-48.02 0 24.01 24.01 0 1 1 48.02 0zm73.075-74.568a33.202 33.202 0 1 1-66.405 0 33.202 33.202 0 1 1 66.405 0zm72.71-78.568a30.374 30.374 0 1 1-60.747 0 30.374 30.374 0 1 1 60.748 0zm41.456-114.853a32.495 32.495 0 1 1-64.99 0 32.495 32.495 0 1 1 64.99 0zM471.16 366.8a26.838 26.838 0 1 1-53.678 0 26.838 26.838 0 1 1 53.677 0z" fill="#fff" stroke="#000" stroke-width="3"/></svg>