<svg xmlns="http://www.w3.org/2000/svg" width="500" height="500"><g fill="#fff" stroke="#000" stroke-width="3"><path d="M117.103 187.966a49.466 49.466 0 1 1-98.93 0 49.466 49.466 0 1 1 98.93 0zm-2.828 134.652a42.395 42.395 0 1 1-84.79 0 42.395 42.395 0 1 1 84.79 0zm88.367-199.178a49.466 49.466 0 1 1-98.93 0 49.466 49.466 0 1 1 98.93 0zm15.172 196.006a50.88 50.88 0 1 1-101.76 0 50.88 50.88 0 1 1 101.76 0z"/><path d="M270.625 230.493a53.708 53.708 0 1 1-107.417 0 53.708 53.708 0 1 1 107.417 0zm88.995-96.125a53.708 53.708 0 1 1-107.417 0 53.708 53.708 0 1 1 107.417 0zm-29.882 217.927a48.76 48.76 0 1 1-97.518 0 48.76 48.76 0 1 1 97.518 0z"/><path d="M370.892 293.99a46.637 46.637 0 1 1-93.275 0 46.637 46.637 0 1 1 93.275 0z"/><path d="M441.603 241.564a50.88 50.88 0 1 1-101.76 0 50.88 50.88 0 1 1 101.76 0zm50.77-94.59a54.415 54.415 0 1 1-108.83 0 54.415 54.415 0 1 1 108.83 0z"/><path d="M471.16 342.053a51.587 51.587 0 1 1-103.175 0 51.587 51.587 0 1 1 103.174 0z"/></g></svg>