<svg xmlns="http://www.w3.org/2000/svg" width="500" height="500"><g fill="#fff" stroke="#000" stroke-width="3"><path d="M201.672 216.108a77.75 77.75 0 1 1-155.5 0 77.75 77.75 0 1 1 155.5 0z"/><path d="M212.985 275.505a77.75 77.75 0 1 1-155.5 0 77.75 77.75 0 1 1 155.5 0z"/><path d="M275.21 197.723a77.75 77.75 0 1 1-155.5 0 77.75 77.75 0 1 1 155.5 0z"/><path d="M265.31 282.576a77.75 77.75 0 1 1-155.5 0 77.75 77.75 0 1 1 155.5 0z"/><path d="M313.394 247.22a77.75 77.75 0 1 1-155.5 0 77.75 77.75 0 1 1 155.5 0z"/><path d="M391.176 186.41a77.75 77.75 0 1 1-155.5 0 77.75 77.75 0 1 1 155.5 0z"/><path d="M344.507 303.79a77.75 77.75 0 1 1-155.5 0 77.75 77.75 0 1 1 155.5 0z"/><path d="M396.833 259.948a77.75 77.75 0 1 1-155.5 0 77.75 77.75 0 1 1 155.5 0z"/><path d="M447.745 234.493a77.75 77.75 0 1 1-155.5 0 77.75 77.75 0 1 1 155.5 0z"/><path d="M470.372 196.31a77.75 77.75 0 1 1-155.5 0 77.75 77.75 0 1 1 155.5 0z"/><path d="M449.16 293.89a77.75 77.75 0 1 1-155.5 0 77.75 77.75 0 1 1 155.5 0z"/></g></svg>