<svg xmlns="http://www.w3.org/2000/svg" width="500" height="500"><g fill="#fff" stroke="#000"><path d="M129.588 192.208a53.708 53.708 0 1 1-107.416 0 53.708 53.708 0 1 1 107.416 0zm-6.828 130.41a46.637 46.637 0 1 1-93.275 0 46.637 46.637 0 1 1 93.275 0z" stroke-width="3"/><path d="M223.37 147.803a55.83 55.83 0 1 1-111.66 0 55.83 55.83 0 1 1 111.66 0zm-5.314 161.4a55.123 55.123 0 1 1-110.245 0 55.123 55.123 0 1 1 110.25 0z" stroke-width="3"/><path d="M270.625 230.493a53.708 53.708 0 1 1-107.417 0 53.708 53.708 0 1 1 107.417 0z" stroke-width="3"/><path d="M361.62 147.44a60.78 60.78 0 1 1-121.56 0 60.78 60.78 0 1 1 121.56 0z" stroke-width="3.001"/><path d="M319.738 342.295a48.76 48.76 0 1 1-97.518 0 48.76 48.76 0 1 1 97.518 0z" stroke-width="3"/><path d="M366.892 285.747a50.88 50.88 0 1 1-101.76 0 50.88 50.88 0 1 1 101.76 0z" stroke-width="3"/><path d="M441.603 241.564a59.365 59.365 0 1 1-118.73 0 59.365 59.365 0 1 1 118.73 0z" stroke-width="2.999"/><path d="M484.372 165.338a60.78 60.78 0 1 1-121.56 0 60.78 60.78 0 1 1 121.56 0z" stroke-width="3.001"/><path d="M463.16 328.396a57.244 57.244 0 1 1-114.49 0 57.244 57.244 0 1 1 114.49 0z" stroke-width="3"/></g></svg>