<svg xmlns="http://www.w3.org/2000/svg" width="500" height="500"><g fill="#fff" stroke="#000" stroke-width="3"><path d="M99.204 187.966a44.516 44.516 0 1 1-89.032 0 44.516 44.516 0 1 1 89.032 0zm-2 140.187a38.86 38.86 0 1 1-77.72 0 38.86 38.86 0 1 1 77.72 0zm92.124-216.37a43.81 43.81 0 1 1-87.617 0 43.81 43.81 0 1 1 87.62 0zm11.515 239.684a38.86 38.86 0 1 1-77.718 0 38.86 38.86 0 1 1 77.718 0zm43.882-133.924a48.76 48.76 0 1 1-97.517 0 48.76 48.76 0 1 1 97.517 0zM365.62 120.71a48.052 48.052 0 1 1-96.103 0 48.052 48.052 0 1 1 96.103 0zm-41.297 247.95a42.395 42.395 0 1 1-84.79 0 42.395 42.395 0 1 1 84.79 0z"/><path d="M370.892 298.233a42.395 42.395 0 1 1-84.79 0 42.395 42.395 0 1 1 84.79 0zm70.71-56.67a40.98 40.98 0 1 1-81.96 0 40.98 40.98 0 1 1 81.96 0zm50.406-112.73a40.273 40.273 0 1 1-80.547 0 40.273 40.273 0 1 1 80.55 0zM471.16 352.66a40.98 40.98 0 1 1-81.962 0 40.98 40.98 0 1 1 81.96 0z"/></g></svg>