<svg xmlns="http://www.w3.org/2000/svg" width="500" height="500"><g fill="#fff" stroke="#000"><path d="M167.73 199.137a60.78 60.78 0 1 1-121.558 0 60.78 60.78 0 1 1 121.558 0z" stroke-width="3.001"/><path d="M148.316 310.84a54.415 54.415 0 1 1-108.83 0 54.415 54.415 0 1 1 108.83 0zm93.54-134.795a60.072 60.072 0 1 1-120.145 0 60.072 60.072 0 1 1 120.15 0z" stroke-width="3"/><path d="M230.784 302.84a61.487 61.487 0 1 1-122.973 0 61.487 61.487 0 1 1 122.98 0z" stroke-width="3.001"/><path d="M283.353 236.857a60.072 60.072 0 1 1-120.145 0 60.072 60.072 0 1 1 120.145 0z" stroke-width="3"/><path d="M385.176 167.217a68.558 68.558 0 1 1-137.115 0 68.558 68.558 0 1 1 137.12 0z" stroke-width="3.001"/><path d="M311.738 321.93a55.123 55.123 0 1 1-110.246 0 55.123 55.123 0 1 1 110.246 0z" stroke-width="3"/><path d="M362.892 274.798a55.83 55.83 0 1 1-111.66 0 55.83 55.83 0 1 1 111.66 0z" stroke-width="3"/><path d="M433.603 247.22a65.022 65.022 0 1 1-130.045 0 65.022 65.022 0 1 1 130.045 0z" stroke-width="3.001"/><path d="M476.372 177.58a65.022 65.022 0 1 1-130.044 0 65.022 65.022 0 1 1 130.044 0z" stroke-width="3.001"/><path d="M455.16 311.203a66.436 66.436 0 1 1-132.874 0 66.436 66.436 0 1 1 132.873 0z" stroke-width="3"/></g></svg>