<svg xmlns="http://www.w3.org/2000/svg" width="500" height="500"><g fill="#fff" stroke="#000"><path d="M179.044 204.794a66.436 66.436 0 1 1-132.872 0 66.436 66.436 0 1 1 132.872 0z" stroke-width="3"/><path d="M194.6 284.697a68.558 68.558 0 1 1-137.115 0 68.558 68.558 0 1 1 137.115 0z" stroke-width="3.001"/><path d="M256.826 188.53a68.558 68.558 0 1 1-137.115 0 68.558 68.558 0 1 1 137.118 0z" stroke-width="3.001"/><path d="M245.512 292.475a67.85 67.85 0 1 1-135.7 0 67.85 67.85 0 1 1 135.7 0z" stroke-width="3"/><path d="M313.394 252.877a72.093 72.093 0 1 1-144.186 0 72.093 72.093 0 1 1 144.186 0z" stroke-width="3.001"/><path d="M391.176 186.41a77.75 77.75 0 1 1-155.5 0 77.75 77.75 0 1 1 155.5 0z" stroke-width="3"/><path d="M317.637 312.98a60.072 60.072 0 1 1-120.145 0 60.072 60.072 0 1 1 120.145 0z" stroke-width="3"/><path d="M378.448 267.02a63.608 63.608 0 1 1-127.215 0 63.608 63.608 0 1 1 127.215 0z" stroke-width="3"/><path d="M433.603 241.564a70.68 70.68 0 1 1-141.358 0 70.68 70.68 0 1 1 141.358 0z" stroke-width="3"/><path d="M470.372 189.238a70.68 70.68 0 1 1-141.358 0 70.68 70.68 0 1 1 141.358 0z" stroke-width="3"/><path d="M449.16 300.254a71.386 71.386 0 1 1-142.773 0 71.386 71.386 0 1 1 142.772 0z" stroke-width="3"/></g></svg>