<svg xmlns="http://www.w3.org/2000/svg" width="500" height="500"><path d="M45.242 128.267a14.817 14.817 0 1 1-29.635 0 14.817 14.817 0 1 1 29.635 0zm-14.364 252.05a12.696 12.696 0 1 1-25.393 0 12.696 12.696 0 1 1 25.393 0zm85.64-324.94a13.403 13.403 0 1 1-26.807 0 13.403 13.403 0 1 1 26.81 0zm31.556 338.475a20.474 20.474 0 1 1-40.95 0 20.474 20.474 0 1 1 40.95 0zm-12.402-218.108a16.232 16.232 0 1 1-32.464 0 16.232 16.232 0 1 1 32.464 0zM366.185 69.012a18.353 18.353 0 1 1-36.706 0 18.353 18.353 0 1 1 36.702 0zm-54.732 354.396a17.646 17.646 0 1 1-35.292 0 17.646 17.646 0 1 1 35.296 0zm77.44-83.376a17.646 17.646 0 1 1-35.293 0 17.646 17.646 0 1 1 35.292 0zm92.71-106.125a18.353 18.353 0 1 1-36.706 0 18.353 18.353 0 1 1 36.706 0zm14.607-159.36a11.99 11.99 0 1 1-23.98 0 11.99 11.99 0 1 1 23.98 0zm-13.05 327.568a15.525 15.525 0 1 1-31.05 0 15.525 15.525 0 1 1 31.05 0z" fill="#fff" stroke="#000" stroke-width="3"/></svg>