<svg xmlns="http://www.w3.org/2000/svg" width="500" height="500"><path d="M179.473 436.305c-20.407-3.597-43.943-13.228-62.937-25.755-4.733-3.12-13.203-10.286-19.108-16.164-9.423-9.378-11.117-11.62-15.158-20.058-5.477-11.44-7.635-19.517-8.413-31.5-1.692-26.034 8.195-51.485 28.643-73.74 6.434-7.002 19.42-16.26 26.806-19.112 4.98-1.922 14.295-2.183 16.03-.448.842.842 1.514.885 2.255.144 1.91-1.9-4.52-3.66-11.35-3.112-14.32 1.15-33.58 15.735-47.31 35.824-5.39 7.887-6.55 8.446-15.98 7.688-9.22-.74-16.404-4.555-25.103-13.333-5.81-5.87-8.16-9.25-12.22-17.59-6.754-13.88-8.462-21.31-8.462-36.83 0-14.475 1.7-22.803 6.84-33.488 7.59-15.783 24.896-27.784 49.297-34.19 13.49-3.54 39.46-4.417 53.954-1.818 31.596 5.664 54.943 21 66.21 43.494 6.595 13.165 7.583 18.17 7.555 38.25-.013 9.762.284 17.75.66 17.75 1.165 0 2.15-16.725 1.583-26.868-.63-11.335-2.54-19.023-7.103-28.633-9.375-19.738-27.833-34.636-52.113-42.06-4.95-1.514-9.17-2.888-9.374-3.054-.496-.403 11.4-14.825 20.77-25.18 9.1-10.05 25.577-24.663 37.107-32.903 27.636-19.75 55.02-29.77 87-31.83 37.9-2.44 82.23 13.584 118.538 42.85 11.186 9.015 29.666 28.485 37.717 39.737 8.27 11.56 18.996 32.79 21.75 43.05 8.396 31.296 7.644 63.74-2.165 93.31-13.59 40.972-42.43 72.474-86.17 94.123-15.676 7.76-25.802 11.22-36.33 12.423-15.712 1.79-41.1-2.58-57.426-9.89-2.377-1.065-4.73-1.685-5.224-1.38-.497.307-.67-.286-.388-1.317 2.737-9.98 3.953-31.66 2.747-48.96-1.11-15.92-3.86-36.493-5.157-38.59-1.65-2.67-1.608.054.18 11.172 6.932 43.175 3.487 79.532-9.803 103.442-16.28 29.29-47.915 41.658-88.333 34.535z" fill="#fff"/><path d="M276.802 286.725c41.872 225.347-167.963 153.242-196.987 85.937-31.945-74.075 47.58-140.365 67.565-123.177m-4.758-97.396c133.228-177.61 291.356-56.3 322.603 24.82 18.08 46.94 21.633 157.62-103.728 207.202-36.123 14.29-80.888-7.64-80.888-7.64M211.14 251.39c20.93-120.308-151.93-123.866-178.91-62.06-22.152 50.74 14.275 111.717 52.34 101.213" fill="none" stroke="#000" stroke-width="3"/></svg>