<svg xmlns="http://www.w3.org/2000/svg" width="500" height="500"><path d="M208.23 411.273c-22.752-4.007-41.972-13.175-56.943-27.163-11.047-10.322-18.132-21.206-22.66-34.812-2.578-7.742-2.722-8.793-2.673-19.465.046-10.093.292-12.002 2.337-18.13 3.06-9.146 8.79-19.927 14.68-27.626 2.66-3.466 4.62-6.506 4.37-6.755-1.18-1.166-10.33 11.51-14.98 20.777-5.61 11.16-7.59 18.3-8.37 30.12l-.53 8.05-5.32.64c-8.475 1.03-21.012.13-26.65-1.9-6.42-2.32-13.734-9.46-17.605-17.198-3.726-7.444-4.35-16.815-1.696-25.414.97-3.133 1.92-5.697 2.116-5.697.195 0 2.12.68 4.277 1.508 3.597 1.38 10.57 3.22 17.234 4.54 1.54.307 2.662.2 2.662-.25 0-.43-2.49-1.23-5.53-1.785-28.634-5.22-45.365-22.07-45.41-45.743-.038-18.517 11.16-33.117 30.743-40.092 2.736-.974 5.11-2.17 5.274-2.655.415-1.22-7.912 1.68-13.63 4.74l-4.62 2.47-2.25-2.63c-1.235-1.447-3.745-5.46-5.576-8.92-6.205-11.735-8.87-21.62-9.554-35.437-1.355-27.43 9.49-47.16 32.66-59.407 12.53-6.62 26.17-9.85 41.476-9.817 14.99.034 25.205 2.2 39.04 8.28 6.83 3.006 20.125 10.758 20.125 11.74 0 .24-1.1 2.197-2.446 4.35-2.43 3.884-5.746 12.407-5.746 14.772 0 2.52 1.45 1.128 1.93-1.857 1.52-9.356 10.95-21.404 20.77-26.54 9.27-4.845 25.52-7.6 34.587-5.858 14.087 2.707 25.825 14.527 30.845 31.06 1.51 4.968 2.8 7.34 2.8 5.14 0-4.902-6.12-18.13-11.463-24.78-3.35-4.17-3.39-4.29-1.92-5.904 5.846-6.4 19.07-13.75 28.09-15.6 8.955-1.833 18.466.437 28.42 6.787 5.375 3.426 14.436 12.614 14.057 14.25-.133.586-2.815 3.183-5.96 5.773-3.14 2.59-7.873 7.237-10.52 10.328-8.654 10.12-15.41 26.893-15.215 37.778l.09 4.91 1.08-7.25c2.304-15.486 7.896-26.77 19.008-38.357 15.02-15.663 34.778-24.27 58.43-25.458 15.457-.78 26.505 1.52 40.503 8.424 18.98 9.36 32.057 23.42 39.226 42.167 6.282 16.43 6.29 38.834.01 56.994-4.676 13.518-14.23 27.54-24.21 35.537-6.818 5.46-17.876 10.87-25.73 12.59-7.32 1.6-24.114 1.254-31.078-.64l-4.094-1.115-.635-6.393c-.975-9.826-6.01-26.14-8.07-26.14-.94 0-1.05-.42 1.66 6.13 3.78 9.124 5.226 16.925 4.87 26.34-.285 7.515-.576 8.767-3.4 14.616-5.485 11.35-18.8 22.323-32.11 26.46-4.77 1.484-7.52 1.77-16.382 1.707-6.657-.045-12.9-.572-16.644-1.403-6.99-1.55-6.705-1.52-6.705-.65s6.63 2.28 15.912 3.375c4.024.472 7.667 1.075 8.096 1.34 1.395.845 6.97 13.41 8.88 20.002 1.5 5.18 1.865 8.47 1.878 16.904.02 12.596-1.272 18.21-6.862 29.81-11.27 23.39-33.067 40.116-61.52 47.19-8.876 2.21-33.777 2.905-43.39 1.21z" fill="#fff"/><path d="M98.073 292.34s-31.29-3.162-44.023-22.22c-13.323-19.942-12.165-56.408 29.542-67.804m41.028 134.468s-28.576 5.69-41.028-5.128c-24.515-21.297-9.643-45.784-9.643-45.784m235.47 8.81s30.2 40.652-6.27 85.767c-53.06 61.3-168.11 32.07-178.43-44.54-2.92-29.71 19.45-55.55 22.71-58.51m206.37-58.85s18.823 33.33-1.74 56.12-41.708 22.5-66.616 16.81m4.182-124.08s-3.07-33.03 33.11-57.438c9.454-6.378 35.93-19.36 68.79-12.15 106.29 29.736 62.104 181.924-29.574 153.433m-114.5-145.9s21.47-23.015 43.586-18.18c22.12 4.834 31.95 22.562 31.95 22.562m-149.33 23.36s3.12-35.55 49.96-36.28c32.95-.514 40.01 38.215 40.01 38.215M64.765 210.57S51.63 195.95 48 172.86c-7.855-49.962 23.903-68.704 43.12-75.385 51.9-18.045 91.44 15.705 91.44 15.705m75.967 65.776c-47.104-5.757-55.796 23.65-56.188 44.443m-1.16 0s-30.7-12.54-41.13 9.68m27.802 21.65s-4.054-45.58 56.19-36.47" fill="none" stroke="#000" stroke-width="3"/></svg>