<svg xmlns="http://www.w3.org/2000/svg" width="500" height="500"><path d="M407.072 419.272c-2.48-19.174-11.015-36.312-25.092-50.39-15.623-15.622-31.944-22.962-50.944-22.91-14.795.04-20.493 2.126-43.607 15.97-23.29 13.944-36.67 20.826-44.55 22.9-8.29 2.18-25.75 3.81-32.995 3.075-20.795-2.11-37.264-15.352-41.98-33.76-2.47-9.65-.435-22.74 5.32-34.18 1.34-2.666 2.146-5.14 1.79-5.497-1.744-1.743-6.7 9.798-9.17 21.348-1.77 8.28-1.153 17.277 1.698 24.78 1.84 4.85 1.852 5.21.212 7.066-10.326 11.687-44.248 18.49-70.728 14.182-20.97-3.41-42.3-14.01-51.425-25.55-12.845-16.252-19.99-39.93-18.695-61.978 2.594-44.246 31.568-71.197 83.226-77.416l5.107-.615 2.2 5.765c2.477 6.494 8.853 16.754 12.597 20.27 4.51 4.238 3.68 1.347-1.62-5.637-11.826-15.59-15.51-32.797-10.887-50.868 2.51-9.814 5.705-16.837 10.766-23.665 8.556-11.542 18.127-18.31 30.3-21.43 14.98-3.836 33.845 4.634 46.82 21.018 4.57 5.772 7.792 6.8 3.946 1.257-7.315-10.54-23.697-22.438-33.4-24.258-1.886-.36-3.43-.88-3.43-1.17 0-1.275 6.883-12.42 11.758-19.037 30.49-41.388 73.54-55.85 123.743-41.564 28.807 8.2 60.28 33.494 75.724 60.865 13.095 23.204 15.45 50.667 6.64 77.46-4.18 12.72-14.082 31.58-23.5 44.766-1.415 1.98-1.425 2.25-.082 2.25 3.562 0 20.796-31.065 25.38-45.75l2.572-8.25 6.133.007c9.046.01 24.56 2.583 33.384 5.542 35.096 11.766 46.515 41.376 34.27 88.866-7.474 28.986-25.875 67.914-50.16 106.116-3.51 5.52-7.334 11.345-8.5 12.946l-2.12 2.91-.705-5.446z" fill="#fff"/><path d="M174.24 315.073c-27.72 52.862 19.232 74.295 36.373 74.062 37.294-.51 38.71-3.007 90.212-34.056 51.06-30.79 109.363 26.93 105.332 74.21M116.873 215.3c-118.94 8.13-99.516 122.373-65.013 148.927 46.992 36.167 114.403 15.757 119.443.51M210.44 166.39C156.51 89.716 78.56 190.656 133 243.765m233.846 18.298C449.5 148.205 337.89 86.245 318.464 79.077c-32.35-11.936-104.47-24.634-148.82 60.76M406.094 429.5S567.48 206.93 394.48 207.167" fill="none" stroke="#000" stroke-width="3"/></svg>