<svg xmlns="http://www.w3.org/2000/svg" width="500" height="500"><path d="M149.384 366.48c-7.89-2.07-15.277-5.575-19.862-9.427l-3-2.52 2.6-.036c1.43-.02 4.02-.53 5.75-1.134 3.946-1.375 4.32-3.484.4-2.26-1.513.472-6.374.858-10.803.858-7.28 0-8.77-.35-15.5-3.7-12.29-6.11-23.11-17.43-24.86-26.02-.36-1.72-1.15-3.29-1.77-3.5-1.1-.37-.92 1.06 1.09 8.73.58 2.23.19 2.69-3.63 4.23-17.77 7.15-32.26 5.5-41.7-4.75-8.63-9.36-11.61-19.39-10.85-36.6.84-19.27 7.11-34.12 19.82-46.94 3.61-3.64 9.5-8.262 13.1-10.274 7.7-4.305 19.86-7.652 27.81-7.652h5.65l-.436 5.978c-.5 6.976.567 17.027 1.814 17.027.476 0 .61-3.937.3-8.75-.716-11.16.73-18.095 5.96-28.54 10.705-21.386 37.685-36.714 57.51-32.67 20.47 4.17 32.16 22.89 32.21 51.58l.02 10.115-4.25 2.755c-5.557 3.607-9.81 7.608-9.178 8.63.277.45 3.112-1.21 6.3-3.683 7.453-5.79 19.072-10.836 31.375-13.628 5.36-1.218 9.75-2.57 9.75-3.01 0-1.066-2.78-1.01-6.76.13-4.187 1.2-4.15.39.324-7.617 6.076-10.865 20.675-23.5 33.454-28.95l2.663-1.133-.48 7.532c-.35 5.487-.17 7.34.66 6.825.63-.39 1.14-2.818 1.14-5.4 0-5.03 2.55-14.86 5.76-22.21 9.32-21.344 31.71-40.268 55.24-46.7 10.25-2.803 26.406-2.36 36.12.99 13.34 4.603 24.25 12.238 34.88 24.415 5.196 5.95 7 7.37 7 5.504 0-.444-2.04-3.2-4.54-6.126-2.495-2.928-4.27-5.587-3.947-5.91 1.268-1.268 13.53-1.79 24.49-1.045 20.42 1.39 33.78 7.28 46.145 20.35 4.48 4.735 11.04 17.508 13.38 26.04 2.246 8.2 3.09 31.41 1.496 41.28-9.74 60.393-53.31 113.112-104.03 125.87-8.55 2.15-12.79 2.636-22.982 2.633-17.344-.007-30.917-2.86-46.4-9.76l-5.904-2.635 3.9-2.58c5.397-3.57 10.43-8.45 9.79-9.49-.29-.472-2.594.956-5.12 3.176-9.9 8.712-25.45 13.695-39.31 12.592-8.99-.714-19.72-3.553-28.52-7.54-3.673-1.668-6.66-2.498-7-1.95-.32.527 2.18 2.215 5.57 3.75l6.16 2.797-5.334 3.65c-6.676 4.572-12.695 6.705-18.92 6.705-4.88 0-13.89-2.8-17.47-5.426-1.887-1.384-1.86-1.51.987-4.49 4.54-4.75 2.23-4.83-3.13-.1-12.373 10.91-28.15 14.436-44.93 10.037z" fill="#fff"/><path d="M95.31 248.022c-15.93-69.243 105.344-115.234 96.608-5.684M85.803 330.185c-82.22 41.34-81.448-110.067 8.993-105.933m42.65 127.12c-24.664 10.335-54.983-16.02-54.983-32.555M199.3 353.174c-26.89 31.424-72.673 9.5-74.127 0m114.823 2.193c-24.71 24.846-47.237 4.384-47.237 4.384m113.36-16.07c-33.43 33.62-79.22 5.85-79.22 5.85m156.26-198.05c178.26-27.14 67.58 286.47-93.02 203.89m-35.61-147.62c-.73-57.73 85.75-116.19 139.53-43.11M213.1 233.33s6.54-27.77 43.604-41.656M178.23 251.6s10.173-14.616 46.51-20.463" fill="none" stroke="#000" stroke-width="3"/><path d="M360.468 287.343c-26.88 30.147-95.16 26.91-93.525-21.704m147.995-37.21c2.056 47.54-38.026 70.27-61.665 56.84" fill="none" stroke="#000" stroke-width="3"/></svg>