<svg xmlns="http://www.w3.org/2000/svg" width="500" height="500"><path d="M296.607 386.97c-36.535-7.738-66.18-33.952-87.494-77.364-3.296-6.714-6.364-12.208-6.817-12.208-1.29 0 .126 3.657 5.858 15.118l5.31 10.618-3.938 6.026c-8.67 13.27-24 24.037-37.07 26.04-22.51 3.447-45.806-12.03-55.942-37.163-1.528-3.788-1.5-4.118.7-8.05 1.26-2.256 2.99-6.78 3.842-10.055 1.738-6.672 2.11-20.534.55-20.534-.573 0-1.004 3.092-1.01 7.25-.037 22.083-13.63 38.97-34.49 42.848-18.232 3.39-32.834-4.856-42.217-23.84-3.63-7.33-3.79-8.08-3.78-17.706.01-12.566 2.06-17.335 11.24-26.203 3.5-3.384 5.93-6.426 5.39-6.76-.54-.334-3.83 2.097-7.3 5.402-3.48 3.3-6.57 6-6.87 6-1.06 0-8.68-8.52-10.79-12.06-4.85-8.16-6.38-20.89-3.71-30.92 3.973-14.94 18.515-24.04 33.862-21.2 14.88 2.753 24.03 11.692 25.38 24.792.645 6.233 2.277 7.244 2.277 1.41 0-9.206-7.063-20.684-14.85-24.13-1.733-.767-3.15-1.77-3.15-2.23 0-1.93 18.083-18.667 25-23.137 18.266-11.808 32.455-16.517 52.06-17.277 19.734-.763 36.566 3.78 50.665 13.684 13.956 9.8 24.17 25.466 28.56 43.796 2.32 9.688 4.447 12.66 3.23 4.51-1.167-7.79-5.236-19.26-9.67-27.25-5.15-9.284-16.984-21.38-25.525-26.082-5.834-3.216-6.142-3.57-5.583-6.41 3.296-16.723 18.43-26.506 41.008-26.506 10.847 0 22.994 3.395 28.12 7.856l3.04 2.646-2.895 8.5c-2.898 8.504-5.01 21.245-5.01 30.222 0 8.68 1.687 4.96 2.352-5.184 1.393-21.296 7.54-36.66 19.613-49.026 18.384-18.83 46.93-25.3 77.472-17.552 33.073 8.39 61.583 34.6 69.62 64.006 1.807 6.62 2.094 9.75 1.69 18.5-.745 16.278-5.866 27.53-18.854 41.44-3.94 4.215-6.833 7.99-6.43 8.38.4.39 4.206-2.94 8.454-7.41 8.467-8.903 14.832-19.764 17.42-29.723.835-3.214 1.724-6.05 1.975-6.3.75-.75 12.61 4.392 17.784 7.713 11.364 7.29 21.67 21.86 25.484 36.02 2.056 7.62 2.347 25.18.53 31.91-7.05 26.16-23.9 41.257-45.614 40.87-8.96-.16-12.048-1.05-11.764-3.402 1.7-14.073 2.328-23.563 1.79-27.12-1.14-7.63-2.02-4.68-2.203 7.41-.707 46.324-27.7 76.79-78.32 88.377-11.16 2.554-30.4 3.265-39 1.442z" fill="#fff"/><path d="M188.624 167.172c3.904-37.984 59.044-36.985 75.146-19.992M69.562 202.657c26.838-34.486 64.795-45.995 94.176-41.982 36.597 4.997 60.996 27.988 67.34 66.97M43.21 268.13c-25.374-14.994-25.056-65.25 11.223-67.472 7.893-.484 34.157 2 34.645 31.486m32.206 47.48c4.88 40.484-29.093 55.884-52.212 50.98-22.828-4.844-49.772-50.48-12.2-74.97m157.814 67.62c-28.3 50.977-83.643 41.335-101.21-9.644m301.56-27.988c4.88 73.97-49.772 96.96-89.785 102.957-39.63 5.94-91.73-16-122.96-90.97m223.49-95.96c77.1 19.99 55.14 135.94-13.17 117.95M255.97 190.66c-2.928-57.98 40.013-88.967 94.664-77.97 54.65 10.996 111.253 79.966 49.77 133.944" fill="none" stroke="#000" stroke-width="3"/></svg>