<svg xmlns="http://www.w3.org/2000/svg" width="500" height="500"><path d="M127.153 356.957c-9.396-2.214-18.51-8.975-21.764-16.144-1.93-4.24-2.7-11.77-1.21-11.77 1.04 0 8.12-6.927 9.99-9.78 3.02-4.617.05-3.423-4.67 1.874-6.93 7.777-13.6 11.15-23.12 11.7-6.68.387-8.2.13-12.68-2.137-2.8-1.417-6.69-4.446-8.64-6.73l-3.56-4.153 2.96-2.492c3.94-3.316 8.15-10.65 7.74-13.496-.26-1.84-.87-1.17-3.13 3.42-3.22 6.54-8.11 10.84-14.99 13.17-5.99 2.03-9.753 2.04-14.494.07-8.466-3.53-14.127-13.12-12.71-21.52.855-5.07 5.884-11.76 10.986-14.62l3.902-2.19 1.85 3.04c2.53 4.15 3.37 2.82 1.373-2.16-2.12-5.3-2.02-9.55.34-14.75 3.18-7 10.45-9.97 17.68-7.22 1.523.58 4.48 2.9 6.566 5.16 2.09 2.26 4.1 3.81 4.47 3.44 1.11-1.11-5.01-7.88-8.97-9.94-4.05-2.1-4.43-3.4-2.24-7.64 1.98-3.84 7.442-6.27 13.26-5.89 4.58.29 4.77.44 8.23 6.36 5.003 8.55 8.055 12.55 9.083 11.92.49-.3-1.15-3.57-3.64-7.26-25.386-37.67-19.63-76.96 13.62-93.04 27.81-13.45 57.99-10.12 84.77 9.35.16.11-1.15 2.51-2.9 5.33-3.335 5.36-5.285 15.13-3.02 15.13.633 0 1.13-1.64 1.135-3.75.02-7.46 8.41-18.05 17.153-21.65 11.59-4.77 27.39-1.03 37.89 8.97 2.34 2.23 4.944 3.22 4.944 1.89 0-.8-5.06-5.21-8.25-7.18-1.51-.94-2.75-2.09-2.75-2.56 0-1.89 11.89-13.16 18.658-17.69 30.31-20.275 72.66-9.274 92.433 24.01 7.04 11.846 12.56 31.61 11.23 40.214-.35 2.266-.17 3.75.446 3.75 1.48 0 1.977-7.563.94-14.408-.79-5.24-.684-6.03.95-7 8.4-4.98 24.146-6.14 33.89-2.49 10.01 3.74 15.73 10.65 16.97 20.5l.612 4.892-5.81 3.08c-3.32 1.76-5.97 3.88-6.174 4.95-.35 1.782-.26 1.79 2 .134 1.29-.95 4.83-2.95 7.86-4.444 7.43-3.67 19.26-3.866 25.75-.43 8.1 4.3 11.9 13.564 10.84 26.464-.76 9.25.96 10.77 1.98 1.75.37-3.3.86-6 1.08-6 1.81 0 10.905 5.71 15.1 9.48 16.46 14.81 16.064 43.14-.857 61.03-9.25 9.78-20.46 13.95-35.87 13.33-8.48-.34-10.52-.8-16.33-3.66-3.65-1.8-8.7-5.33-11.213-7.85-5.462-5.463-7.16-4.99-2.57.718l3.25 4.045-2.7 3.54c-5.95 7.8-12.75 9.76-20.91 6.027-5.4-2.476-6.63-3.88-4.54-5.17 3.24-2.002 6.675-14.49 3.987-14.49-.55 0-1 1.197-1 2.66 0 4.26-4.62 11.1-9.003 13.34-7.87 4.017-15.46 1.787-20.66-6.072-2.74-4.14-2.74-4.15-.89-7.29 3.73-6.337 10.53-19.16 10.547-19.89.01-.41-.422-.75-.97-.75-.54 0-2.4 2.814-4.122 6.25-5.62 11.185-11.993 20.094-20.38 28.49-10.39 10.403-17.27 13.865-31.81 16-24.01 3.525-41.344-4.235-53.26-23.846-1.973-3.25-4.02-5.65-4.544-5.324-.854.53.206 2.74 4.81 10.02 1.13 1.796 1.065 2.32-.48 3.714-5.224 4.73-13.61 5.57-20.475 2.057-2.72-1.39-2.73-1.46-1.25-5.006 1.78-4.28 1.79-4.35.45-4.35-.58 0-1.67 1.48-2.43 3.284-2.85 6.83-11.72 12.71-19.148 12.71-4.674 0-10.69-3.23-13.93-7.48-1.47-1.92-3.094-3.235-3.61-2.92-.517.32.21 2.09 1.61 3.93 1.4 1.84 2.55 3.842 2.55 4.46s-2.165 3.28-4.812 5.92c-5.47 5.47-14.88 10.337-24.27 12.55-6.947 1.637-23.084 1.89-29.167.455z" fill="#fff"/><path d="M93.18 264.098c-28.593-37.527-25.67-75.426-.38-95.093 7.54-5.863 49.943-31.334 97.6 4.736M61.155 259c-2.67-6.922 3.43-16.03 20.587-14.21m-35.837 42.265c-12.962-19.31 11.82-42.264 27.45-17.853m-1.525 33.883c-3.81 18.945-28.21 25.868-39.65 14.21-11.436-11.66-8.386-29.877 10.676-36.8m71.675 36.435c-11.43 18.946-40.41 26.597-54.13 2.55m126.96 17.85c-16.01 29.513-85.78 32.063-85.4-7.65m118.19-5.1c-2.67 14.573-27.07 25.867-38.5 5.464m62.91-.364s-8.39 14.21-28.59 2.55m157.14-17.56c3.51 13.138-21.83 32.46-34.5 4.636m12.67-22.67s-17.93 44.32-49.06 50.236c-29.05 5.522-48.79.773-64.7-28.854m161.75 4.895s-10.78 25.763-33.43 7.213m78.38-84.866s37.2 10 29.18 49.57c-8.85 43.72-63.08 47.92-81.41 20.612m4.79-85.515c14.78-14.552 55.76-15.708 46.37 28.917m-88.99-59.406c10.34-10.794 58.55-12.553 54.87 23.577m-178.63-52.92s25.188-38.858 70.478-27.522c45.29 11.335 57.15 57.708 54.99 77.288M182.29 193.2c-2.156-18.498 28.538-44.677 60.322-13.522m-48.396 47.264c9.912-8.746 27.73-8.84 38.887 6.557 0 0 16.774-24.78 38.505-22.59 19.37 1.95 37.744 12.02 41.938 31.33" fill="none" stroke="#000" stroke-width="3"/></svg>