<svg xmlns="http://www.w3.org/2000/svg" width="500" height="500"><path d="M207.207 402.046c-12.257-2.402-23.174-6.916-29.4-12.154-1.75-1.474-3.503-2.362-3.892-1.973-.72.72 3.31 4.69 7.807 7.7l2.485 1.66-4.94 2.22c-6.174 2.772-15.685 3.594-22.694 1.96-7.35-1.713-19.58-8.18-26.147-13.82-4.98-4.28-12.612-13.788-11.63-14.487.226-.16 3.907-1.987 8.18-4.058 4.274-2.073 7.53-4.156 7.236-4.63-.294-.477-4.24.862-8.77 2.974-26.905 12.547-48.314 13.183-61.22 1.82-15.33-13.49-15.375-40.66-.134-80.075 2.93-7.575 2.964-7.727 1.752-7.727-.476 0-1.807 2.26-2.957 5.03-1.94 4.664-2.292 4.984-4.883 4.43-20.13-4.33-29.975-13.36-31.06-28.478-.622-8.66 1.566-16.98 7.756-29.484 9.017-18.22 20.44-30.383 38.3-40.78 15.698-9.14 30.463-11.413 40.642-6.255 5.94 3.01 6.297 3.508 5.143 7.17-1.77 5.63-2.13 9.55-.823 9.118.674-.224 1.535-2.215 1.912-4.423 1.405-8.238 7.22-17.298 16.416-25.577 4.78-4.303 21.127-14.753 23.08-14.753.74 0 1.347-.45 1.347-1 0-1.606-1.683-1.188-7.963 1.982l-5.906 2.98.54-3.73c3.95-27.414 26.482-50.534 56.74-58.22 18.005-4.58 38.71-1.256 49.405 7.926l2.313 1.987-6.316 5.944c-3.474 3.27-5.983 6.28-5.577 6.69.406.414 3.106-1.482 6-4.21 19.737-18.61 45.156-25.82 62.34-17.683 9.68 4.58 16.49 13.3 20.57 26.33 2.06 6.583 2.35 9.49 2.35 23.75 0 8.938.284 16.25.63 16.25 1.124 0 1.84-4.33 1.855-11.182.016-7.71-.976-6.992 12.995-9.38 20.07-3.43 45.65-3.38 60.98.12 16.472 3.76 29.093 10.532 40.052 21.49 11.955 11.955 18.514 26.573 21.043 46.9 1.574 12.65-.162 30.024-4.6 46.055-11.637 42.04-36.102 73.25-69.8 89.04-17.862 8.37-31.275 11.293-51.657 11.253-17.176-.034-25.968-1.74-34.374-6.665-5.572-3.265-6.307-5.37-3.675-10.53 2.324-4.563 2.44-5.096 1.06-5.096-.54 0-2.308 2.62-3.924 5.823-11.536 22.85-29.83 41.893-49.36 51.38-13.713 6.66-34.24 9.323-49.23 6.384z" fill="#fff"/><path d="M145.683 163.628c2.122-57.192 78.532-86.485 111.784-54.402M118.09 201.988c1.415-29.293 41.743-46.032 41.743-46.032m-97.635 136.7c-67.212-8.37-25.47-75.324-4.952-91.366 20.517-16.04 46.694-27.898 63.674-11.856m12.735 175.06c-56.6 32.083-108.247 11.16-67.92-82.3m120.982 114.383c-29.007 22.32-69.334-13.95-69.334-24.41m192.44-33.478c-45.28 95.55-125.228 62.77-135.84 49.513M336 147.583c138.667-30.69 162.722 69.748 118.15 150.65-44.57 80.907-141.5 69.05-148.574 50.917m-61.552-227.37c37.497-40.452 101.88-40.452 91.974 44.638" fill="none" stroke="#000" stroke-width="3"/><path d="M263.29 236.51c-7.39 55.74-121.793 56.312-122.82 13.97M323 199.052c20.204 36.357-49.445 71.375-71.054 61.702" fill="none" stroke="#000" stroke-width="3"/></svg>