<svg xmlns="http://www.w3.org/2000/svg" width="500" height="500"><path d="M285.543 357.377c-7.74-1.134-19.335-6.686-24.482-11.722-4.22-4.135-8.41-11.273-9.66-16.47-.63-2.626-.52-2.74 2.11-2.103 1.53.37 3.82 1.056 5.09 1.525 2.68.99 15.95 1.12 21.44.212 2.06-.35 3.75-1.19 3.75-1.89 0-.97-.97-1.04-4.25-.28-2.34.54-8.15.8-12.91.59-7.52-.34-9.62-.87-16-4.04-4.04-2.01-9.78-5.8-12.76-8.43-6.76-5.96-15.88-18.16-19.6-26.21-1.55-3.36-3.19-6.11-3.64-6.11-3.866 0 9.35 21.99 18.58 30.92l3.535 3.41-3.215 6.08c-4.3 8.13-14.65 18.25-23.31 22.78-10.16 5.32-17.43 7.18-27.92 7.14-14.69-.05-25.443-5.53-32.915-16.79-2.03-3.057-3.89-5.56-4.135-5.56-1.33 0-.045 3.4 2.984 7.9l3.43 5.1-4.18 2.425c-11.32 6.565-24.93 8.323-35.08 4.525-16.537-6.183-26.37-28.01-21.29-47.255 1.09-4.137 1.19-5.7.36-5.428-1.54.5-3.49 8.03-3.59 13.842l-.08 4.61-5.75 2.53c-7.278 3.2-13.35 4.053-19.93 2.805-25.877-4.91-41.62-35.03-32.84-62.82 2.463-7.8 7.72-16.55 13.866-23.087 6.48-6.894 19.76-15.076 32.822-20.225 11.87-4.68 38.35-9.87 50.57-9.91 2.888-.01 5.25-.47 5.25-1.02 0-1.32-7.284-1.27-18.213.132-4.87.622-9.17.82-9.55.44-.387-.388.8-3.59 2.63-7.126 8.47-16.34 31.82-29.51 57.725-32.568 22.56-2.66 41.554 5.6 45.76 19.9l1.557 5.294-3.46 6.29c-3.714 6.76-3.996 7.63-2.475 7.63.54 0 2.07-2.135 3.4-4.75 3.83-7.52 14.403-21.79 21.644-29.21 29.39-30.1 68.28-37.39 97.335-18.252 12.252 8.07 19.38 20.577 20.37 35.74l.52 8.024-5.88 1.23c-6.27 1.32-9.234 2.69-8.15 3.773.368.364 2.798-.06 5.4-.95 7.198-2.453 18.016-2.11 25.8.82 7.303 2.75 15.887 8 19.5 11.93 1.334 1.45 3.113 2.637 3.954 2.637 1.81 0-4.98-7.31-9.03-9.73l-2.653-1.587 3.654-5.91c4.933-7.98 17.59-19.95 25.12-23.75 24.4-12.315 50.31-4.595 61.507 18.325 8.723 17.86 6.39 39-7.135 64.66-12.71 24.113-28.216 40.004-44.517 45.63-9.31 3.21-26.583 2.19-32.17-1.89-1.7-1.25-1.69-1.65.27-9.27 3.322-12.92 5.12-28.47 3.295-28.47-.43 0-1.33 4.63-2.002 10.29-2.87 24.165-11.54 43.075-26.694 58.23-19.596 19.594-47.58 29.23-73.754 25.4z" fill="#fff"/><path d="M102.15 206.737c8.084-44.27 106.877-62.34 110.47-15.36M88.68 316.962C25.81 354.005-30.773 212.16 130.89 204.027m23.352 139.136c-44.008 29.815-75.443-9.035-62.87-45.174m146.395 18.97c-15.268 39.75-75.442 52.4-92.507 14.45m138.312-4.52c-46.703 13.55-69.156-43.37-69.156-43.37m173.338-19.88c-1.796 104.8-130.228 121.06-138.31 61.43m127.533-121.06c36.823-70.47 130.886-32.01 85.32 54.21-37.72 71.37-81.728 42.46-81.728 42.46M335.66 200.4c30.53-12.648 53.88 14.456 53.88 14.456m-184.12-10.84c52.09-99.388 153.58-66.86 143.7-6.33m-217.56 38.087c-23.056 23.383-5.32 41.424 33.684 46.64" fill="none" stroke="#000" stroke-width="3"/></svg>