<svg xmlns="http://www.w3.org/2000/svg" width="500" height="500"><path d="M122.036 421.79c-10.556-1.995-18.757-4.936-32-11.477-31.235-15.428-53.223-40.25-61.108-68.985-2.72-9.907-2.506-29.075.44-39.5 4.427-15.677 15.077-33.964 28.48-48.9l5.293-5.9 9.12 9.397c5.02 5.17 9.45 9.067 9.85 8.663.41-.405-3.05-4.68-7.68-9.498-13.55-14.115-21.2-27.27-25.49-43.86-2.25-8.702-2.5-11.296-2.06-21.402.57-12.943 2.68-21.422 7.84-31.418 17.99-34.864 56.94-46.964 96.91-30.106 8.45 3.562 22.62 11.858 27.69 16.213l3.28 2.81-3.6 8.262c-4.3 9.88-7.62 21.01-6.47 21.72.455.28 1.998-3.12 3.43-7.56 15.526-48.14 57.32-81.77 113.596-91.4 34.293-5.87 73.288.21 102.518 15.99 23.73 12.81 44.02 32.75 57.33 56.35 9.636 17.08 17.74 41.1 21.802 64.63 2.44 14.12 2.4 42.62-.07 55.49C459.6 331.28 415.24 376.06 354.55 389c-11.706 2.496-40.66 2.437-53.472-.11-27.773-5.52-51.754-18.048-70.97-37.077-8.23-8.153-17.92-20.81-23.15-30.25-1.6-2.884-3.242-5.25-3.654-5.25-1.25 0-.87 1.29 1.907 6.51 4.7 8.833 13.56 20.64 21.81 29.07l8.04 8.214-3.534 6.06c-13.37 22.936-36.23 42.233-61.05 51.54-14.27 5.35-33.2 6.94-48.41 4.07z" fill="#fff"/><path d="M63.246 245.7c-76.395 76.126-23.628 149.114 41.74 172.658 65.37 23.545 115.775-25.9 131.526-58.86M172.72 177.42c29.927-124 233.12-144.406 286.677-7.848C512.952 306.13 413.717 395.6 323.933 392.46c-89.783-3.14-120.5-75.343-120.5-75.343M82.148 264.534c-88.208-73.772-3.15-200.128 101.598-117.722" fill="none" stroke="#000" stroke-width="3"/></svg>