<svg xmlns="http://www.w3.org/2000/svg" width="500" height="500"><path d="M299.095 414.143c-26.325-4.676-51.187-25.547-65.07-54.622-2.962-6.2-4.41-8.17-4.41-6.01 0 1.47 6.02 13.44 9.29 18.47 1.748 2.69 3.177 5.2 3.177 5.57 0 .37-2.986 2.13-6.636 3.91-18.59 9.08-35.89 6.6-49.6-7.1l-4.632-4.63 6.27-6.62c6.31-6.65 10.567-12.77 10.026-14.39-.16-.48-1.64 1.18-3.288 3.69s-6.036 7.55-9.75 11.21c-11.69 11.5-25.734 17.16-42.523 17.144-12.55-.012-25.8-2.96-35.65-7.922-5.46-2.75-14.49-11.11-18.71-17.32-7.04-10.36-11.55-23.284-12.67-36.302-.92-10.68 2.54-26.624 7.97-36.72 1.07-1.996 1.8-4.07 1.62-4.61-.43-1.284-4.57 6.2-6.717 12.135-2.127 5.88-4.016 14.013-4.03 17.35l-.01 2.554-4.09-.49c-18.478-2.2-31.065-9.96-37.81-23.32-5.17-10.234-5.795-26.325-1.396-35.925 2.23-4.863 8.584-11.88 13.225-14.595 6.36-3.724 12.73-5.372 20.72-5.363 4.072.006 8.416.418 9.654.917 1.236.5 2.44.72 2.673.486.935-.934-1.367-2.022-5.25-2.48-2.556-.304-4.268-.922-4.544-1.642-.7-1.82 1.14-12.027 3.265-18.09 4.42-12.65 10.97-20.033 21.28-23.99 15.716-6.03 31.47-4.83 48.354 3.685 2.654 1.34 4.83 2.544 4.83 2.68 0 .133-.848 2.32-1.88 4.86-2.183 5.365-4.358 15.224-4.358 19.754 0 5.406 1.305 3.438 1.83-2.76.565-6.696 4.132-18.123 7.202-23.078 6.015-9.706 15.93-15.395 26.83-15.395 8.62 0 22.7 4.86 31.72 10.94 1.934 1.306 3.737 2.15 4.007 1.88.948-.95-4.055-4.375-11.67-7.995l-7.684-3.654-.016-9.063c-.02-13.156 3.303-28.41 8.37-38.43 14.375-28.45 42.815-43.405 82.79-43.53 11.72-.04 14.55.2 20.165 1.69 13.13 3.49 27.6 12.066 37.24 22.08 10.66 11.066 21.96 29.922 27.43 45.774l2.264 6.56-6.347 4.51c-6.897 4.9-13.566 11.227-12.724 12.068.29.29 2.37-1.205 4.625-3.324 12.19-11.455 29.5-19.777 41.043-19.733 16.345.06 33.288 11.29 38.43 25.463 2.264 6.24 2.208 15.905-.132 22.794-2.072 6.11-7.716 16.94-10.943 21.01-2.27 2.868-2.97 4.72-1.76 4.657.824-.044 5-5.855 7.93-11.04l2.48-4.39 4.243 1.46c26.63 9.155 40.54 31.676 35.874 58.074-4.94 27.94-17.85 42.4-43.156 48.33-10.644 2.497-41.044 1.34-41.81-1.59-.966-3.693-6.86-21.367-7.43-22.28-.39-.63-.954-.904-1.25-.61-.297.298.734 3.967 2.29 8.15 15.147 40.77 6.274 75.918-24.17 95.74-8.024 5.23-18.026 9.77-26.46 12.01-7.025 1.87-23.693 2.645-30.56 1.425z" fill="#fff"/><path d="M138.926 219.32s-.05-36.588 26.3-43.796c21.377-5.847 44.612 12.068 44.612 12.068m-144.16 41.264s.52-32.795 21.818-42.82c30.798-14.498 58.444 5.45 58.444 5.45M74.054 310.41s-46.224 1.352-47.534-43.795c-.975-33.598 33.508-42.043 50.067-35.425M197.37 348.756s-23.936 49.877-86.496 27.25c-27.2-9.837-51.43-56.057-26.495-98.1m159.16 99.852s-35.46 27.64-63.9-8.76m198.51-71.628s37.08 74.04-29.61 109c-47.15 24.718-95.85 0-118.45-52.94m201.05-140.92s59.6 12.793 37.4 76.3c-17.148 49.05-82.6 32.31-82.6 32.31M349.9 177.864s38.38-43.21 74.224-12.845c29.984 25.4-3.118 63.06-3.118 63.06m-231.047-50.8s-12.26-90.06 90.59-93.24c69.39-2.15 89.42 78.243 89.42 78.243m-127.4 114.06s10.914-35.48 64.673-34.26c34.287.78 51.43 21.8 51.43 21.8s9.35-30.363 23.378-30.363" fill="none" stroke="#000" stroke-width="3"/></svg>