<svg xmlns="http://www.w3.org/2000/svg" width="500" height="500"><path d="M341.462 437.107c-19.868-4.36-38.864-14.17-56.36-29.11l-3.15-2.69 4.764-6.31c5.28-6.995 9.297-15.268 11.81-24.33 1.918-6.922 3.216-29.482 1.697-29.482-.56 0-1.227 5.072-1.544 11.75-.91 19.088-6.45 33.205-17.96 45.765-26.94 29.4-77.55 37.9-114.767 19.278-11.173-5.59-23.867-17.9-29.29-28.405-3.72-7.203-7.69-21.188-7.7-27.137l-.01-3.25h6.93c18.044 0 39.016-4.88 54.383-12.655 10.566-5.34 22.56-16.25 26.616-24.2 2.35-4.6 2.462-5.14 1.09-5.14-.537 0-1.907 1.82-3.042 4.05-4.59 8.994-16.095 18.796-29.357 25.01-36.128 16.93-86.11 13.426-119.528-8.382-15.52-10.126-29.934-27.182-35.71-42.257-3.274-8.536-4.33-23.885-2.4-34.795 3.44-19.417 14.145-38.784 29.673-53.68 8.512-8.166 14.223-12.087 24.666-16.934 25.174-11.685 52.91-8.796 78.764 8.205 9.848 6.476 26.97 22.298 34.02 31.438 3.92 5.08 5.89 6.545 5.89 4.38 0-1.284-10.02-12.88-18.088-20.926-13.314-13.284-31.09-24.36-46.718-29.11-6.95-2.11-7.195-2.29-7.18-5.336.007-1.732.697-6.052 1.533-9.6 4.517-19.155 17.225-32.643 36.953-39.22 6.116-2.036 8.894-2.326 22-2.295 14.325.036 15.435.186 24.676 3.353 14.462 4.958 25.67 13.13 32.83 23.94 4.788 7.228 6.504 14.16 6.414 25.923-.045 5.638.257 10.25.67 10.25 1.217 0 2.18-12.377 1.41-18.157-2.17-16.292-12.068-30.02-27.65-38.343l-5.755-3.078 5.7-7.085c29.69-36.89 63.75-58.54 101.2-64.32 9.865-1.526 30.63-1.24 40.066.55 53.29 10.11 95.75 51.887 102.98 101.32 1.65 11.28.724 29.39-2.02 39.61-6.51 24.23-21.546 46.34-44.525 65.474-7.456 6.21-22.69 17.026-23.98 17.026-.315 0-4.58-2.416-9.474-5.37-7.89-4.755-25.38-12.63-28.05-12.63-2.883 0-.245 2.03 5.257 4.042 27.37 10.026 50.69 29.646 60.73 51.1 5.44 11.62 7.346 21.608 6.75 35.327-.753 17.37-5.398 30.47-15.828 44.62-11.825 16.05-29.333 27.347-48.76 31.464-7.286 1.543-24.336 1.745-30.64.362z" fill="#fff"/><path d="M280.227 405.363c121.345 111.3 239.73-80.547 82.87-134.733m-235.29 91.102c1.48 103.978 183.496 90.494 171.658-16.413m-99.148-106.91C104.13 113.93-1.193 240.83 31.62 305.78c38.474 76.153 162.778 68.83 186.455 16.11m35.515-127.41c16.278-74.69-124.304-94.132-125.784-7.727m92.522-50.903c142.054-193 372.656 38.296 181.244 153.82" fill="none" stroke="#000" stroke-width="3"/></svg>