<svg xmlns="http://www.w3.org/2000/svg" width="500" height="500"><path d="M196.844 471.59c-40.954-5.95-79.288-24.785-103.953-51.072-14.8-15.784-24.78-33.266-29.71-52.055-5.05-19.293-4.12-46.12 2.25-65.13 4.39-13.075 11.84-23.182 23.8-32.263 18.08-13.734 37.69-20.268 60.62-20.202 14.18.04 23.64 2.104 34.92 7.613 9 4.4 20.48 15.85 25.37 25.32 3.85 7.45 7.7 21.24 7.71 27.64.01 2.06.46 3.75 1.01 3.75 1.63 0 1.15-8.11-1-16.59-6.16-24.36-22.74-41.2-46.86-47.56-11.31-2.98-31.39-2.93-44.03.13-27.76 6.7-50.95 23.25-60.02 42.81-1.33 2.87-2.74 5.23-3.13 5.23-2.02 0-13.55-8.85-18-13.82-13.66-15.242-19.78-34.92-18.66-59.96.893-19.94 6.264-37.2 16.306-52.4 22.91-34.683 60.435-41.82 98.46-18.723 9.3 5.65 18.04 12.12 25.78 19.1 5.07 4.573 7.17 5.75 7.17 4.03 0-.957-9.365-9.176-17.64-15.49-9.96-7.59-21.63-14.237-31.31-17.824-4.98-1.843-9.055-3.77-9.055-4.283 0-2.02 9.445-24.557 13.255-31.62C146.46 77.86 168.68 56 197.635 41.77c16.77-8.24 35.317-13.09 55.52-14.51C329.303 21.89 398.573 70 408.38 135.06c1.863 12.353 1.84 20.83-.086 33.81-3.88 26.14-15.37 52.494-34.527 79.19-5.682 7.918-6.992 11.087-3.325 8.045 3.296-2.736 19.492-28.38 24.827-39.31 3.01-6.17 6.82-15.244 8.47-20.164 3.41-10.18 3.86-10.46 13.58-8.44 12.93 2.69 26.29 12.85 35.94 27.36 21.61 32.48 26.32 80.79 11.27 115.6-14.95 34.59-47.92 52.53-91.09 49.59l-10.36-.7 1.864-5.99c5.65-18.16 8.446-43.78 7.47-68.55-.35-8.92-.9-16.904-1.22-17.742-1.34-3.495-1.876-.17-1.228 7.63 1.043 12.54.974 29.384-.167 40.977-4.05 41.17-17.248 72.084-40.96 95.937-21.517 21.65-47.73 34.27-81.804 39.388-12.51 1.88-37.067 1.85-50.22-.06z" fill="#fff"/><path d="M174.01 177.512C47.186 56.506-23.77 259.625 65.303 301.4m303.46-44.633c160.032-206-184.19-338.53-253.638-115.25m246.088 239.137c160.03 21.62 126.817-198.8 45.29-194.476M370.28 287.016C398.953 570.806 8.992 495.673 63.8 304.32c18.56-64.786 149.464-84.994 155.504 10.07" fill="none" stroke="#000" stroke-width="3"/></svg>