<svg xmlns="http://www.w3.org/2000/svg" width="275" height="275"><g fill="#0b58c6"><path d="M137.285 36.184C81.395 36.184 35.97 81.61 35.97 137.5c0 55.89 45.424 101.316 101.315 101.316 55.89 0 101.317-45.425 101.317-101.316 0-55.89-45.426-101.316-101.317-101.316zm0 10.855c50.024 0 90.46 40.436 90.46 90.46 0 50.024-40.436 90.46-90.46 90.46-50.024 0-90.46-40.436-90.46-90.46 0-50.024 40.436-90.46 90.46-90.46z" style="line-height:normal;text-indent:0;text-align:start;text-decoration-line:none;text-decoration-style:solid;text-decoration-color:#000000;text-transform:none;block-progression:tb;isolation:auto;mix-blend-mode:normal" color="#000" font-family="sans-serif" white-space="normal" overflow="visible" solid-color="#000000"/><path d="M132.072 180.914V275h10.856v-94.086h-10.856zM132.072 0v94.09h10.856V0h-10.856zM0 132.072v10.856h93.863v-10.856H0zM180.705 132.072v10.856H275v-10.856h-94.295z" style="line-height:normal;text-indent:0;text-align:start;text-decoration-line:none;text-decoration-style:solid;text-decoration-color:#000000;text-transform:none;block-progression:tb;isolation:auto;mix-blend-mode:normal" color="#000" font-family="sans-serif" white-space="normal" overflow="visible" solid-color="#000000" fill-rule="evenodd"/><path d="M137.285 94.08a43.42 43.42 0 0 0-.32.01h.546a43.42 43.42 0 0 0-.225-.01zm-5.213.368a43.42 43.42 0 0 0-37.826 37.624h37.826V94.448zm10.855.045v37.58h37.385a43.42 43.42 0 0 0-37.385-37.58zm-48.67 48.435a43.42 43.42 0 0 0 37.815 37.644v-37.644H94.258zm48.67 0V180.5a43.42 43.42 0 0 0 37.397-37.572h-37.397zm-5.783 37.986a43.42 43.42 0 0 0 .14.007 43.42 43.42 0 0 0 .2-.006h-.34z"/></g></svg>