<svg xmlns="http://www.w3.org/2000/svg" width="200" height="250" viewBox="0 0 200 250"><path d="M99.187 810.487h52.188q21.25 0 36.562 15.625 15.313 15.313 15.313 36.563v130q0 21.25-15.313 36.875-15.312 15.312-36.562 15.312H99.187q-21.25 0-36.875-15.312Q47 1014.237 47 992.675v-130q0-21.563 15.312-36.875 15.625-15.313 36.875-15.313zm.625 186.563q1.875 10.625 8.125 16.25 6.563 5.625 17.188 5.625 10.937 0 18.437-7.813 7.813-7.812 7.813-18.437v-88.438L99.812 997.05zm51.25-139.063q-5.625-21.562-25.937-21.562-10.625 0-18.438 7.812-7.5 7.5-7.5 18.438v88.437l51.875-93.125z" style="-inkscape-font-specification:Silom" font-size="312.5" font-family="Silom" transform="matrix(1 0 0 1.0026 -24.885 -805.097)" fill="#fff" stroke="#000" stroke-width="9.987" letter-spacing="0" word-spacing="0"/></svg>