<svg xmlns="http://www.w3.org/2000/svg" width="200" height="250" viewBox="0 0 200 250"><path d="M73.25 862.675H47q6.25-52.188 52.187-52.188h52.188q21.25 0 36.562 15.625 15.313 15.313 15.313 36.563v12.812q0 27.188-50.313 70.313l-3.437 2.812q-50.313 43.125-50.313 67.813v2.5H203.25v25.937H47v-25.937q0-27.188 50.625-70.313l3.437-2.812q50.313-43.125 50.313-70.313v-12.812q0-10.938-7.813-18.438-7.812-7.812-18.437-7.812H99.187q-24.062 0-25.937 26.25z" style="-inkscape-font-specification:Silom" font-size="312.5" font-family="Silom" transform="matrix(.9962 0 0 1.0025 -24.08 -805.02)" fill="#fff" stroke="#000" stroke-width="10.007" letter-spacing="0" word-spacing="0"/></svg>