<svg xmlns="http://www.w3.org/2000/svg" width="200" height="250" viewBox="0 0 200 250"><path d="M47 810.487h156.25v25.938l-78.125 52.187h26.25q22.5 0 37.187 17.188 14.688 17.187 14.688 35v51.875q0 21.562-15.313 36.875-15.312 15.312-36.562 15.312H99.187q-45.937 0-52.187-52.187h26.25q1.875 26.25 25.937 26.25h25.938q10.937 0 18.437-7.5 7.813-7.813 7.813-18.75V940.8q0-6.25-6.563-16.25-6.562-10-19.687-10H73.25v-25.938l78.125-52.187H47v-25.938z" style="-inkscape-font-specification:Silom" font-size="312.5" font-family="Silom" transform="matrix(.9962 0 0 1.0025 -24.08 -805.02)" fill="#fff" stroke="#000" stroke-width="10.007" letter-spacing="0" word-spacing="0"/></svg>