<svg xmlns="http://www.w3.org/2000/svg" width="200" height="250" viewBox="0 0 200 250"><path d="M47 810.487h156.25v25.938H99.187v52.187h52.188q21.25 0 36.562 15.313 15.313 15.312 15.313 36.875v51.875q0 21.562-15.313 36.875-15.312 15.312-36.562 15.312H99.187q-45.937 0-52.187-52.187h26.25q1.875 26.25 25.937 26.25h25.938q10.937 0 18.437-7.5 7.813-7.813 7.813-18.75V940.8q0-10.938-7.813-18.438-7.5-7.812-18.437-7.812H47V810.487z" style="-inkscape-font-specification:Silom" font-size="312.5" font-family="Silom" transform="matrix(.996 0 0 1.0046 -24.06 -807.186)" fill="#fff" stroke="#000" stroke-width="9.997" letter-spacing="0" word-spacing="0"/></svg>