<svg xmlns="http://www.w3.org/2000/svg" width="200" height="250" viewBox="0 0 200 250"><path d="M151.375 992.675V940.8q0-10.938-7.813-18.438-7.5-7.812-18.437-7.812-10.625 0-18.438 7.812-7.5 7.5-7.5 18.438v51.875q0 10.625 7.5 18.437 7.813 7.813 18.438 7.813 10.937 0 18.437-7.813 7.813-7.812 7.813-18.437zM99.187 914.55q1.563-12.813 8.125-19.375 6.563-6.563 17.813-6.563h26.25q21.25 0 36.562 15.313 15.313 15.312 15.313 36.875v51.875q0 21.25-15.313 36.875-15.312 15.312-36.562 15.312H99.187q-21.25 0-36.875-15.312Q47 1013.925 47 992.675v-90.938q0-37.5 26.875-64.375 27.187-26.875 64.375-26.875h39.062v25.938h-25.937q-21.563 0-36.875 15.625-15.313 15.312-15.313 36.562v25.938z" style="-inkscape-font-specification:Silom" font-size="312.5" font-family="Silom" transform="matrix(1 0 0 1.0027 -24.885 -805.155)" fill="#fff" stroke="#000" stroke-width="9.986" letter-spacing="0" word-spacing="0"/></svg>