<svg xmlns="http://www.w3.org/2000/svg" width="200" height="250" viewBox="0 0 200 250"><path d="M151.375 927.675q25.937 0 38.75 16.875 13.125 16.875 13.125 35.312v12.813q0 17.5-15 35-15 17.187-36.875 17.187H99.187q-21.875 0-37.187-17.187-15-17.5-15-35v-12.813q0-18.437 13.125-35.312 13.125-16.875 39.062-16.875-25.937-3.125-39.062-15.938Q47 898.612 47 875.487v-12.812q0-21.25 15.312-36.563 15.625-15.625 36.875-15.625h52.188q21.25 0 36.562 15.625 15.313 15.313 15.313 36.563v12.812q0 23.125-13.125 36.25-12.813 12.813-38.75 15.938zm0-39.063v-25.937q0-10.938-7.813-18.438-7.5-7.812-18.437-7.812-10.625 0-18.438 7.812-7.5 7.5-7.5 18.438v25.937q0 10.625 7.5 18.438 7.813 7.5 18.438 7.5 10.937 0 18.437-7.5 7.813-7.813 7.813-18.438zm0 104.063v-25.938q0-25.937-26.25-25.937-25.938 0-25.938 25.937v25.938q0 10.937 7.5 18.75 7.813 7.5 18.438 7.5 10.937 0 18.437-7.5 7.813-7.813 7.813-18.75z" style="-inkscape-font-specification:Silom" font-size="312.5" font-family="Silom" transform="matrix(1 0 0 1.0027 -24.885 -805.155)" fill="#fff" stroke="#000" stroke-width="9.986" letter-spacing="0" word-spacing="0"/></svg>