<svg xmlns="http://www.w3.org/2000/svg" width="200" height="250" viewBox="0 0 200 250"><path d="M99.187 862.675v51.875q0 10.625 7.5 18.437 7.813 7.813 18.438 7.813 10.937 0 18.437-7.813 7.813-7.812 7.813-18.437v-51.875q0-10.938-7.813-18.438-7.5-7.812-18.437-7.812-10.625 0-18.438 7.812-7.5 7.813-7.5 18.438zm52.188 78.125q-3.125 25.937-26.25 25.937H99.187q-21.25 0-36.875-15.312Q47 936.112 47 914.55v-51.875q0-21.25 15.312-36.563 15.625-15.625 36.875-15.625h52.188q21.25 0 36.562 15.625 15.313 15.313 15.313 36.563v90.937q0 37.5-26.875 64.375-26.563 26.875-64.063 26.875H73.25v-25.937h25.937q21.563 0 36.875-15.313 15.313-15.625 15.313-36.875V940.8z" style="-inkscape-font-specification:Silom" font-size="312.5" font-family="Silom" transform="matrix(1 0 0 1.0027 -24.885 -805.155)" fill="#fff" stroke="#000" stroke-width="9.986" letter-spacing="0" word-spacing="0"/></svg>