<svg xmlns="http://www.w3.org/2000/svg" xmlns:xlink="http://www.w3.org/1999/xlink" width="600" height="400"><defs><linearGradient id="b"><stop offset="0" stop-color="#9ec3c2"/><stop offset="1" stop-color="#7b8c8b"/></linearGradient><linearGradient id="a"><stop offset="0" stop-color="#696256"/><stop offset="1" stop-color="#483d29"/></linearGradient><linearGradient xlink:href="#a" id="c" x1="252.984" y1="210.787" x2="269.278" y2="234.779" gradientUnits="userSpaceOnUse"/><radialGradient xlink:href="#b" id="e" cx="295.273" cy="137.199" fx="295.273" fy="137.199" r="9.693" gradientTransform="matrix(1 0 0 .77323 0 31.113)" gradientUnits="userSpaceOnUse"/><radialGradient xlink:href="#b" id="d" cx="267.685" cy="147.325" fx="267.685" fy="147.325" r="9.645" gradientTransform="matrix(1 0 0 .8357 0 24.204)" gradientUnits="userSpaceOnUse"/></defs><path d="M315.103 193.536c-20.316-48.436-27.265-79.096-19.797-87.35 1.91-2.11 14.947-5.745 29.74-8.293 11.79-2.03 29.374-2.865 33.273-1.578 4.577 1.51 21.398 19.5 56.66 60.594 11.71 13.647 23.11 35.465 22.93 35.646-.182.182-59.643 3.883-59.643 3.883s-57.996 3.665-58.794 3.804c-1.285.224-1.783-.54-4.37-6.708z" fill="red" stroke="#000" stroke-width="5"/><g fill="#fbff00" stroke="#000"><path d="M336.972 186.192c-.647-.26-.82-11.366-.82-52.437 0-50.844.03-52.122 1.27-52.786 1.528-.82 3.982-.867 5.188-.103 1.35.856 2.04 104.308.7 105.155-.978.62-4.96.726-6.338.17z" stroke-width="3.5"/><path d="M320.057 131.363c-.18-.472-.25-18.138-.158-39.258l.17-38.4h5.907v78.112l-2.796.203c-1.85.134-2.905-.088-3.123-.657z" stroke-width="2.5"/></g><path d="M158.087 221.987s15.954-33.623-10.775-41.55c-11.867-3.52-44.41-2.222-54.263 3.67-16.138 9.65-37.508 58.974-37.508 58.974z" fill="#2b74db" stroke="#000" stroke-width="5"/><g stroke="#000" stroke-width="5"><path d="M442.358 270.848c-142.045-3.937-381.14-16.926-386.014-20.97-.436-.363-1.176-1.585-1.645-2.716-.79-1.906-.738-2.134.7-3.096 7.7-5.147 62.057-19.456 119.958-31.578 29.283-6.13 84.557-16.394 88.288-16.394 21.304 14.057 63.95 13.84 83.12-3.937l8.29-8.204 7.22-.8c27.716-3.07 60.038-5.665 84.02-6.745 28.172-1.268 69.158-.535 76.592 1.37 5.05 1.295 9.174 8.264 11.005 18.6 1.01 5.705 2.81 26.71 1.65 35.62-2.584 19.84-3.08 36.466-10.29 37.96l-4.556 1.622-31.292-.102c-15.406-.05-36.577-.34-47.047-.63z" fill="red"/><path d="M278.05 213.944c-7.776-.924-10.796-4.29-11.66-12.99l-.457-4.614 3.873.292c13.775 1.04 73.86-8.242 85.99-13.28 2.25-.937 3.186 14.776.745 18.734-.862 1.4-7.934 3.515-13.76 5.048-16.72 4.398-32.23 6.587-49.246 6.95-6.678.14-13.645.08-15.484-.14z" fill="#d72d2d"/><path d="M492.04 175.388s23.206 43.63.927 97.47" fill="none"/></g><path d="M312.56 207.116l-4.24-12.17s11.247-3.32 12.723-5.9c1.475-2.583 7.376 3.687 7.56 4.793.184 1.106-9.036 10.51-16.043 13.276z" fill="#392215" fill-rule="evenodd" stroke="#392215" stroke-width=".5"/><path d="M322.333 188.123s.093-8.146 2.03-8.482c1.816-.315.506 4.84 1.428 4.657.923-.185 6.12-6.12 7.146-5.256 1.752 1.476-3.822 4.606-2.673 5.395.764.525 6.07-5.197 7.01-2.905.706 1.727-6.273 3.92-5.166 4.933.43.394 3.873-1.453 3.873-1.453 2.33-1.472 3.854.886-2.092 3.39-2.99 1.26 4.344-.832 4.35.322.008 1.667-2.606.422-8.252 4.656-2.028 1.522-7.653-5.255-7.653-5.255z" fill="#d6c173" fill-rule="evenodd" stroke="#3b321c" stroke-width=".9"/><path d="M320.12 147.647c1.384-.37 3.347-.058 4.334 1.752 1.66 3.04 2.95 7.56 2.858 10.05-.065 1.747-2.305 3.41-2.305 3.41s-2.028-10.695-4.886-15.213z" fill="#725737" fill-rule="evenodd" stroke="#2d2317" stroke-width=".7"/><path d="M308.32 192.55s5.582 12.86 6.345 17.496c0 0-33.304 3.092-36.255-.043-2.95-3.135 7.438-4.24 10.39-6.268 2.95-2.028 19.52-11.186 19.52-11.186z" fill="#4e3527" fill-rule="evenodd" stroke="#2a1e17" stroke-width=".9"/><path d="M271.254 193.84c-2.028-5.164-6.823-28.952-4.61-31.35 2.213-2.396 30.016-17.21 41.122-13.276 8.85 3.135 15.49 31.164 10.695 35.59-1.953 1.804-34.666 18.993-47.206 9.035z" fill="#36281e" fill-rule="evenodd" stroke="#36281e" stroke-width=".5"/><path d="M314.59 144.973c7.467-3.227 10.707 14.725 10.694 17.057-.02 3.66-3.135 6.546-3.135 6.546s-4.888-19.915-7.56-23.603z" fill="#3a251b" fill-rule="evenodd" stroke="#3a251b"/><path d="M307.58 189.83s1.246 2.95.693 5.9-5.947 7.422-7.515 7.606c-2.57.302-6.407 1.06-7.883 2.167-1.475 1.106-6.5 6.13-8.897 7.053-2.397.922-9.82 4.287-10.373 9.082-.553 4.794-2.996 14.89-2.996 14.89-2.087 2.333-5.777 4.496-9.682 4.15-4.15-.37-9.22 3.687-9.22 3.687-1.56-1.025-3.828-5.378-2.674-6.04 6.04-3.456 14.752-3.78 14.752-3.78 2.72-1.185 2.832-8.687 4.656-13.553 2.766-7.376 11.07-9.757 11.663-11.432l1.047-2.86-15.29 8.576c-.002 0-3.275 15.997-5.672 16.92-2.397.92-16.412 3.134-18.624 1.658-2.213-1.475-11.986 9.59-16.043 9.774-4.057.184-9.405-5.163-9.405-5.163l7.376-8.3s1.107 3.136 3.504 3.505c2.397.37 9.22-2.766 11.248-5.9 2.03-3.136 9.405-.923 12.54-1.107 3.135-.185 8.76-3.276 8.76-9.497 0 0 13.515-5.427 14.336-9.312.48-2.268 6.9-4.292 6.638-11.387 0 0 15.214.323 27.06-6.638z" fill="url(#c)" fill-rule="evenodd" stroke="#1d1a14"/><path d="M281.06 206.825s1.694-4.76 3.78-5.802c2.404-1.202 5.41-1.956 5.28-3.912" fill="none" stroke="#1d1a14"/><path d="M270.517 166.732s5.493-10.69 33.192-13.46c3.687-.37 10.947 19.74 11.41 28.194.726 13.27-38.658 21.284-38.703 13.547-.087-15.306-5.9-28.28-5.9-28.28z" fill="#d6c173" fill-rule="evenodd" stroke="#d6c173"/><path d="M317.723 185.173c4.795-7.56-6.85-34.042-10.695-34.483-10.21-1.173-38.91 6.822-39.646 15.49-.47 5.527 8.167 32.778 5.955 36.466-2.213 3.688-12.233 13.764-17.766 10.956-13.156-6.676 4.42-15.13 5.78-19.533 2.335-7.556-12.95-41.187-7.245-52.232 3.534-6.844 26.152-24.942 49.352-14.33 10.163 4.65 20.352 40.7 19.798 47.338-.553 6.64-5.532 10.327-5.532 10.327z" fill="#753d14" fill-rule="evenodd" stroke="#1b1612" stroke-width="2.3"/><path d="M285.27 179.456l17.148-5.9s3.84 10.27-3.504 13.645c-8.095 3.722-13.645-7.744-13.645-7.744z" fill-rule="evenodd" stroke="#000"/><path d="M278.446 173.924c.37-4.61 5.348-5.716 8.114-2.582 2.766 3.135-9.405 5.348-8.114 2.582z" fill="#fff" fill-rule="evenodd" stroke="#100906" stroke-width="1.5"/><path d="M297.44 167.47c.368-4.61 5.347-5.716 8.113-2.582 2.766 3.135-9.405 5.348-8.114 2.582z" fill="#fff" fill-rule="evenodd" stroke="#120c09" stroke-width="1.5"/><path d="M259.764 138.52s7.746-5.456 14.44-3.69c3.407.9 4.98 2.95 4.98 2.95l2.397-.92s-2.58-6.455 10.143-10.143c12.723-3.688 14.752 2.213 14.752 2.213s2.213-1.475 3.503.922c1.29 2.397-.553 4.426-.553 4.426s.553 7.745-5.9 10.695c-5.658 2.586-16.313 7.814-20.34-2.552l-1.973.71s2.117 6.825-1.107 9.588c-3.634 3.114-14.383 7.745-17.518 6.638-3.134-1.106-5.303-3.263-5.303-3.263s-2.648 3.273-4.308 2.904c-1.66-.37-2.742-5.998-1.45-6.92 1.29-.922 2.395-2.494 2.395-2.494s.17-3.443 1.47-6.222c1.286-2.75 4.374-4.84 4.374-4.84z" fill="#2e2111" fill-rule="evenodd" stroke="#2e2111"/><path d="M252.63 166.456c-2.49 4.15-2.12 9.68.276 13.646 2.398 3.964 7.008 8.574 9.68 7.837 2.675-.74 4.427-3.874 3.136-9.13-1.29-5.255-2.893-12.405-5.07-14.198-1.568-1.29-6.455-1.2-8.022 1.844z" fill="#3a251b" fill-rule="evenodd" stroke="#3a251b"/><ellipse transform="matrix(.93078 -.3656 .4507 .89267 0 0)" ry="1.469" rx="2.267" cy="266.025" cx="175.568" fill="#100906"/><ellipse cx="195.229" cy="266.951" rx="2.267" ry="1.469" transform="matrix(.93078 -.3656 .4507 .89267 0 0)" fill="#100906"/><path d="M258.045 148.084c-.26-4.238 9.36-9.548 14.93-8.736 3.13.456 6.17 7.502 3.038 10.874-2.365 2.547-8.95 5.654-12.296 5.1-3.743-.623-5.412-3.457-5.672-7.238z" fill="url(#d)" fill-rule="evenodd"/><path d="M285.722 135.512c.7-4.188 11.27-7.196 16.513-5.15 2.946 1.148 3.738 7.167 1.234 10.014-1.978 2.247-9.776 6.017-13.85 3.464-3.216-2.014-4.496-4.585-3.898-8.328z" fill="url(#e)" fill-rule="evenodd"/><path d="M287.758 181.946l14.568-4.887-.277-2.49-15.675 5.347z" fill="#fff" fill-rule="evenodd" stroke="#fff"/><path d="M290.34 184.62c3.41-1.29 6.823.46 6.823.46s-.088-3.795 5.07-3.964c2.214-.073-4.056 11.248-11.893 3.503z" fill="#983838" fill-rule="evenodd" stroke="#983838"/><path d="M251.523 168.115c-2.028 1.937-2.06 6.547 1.2 13 2.89 5.727 8.02 4.426 8.48 2.49.597-2.502-.764-9.096-2.396-11.617-2.028-3.135-4.98-4.334-7.284-3.873z" fill="#725737" fill-rule="evenodd" stroke="#2d2317" stroke-width=".7"/><g stroke="#000" stroke-width="5"><path d="M54.758 244.517s-14.806-53.628-12.884-78.464c1.08-13.963 30.273-51.527 59.467-9.124 13.25 19.244 10.9 42.565 26.165 56.94 6.6 6.215 23.62 5.35 19.932 10.994-2.135 3.266-92.68 19.653-92.68 19.653z" fill="#4ca790"/><path d="M54.488 244.71s-13.785 40.698-12.472 45.95c1.313 5.25 3.683 33.424 71.548 20.348 23.166-4.464 41.977-28.417 40.537-65.48-.086-2.235-99.612-.816-99.612-.816z" fill="#2b74db"/></g><g><path d="M402.443 366.086c-13.708-.647-19.345-1.43-25.683-3.566-11.734-3.956-19.54-11.347-23.296-22.062-2.176-6.206-7.83-27.524-13.185-49.72-5.08-21.052-12.298-50.63-12.215-56.693-3.16-5.875 26.443-5.9 60.27-7.84l61.5-3.532 11.015 18.382c21.825 36.424 37.407 65.727 42.576 80.07 5.71 15.842 2.49 29.95-8.072 35.372-13.58 6.972-55.88 11.338-92.91 9.59z" fill="red" stroke="#000" stroke-width="5"/></g><g fill="#fbff00" stroke="#000"><path d="M357.958 261.09l-1.46-1.02v-82.32c0-80.712.026-82.33 1.27-82.996 1.724-.922 5.51-.86 6.477.108.604.604.788 19.99.788 83.258v82.47l-1.672.76c-2.252 1.028-3.662.96-5.402-.26zM447.575 258.778c-1.084-.63-1.15-5.25-1.15-82.335 0-80.07.026-81.68 1.27-82.346 1.754-.938 5.653-.852 6.442.14.418.527.817 30.074 1.11 82.254l.46 81.432-1.717.783c-2.082.948-4.858.98-6.415.073z" stroke-width="4.25"/><path d="M390.632 339.17l-1.64-1.02V137.282l1.55-1.256c1.885-1.527 5.806-1.644 7.82-.233l1.46 1.022V338.782l-2.067.72c-2.832.988-5.174.878-7.123-.333zM466.768 340.383l-2.29-1.143-.167-101.53-.165-101.527 1.732-1.362c2.022-1.59 5.946-1.806 7.83-.43 1.25.914 1.276 2.823 1.443 102.973l.17 102.04-1.81.696c-3.58 1.37-4.485 1.41-6.742.283z" stroke-width="5"/></g><g><path d="M390.5 150.91c-3.286-.034-21.076-1.024-29.83-8.6-8.436-7.3-9.345-11.104-17.558-23.95-16.513-25.828-23.833-42.994-29.934-58.418-3.62-9.148-3.98-13.73-1.434-18.26 2.58-4.587 5.947-5.784 19.68-6.99 16.25-1.427 38.71-2.808 59.733-3.674 15.852-.653 18.65-.617 22.974.293 5.823 1.227 13.798 5.01 19.837 9.414 6.384 4.654 43.83 43.133 55.113 56.632 4.97 5.947 11.416 15.914 12.977 20.066 1.716 4.563 1.93 10.388.482 13.152-5.057 9.66-23.052 14.52-64.122 17.32-8.692.592-42.448 3.54-47.917 3.016z" fill="red" stroke="#000" stroke-width="5"/></g></svg>